<?xml version="1.0" encoding="UTF-8" standalone="no"?>
<!-- Created with Inkscape (http://www.inkscape.org/) -->

<svg
   xmlns:dc="http://purl.org/dc/elements/1.1/"
   xmlns:cc="http://creativecommons.org/ns#"
   xmlns:rdf="http://www.w3.org/1999/02/22-rdf-syntax-ns#"
   xmlns:svg="http://www.w3.org/2000/svg"
   xmlns="http://www.w3.org/2000/svg"
   xmlns:sodipodi="http://sodipodi.sourceforge.net/DTD/sodipodi-0.dtd"
   xmlns:inkscape="http://www.inkscape.org/namespaces/inkscape"
   width="202.25993mm"
   height="17.218382mm"
   viewBox="0 0 202.25993 17.218382"
   version="1.1"
   id="svg4781"
   sodipodi:docname="mark_ringrose.svg"
   inkscape:version="0.92.4 (5da689c313, 2019-01-14)">
  <defs
     id="defs4775" />
  <sodipodi:namedview
     id="base"
     pagecolor="#ffffff"
     bordercolor="#666666"
     borderopacity="1.0"
     inkscape:pageopacity="0.0"
     inkscape:pageshadow="2"
     inkscape:zoom="0.98994949"
     inkscape:cx="345.82811"
     inkscape:cy="-118.39834"
     inkscape:document-units="mm"
     inkscape:current-layer="svg4781"
     showgrid="true"
     inkscape:window-width="1920"
     inkscape:window-height="1009"
     inkscape:window-x="-8"
     inkscape:window-y="-8"
     inkscape:window-maximized="1"
     inkscape:pagecheckerboard="true"
     fit-margin-top="0"
     fit-margin-left="0"
     fit-margin-right="0"
     fit-margin-bottom="0">
    <inkscape:grid
       type="xygrid"
       id="grid5349"
       originx="-4.428439"
       originy="-245.3714" />
  </sodipodi:namedview>
  <metadata
     id="metadata4778">
    <rdf:RDF>
      <cc:Work
         rdf:about="">
        <dc:format>image/svg+xml</dc:format>
        <dc:type
           rdf:resource="http://purl.org/dc/dcmitype/StillImage" />
        <dc:title></dc:title>
      </cc:Work>
    </rdf:RDF>
  </metadata>
  <g
     style="display:inline"
     transform="matrix(0.26458333,0,0,0.26458333,-37.852116,-24.244498)"
     inkscape:label="MARK_RINGROSE"
     id="g5334">
    <g
       id="g5340"
       transform="matrix(0.91751898,0,0,0.91751898,46.048107,-18.447731)">
      <path
         inkscape:connector-curvature="0"
         id="path5342"
         style="fill:none;stroke:#ffffff;stroke-width:2.60751104;stroke-linecap:round;stroke-linejoin:bevel;stroke-miterlimit:10;stroke-dasharray:none;stroke-opacity:1"
         d="m 222.08,129.28 -16.16,36 h 32.32 z M 688.15997,128 v 33.60001 h 17.92005 c 6.55999,0 11.67999,-1.44001 15.20001,-4.32001 3.51996,-3.04 5.27997,-7.04 5.27997,-12.48 0,-5.44 -1.76001,-9.6 -5.27997,-12.47999 C 717.76001,129.44 712.64001,128 706.08002,128 Z M 437.44,128 v 33.60001 h 17.91999 c 6.56002,0 11.68002,-1.44001 15.20001,-4.32001 3.51999,-3.04 5.28,-7.04 5.28,-12.48 0,-5.44 -1.76001,-9.6 -5.28,-12.47999 C 467.04001,129.44 461.92001,128 455.35999,128 Z m -162.88,0 v 33.60001 h 17.92001 c 6.56,0 11.67999,-1.44001 15.19998,-4.32001 3.52002,-3.04 5.28,-7.04 5.28,-12.48 0,-5.44 -1.75998,-9.6 -5.28,-12.47999 C 304.16,129.44 299.04001,128 292.48001,128 Z m 505.28003,-0.48 c -5.28003,0 -10.08002,1.28 -14.40003,3.68 -4.32,2.40001 -7.67999,5.76001 -10.08002,9.91999 -2.55999,4.32001 -3.83996,9.12001 -3.83996,14.24001 0,5.28 1.27997,10.08 3.83996,14.39999 2.40003,4.16001 5.76002,7.52001 10.08002,9.92 4.32001,2.40001 9.12,3.52001 14.40003,3.52001 5.44,0 10.23999,-1.12 14.39996,-3.52001 4.32001,-2.39999 7.67999,-5.75999 10.08002,-9.92 C 806.88,165.44 808,160.64 808,155.36 c 0,-5.12 -1.12,-9.92 -3.67999,-14.24001 -2.40003,-4.15998 -5.76001,-7.51998 -10.08002,-9.91999 -4.15997,-2.4 -8.95996,-3.68 -14.39996,-3.68 z m 110.23999,-5.76 h 46.07995 V 128 H 897.12 v 23.84 h 34.72003 v 6.08 H 897.12 v 24.96 h 40.47998 v 6.08001 h -47.51996 z m -208.96002,0 h 25.11999 c 8.64001,0 15.35999,2.08 20.16003,6.24 4.79999,4 7.35999,9.75999 7.35999,16.8 0,5.28 -1.44,9.76 -4,13.44 -2.72003,3.51999 -6.56,6.08001 -11.35999,7.68 l 16.31995,23.04001 h -7.67999 L 711.67999,167.36 c -1.76001,0.31999 -3.52002,0.31999 -5.44,0.31999 h -18.08002 v 21.28002 H 681.12 Z m -152.32001,0 H 534.56 l 43.35998,54.56001 V 121.76 h 7.04004 v 67.20001 h -5.92004 L 535.84003,134.56 v 54.40001 h -7.04004 z m -28.95999,0 h 7.04 v 67.20001 h -7.04 z m -69.44001,0 h 25.12 c 8.64001,0 15.36001,2.08 20.16,6.24 4.80002,4 7.36002,9.75999 7.36002,16.8 0,5.28 -1.44,9.76 -4,13.44 -2.72,3.51999 -6.56,6.08001 -11.36002,7.68 L 484,188.96001 h -7.67999 L 460.95999,167.36 c -1.75998,0.31999 -3.51999,0.31999 -5.44,0.31999 H 437.44 v 21.28002 h -7.04001 z m -93.44,0 H 344 v 40.63999 L 383.51999,121.76 h 8.16 l -29.11999,30.56001 31.04001,36.64 H 385.28 L 357.76001,157.44 344,171.36 v 17.60001 h -7.04001 z m -69.44,0 h 25.12002 c 8.63999,0 15.35999,2.08 20.15998,6.24 4.80002,4 7.36001,9.75999 7.36001,16.8 0,5.28 -1.44,9.76 -4,13.44 -2.72,3.51999 -6.55999,6.08001 -11.36001,7.68 L 321.12,188.96001 h -7.68 L 298.07999,167.36 c -1.75998,0.31999 -3.51999,0.31999 -5.43998,0.31999 H 274.56 v 21.28002 h -7.04001 z m -48.79999,0 h 6.88001 l 30.72,67.20001 h -7.36 L 240.8,171.03999 h -37.44 l -8,17.92002 H 188 Z m -111.68,0 h 5.76 l 29.28,49.91999 28.8,-49.91999 h 5.92 v 67.20001 h -6.88 V 135.2 l -26.4,45.28 h -3.36 l -26.4,-44.96 v 53.44001 h -6.72 z m 743.99998,-0.48 c 3.84002,0 7.52002,0.48 11.20001,1.6 3.67999,0.96 6.88001,2.4 9.60004,4.32 l -2.40003,5.6 c -2.88,-1.76001 -5.91998,-3.19999 -9.11999,-4.16 -3.20001,-0.8 -6.23999,-1.28 -9.28003,-1.28 -5.91998,0 -10.39997,1.12 -13.27997,3.36 -3.04004,2.24001 -4.47998,5.12 -4.47998,8.8 0,2.72 0.79999,4.80001 2.39996,6.4 1.60004,1.75999 3.67999,2.88 6.08002,3.83999 2.56,0.80001 5.76001,1.76001 9.91998,2.72001 4.96002,1.27999 8.96002,2.55999 12,3.68 3.03998,1.12 5.60004,3.04 7.67999,5.44001 C 873.59998,164 874.56,167.2 874.56,171.2 c 0,3.52 -0.79999,6.55999 -2.71997,9.28 -1.76001,2.88 -4.64002,5.12001 -8.32001,6.72 -3.84003,1.6 -8.48004,2.40001 -13.92004,2.40001 -5.12,0 -9.75995,-0.80001 -14.39997,-2.40001 -4.64001,-1.59999 -8.16003,-3.68 -10.56,-6.4 l 2.71997,-5.44 c 2.40003,2.39999 5.60004,4.48 9.76002,5.92 4,1.6 8.16003,2.24 12.47998,2.24 5.92004,0 10.40002,-1.12001 13.44,-3.19999 3.04004,-2.24001 4.48004,-5.12001 4.48004,-8.64002 0,-2.71998 -0.80005,-4.79999 -2.40002,-6.39999 -1.59998,-1.60001 -3.68,-2.88001 -5.91999,-3.67999 -2.40002,-0.96001 -5.76001,-1.92002 -9.91998,-2.88001 -5.12006,-1.28 -9.12006,-2.56 -12.16003,-3.68001 -3.03998,-1.28 -5.59998,-3.03999 -7.68,-5.43998 -2.08002,-2.40001 -3.20001,-5.76001 -3.20001,-9.92002 0,-3.35998 0.79999,-6.39999 2.72003,-9.28 C 830.71997,127.68 833.44,125.44 837.12,123.68 c 3.67999,-1.6 8.32,-2.4 13.91998,-2.4 z m -71.19995,0 c 6.71997,0 12.79998,1.44 18.07995,4.32 5.28003,3.04 9.60004,7.04 12.64002,12.32 3.03998,5.28 4.64001,11.04001 4.64001,17.44 0,6.56 -1.60003,12.31999 -4.64001,17.60001 -3.03998,5.27999 -7.35999,9.27999 -12.64002,12.15998 -5.27997,3.04001 -11.35998,4.48002 -18.07995,4.48002 -6.56,0 -12.64002,-1.44001 -18.08002,-4.48002 C 756.47998,182.24 752.15997,178.08 749.12,172.96001 746.08002,167.67999 744.64001,161.92 744.64001,155.36 c 0,-6.39999 1.44001,-12.16 4.47999,-17.44 3.03997,-5.12 7.35998,-9.28 12.64001,-12.16 5.44,-3.04 11.52002,-4.48 18.08002,-4.48 z m -143.36005,0 c 5.12,0 9.76001,0.8 14.08002,2.4 4.32,1.6 7.84002,4 10.88,7.2 l -4.47998,4.64 c -5.28003,-5.28 -12,-8 -20.32001,-8 -5.44,0 -10.23999,1.28 -14.72003,3.68 -4.32,2.40001 -7.83996,5.76001 -10.23999,9.91999 -2.55999,4.32001 -3.83996,9.12001 -3.83996,14.24001 0,5.28 1.27997,10.08 3.83996,14.24001 2.40003,4.31999 5.91999,7.51998 10.23999,10.07998 4.32001,2.40001 9.28003,3.52001 14.72003,3.52001 6.88001,0 12.79999,-1.59999 17.59998,-5.12 v -22.72 h 6.72003 v 25.75999 c -3.04004,2.72001 -6.88,4.80001 -11.04004,6.24001 -4.32,1.44 -8.79998,2.24001 -13.59997,2.24001 -6.72003,0 -12.79999,-1.44001 -18.08002,-4.48002 -5.44,-2.87999 -9.59998,-6.87999 -12.79999,-12.15998 -3.03998,-5.28002 -4.47998,-11.04001 -4.47998,-17.60001 0,-6.39999 1.44,-12.16 4.47998,-17.44 3.20001,-5.28 7.35999,-9.28 12.79999,-12.32 5.28003,-2.88 11.35999,-4.32 18.23999,-4.32 z" />
    </g>
  </g>
</svg>
