<?xml version="1.0" encoding="UTF-8" standalone="no"?>
<!-- Created with Inkscape (http://www.inkscape.org/) -->

<svg
   xmlns:dc="http://purl.org/dc/elements/1.1/"
   xmlns:cc="http://creativecommons.org/ns#"
   xmlns:rdf="http://www.w3.org/1999/02/22-rdf-syntax-ns#"
   xmlns:svg="http://www.w3.org/2000/svg"
   xmlns="http://www.w3.org/2000/svg"
   xmlns:sodipodi="http://sodipodi.sourceforge.net/DTD/sodipodi-0.dtd"
   xmlns:inkscape="http://www.inkscape.org/namespaces/inkscape"
   width="210mm"
   height="297mm"
   viewBox="0 0 210 297"
   version="1.1"
   id="svg8"
   inkscape:version="0.92.4 (5da689c313, 2019-01-14)"
   sodipodi:docname="meditation_outline.svg">
  <defs
     id="defs2" />
  <sodipodi:namedview
     id="base"
     pagecolor="#ffffff"
     bordercolor="#666666"
     borderopacity="1.0"
     inkscape:pageopacity="0.0"
     inkscape:pageshadow="2"
     inkscape:zoom="0.70710678"
     inkscape:cx="472.29757"
     inkscape:cy="652.47996"
     inkscape:document-units="mm"
     inkscape:current-layer="layer1"
     showgrid="false"
     inkscape:pagecheckerboard="true"
     inkscape:window-width="1920"
     inkscape:window-height="1009"
     inkscape:window-x="-8"
     inkscape:window-y="-8"
     inkscape:window-maximized="1" />
  <metadata
     id="metadata5">
    <rdf:RDF>
      <cc:Work
         rdf:about="">
        <dc:format>image/svg+xml</dc:format>
        <dc:type
           rdf:resource="http://purl.org/dc/dcmitype/StillImage" />
        <dc:title></dc:title>
      </cc:Work>
    </rdf:RDF>
  </metadata>
  <g
     inkscape:label="Layer 1"
     inkscape:groupmode="layer"
     id="layer1">
    <path
       id="path4531"
       transform="scale(0.26458333)"
       style="fill:#ffffff;stroke-width:0.84629488"
       d="m 405.50391,147.68359 c -9.62064,0.0877 -19.27221,2.43975 -27.20508,7.04102 -7.0788,4.10586 -15.20149,13.04735 -18.77344,20.66601 -4.47678,9.54897 -5.69639,16.57012 -5.79492,33.33985 l -0.084,14.35742 -2.69726,0.002 c -4.52549,10e-4 -5.58232,2.70393 -4.88281,12.48047 0.32043,4.47877 1.10783,10.22109 1.75195,12.75781 1.29696,5.10847 5.45898,13.56788 8.14258,16.55079 3.01038,3.34617 6.49392,1.98388 3.66601,-1.4336 -0.90991,-1.09964 -0.92033,-1.73733 -0.0684,-3.4082 0.9998,-1.95794 1.07476,-1.85588 1.58203,2.14258 1.75558,13.82941 4.48191,21.49255 10.91211,30.67773 l 2.9336,4.19141 -0.31836,11.32812 c -0.29561,10.54245 -0.48509,11.6492 -2.73242,15.92774 -3.20917,6.10975 -11.7673,15.33919 -16.86133,18.18359 -2.25529,1.2593 -7.63471,3.49039 -11.95508,4.95703 -7.09182,2.40745 -9.35739,2.73875 -23.3125,3.41211 -12.03051,0.58046 -16.66174,1.14796 -20.88867,2.56446 -17.06821,5.71956 -27.60105,20.98768 -32.23438,46.71874 -1.8793,10.43683 -2.03199,25.95844 -0.51562,52.25 1.24807,21.64048 0.65281,32.12191 -2.76367,48.72461 -1.17964,5.73249 -3.35504,15.34645 -4.83399,21.36524 l -2.68945,10.94336 -0.10938,-0.0762 c -0.0293,0.0511 -0.0585,0.10129 -0.0879,0.15234 -0.0186,0.0727 -0.0373,0.14091 -0.0488,0.19141 -9.5e-4,0.004 -0.003,0.0118 -0.004,0.0156 -0.009,0.042 -0.008,0.0617 0.0137,0.0332 -0.018,0.057 -0.0322,0.0884 -0.0469,0.13086 -0.002,0.0261 -0.005,0.0522 -0.0293,0.0801 -0.003,0.007 -0.005,0.0167 -0.008,0.0234 -0.0225,0.14945 -0.043,0.2982 -0.0781,0.44531 -0.006,0.0255 -0.0203,0.049 -0.0332,0.0723 -0.0581,0.24457 -0.10697,0.36572 -0.16406,0.42187 -0.0176,0.0598 -0.04,0.11959 -0.0742,0.17774 -0.006,0.0157 -0.0116,0.0312 -0.0176,0.0469 -0.014,0.0369 -0.0257,0.0741 -0.0391,0.11133 -0.002,0.004 -0.003,0.005 -0.006,0.0117 -0.0223,0.0562 -0.0443,0.11247 -0.0625,0.16992 -0.002,0.008 0.013,-0.0124 0.0176,-0.008 0.0125,0.0151 0.006,0.0392 0.0117,0.0547 0.053,0.21628 -0.002,0.21915 -0.18359,0.54101 -0.0161,0.14584 -0.0314,0.29244 -0.0625,0.43555 -0.003,0.0148 -0.0135,0.0271 -0.0195,0.041 0.0413,0.3669 -0.10421,0.70259 -0.25391,1.02539 0.0189,-0.0472 0.0491,-0.15756 0.0527,-0.11523 0.006,0.0712 -0.0221,0.14088 -0.0391,0.21094 0.01,0.0676 0.0254,0.13821 0.0254,0.20117 0,3.44757 -6.88045,29.55933 -8.4961,32.24219 -1.07837,1.7907 -4.45995,4.48367 -9.33984,7.43945 -11.97923,7.25594 -14.3515,9.2629 -31.99805,27.04883 -9.12441,9.19646 -19.78562,19.46657 -23.6914,22.82226 -11.10193,9.53768 -28.50411,20.88868 -32.02344,20.88868 -0.6403,0 -4.4445,-1.55508 -8.45313,-3.45508 -4.00862,-1.90001 -11.29933,-4.63248 -16.20117,-6.07422 -11.3599,-3.34118 -17.011,-6.20724 -26.876952,-13.62891 -4.365627,-3.2841 -9.010969,-6.58431 -10.324219,-7.33398 -3.37739,-1.92809 -6.230062,-0.95658 -7.685547,2.61719 -0.654633,1.60735 -1.73169,3.23178 -2.392578,3.61132 -1.486651,0.8538 -4.386205,7.65093 -5.125,12.01368 -0.302619,1.78711 -1.480902,4.73606 -2.619141,6.55273 -2.527434,4.03381 -2.216763,5.81219 2.308594,13.17773 1.803262,2.93507 3.279297,5.51844 3.279297,5.74219 0,0.22386 -2.267988,0.67017 -5.041016,0.99219 -6.080625,0.70579 -9.162109,2.84794 -9.162109,6.36914 0,3.38476 1.338366,3.93374 2.666015,1.0918 0.816193,-1.74701 1.909525,-2.49582 4.207032,-2.87891 1.775569,-0.2959 3.220997,-0.15402 3.378906,0.33203 0.151831,0.4673 1.368211,0.11609 2.703125,-0.78125 1.334914,-0.89737 2.538672,-1.53589 2.673828,-1.41797 0.653087,0.56984 3.587891,0.12106 3.587891,-0.54883 0,-0.41979 -2.068235,-4.35408 -4.595704,-8.74218 -2.527468,-4.38811 -4.595703,-8.45726 -4.595703,-9.04297 0,-2.8489 2.198917,-1.95309 5.753907,2.3457 2.106296,2.54699 6.751544,7.48095 10.324218,10.96485 3.572644,3.48389 8.408951,8.98051 10.746094,12.21484 h -0.002 c 4.384175,6.06724 5.659145,7.30454 4.074215,3.95312 -0.89709,-1.89702 -0.88328,-1.89508 0.80664,0.0937 0.94504,1.11326 1.7168,1.63987 1.7168,1.16993 0,-0.92841 -4.892319,-8.49872 -9.667968,-14.95899 l -2.99414,-4.04883 2.78125,0.96094 c 1.672996,0.57872 5.440399,3.8329 9.462888,8.17188 5.48517,5.91651 7.24719,7.29823 9.81836,7.70117 4.48307,0.70254 4.09298,-1.12509 -1.2539,-5.87891 -2.41259,-2.14503 -5.63222,-5.68887 -7.1543,-7.87695 -2.3678,-3.40384 -2.54489,-3.97852 -1.23047,-3.97852 0.8449,0 4.15863,2.15302 7.36328,4.78516 3.20462,2.63218 7.43434,5.76095 9.40039,6.95312 3.19398,1.93663 3.95176,2.07209 7.10352,1.27344 2.10633,-0.53367 4.98822,-0.61178 7.15429,-0.19531 4.50382,0.86589 6.66882,0.33911 9.23829,-2.24805 1.10277,-1.11035 3.7356,-2.53618 5.84961,-3.16797 2.1137,-0.63182 3.95535,-1.73141 4.09179,-2.44336 0.40772,-2.1264 -6.95394,-1.07351 -11.45703,1.63868 -3.32632,2.00341 -4.82163,2.32367 -11.34961,2.43554 -4.13585,0.0708 -8.27233,-0.17131 -9.19141,-0.53906 -1.37504,-0.55037 -1.41685,-0.67806 -0.23437,-0.72266 1.58202,-0.0598 6.66253,-2.81478 9.67773,-5.24804 1.0611,-0.85633 3.56911,-2.37331 5.57422,-3.36914 2.00512,-0.99583 4.14088,-2.42207 4.7461,-3.16992 0.97724,-1.20824 0.77421,-1.31122 -1.8125,-0.92579 -1.60201,0.23876 -6.09397,1.83325 -9.98242,3.54493 -3.88879,1.71167 -7.49703,3.11328 -8.01758,3.11328 -0.52052,0 -1.6162,0.75868 -2.43555,1.6875 -1.47459,1.67164 -1.52771,1.66189 -5.11719,-0.98242 -1.99457,-1.46952 -3.43046,-2.99573 -3.1914,-3.39258 0.23905,-0.39685 -0.20949,-0.46851 -0.99805,-0.15821 -0.97267,0.38298 -1.23995,0.24289 -0.83008,-0.4375 0.33231,-0.55158 1.14671,-1.0039 1.80859,-1.0039 0.66222,0 1.20313,-0.30224 1.20313,-0.67188 0,-1.21421 -9.29295,-9.09538 -16.201172,-13.74023 -8.767381,-5.89501 -10.865804,-8.01936 -13.03125,-13.1836 -1.379471,-3.28989 -1.563261,-4.51916 -0.8125,-5.44726 0.829266,-1.02493 1.315234,-1.01632 3.357422,0.0684 1.313567,0.69691 3.249951,2.14912 4.302734,3.22851 2.412647,2.47367 10.564466,8.40191 18.744136,13.63282 4.53581,2.90056 8.09757,4.43264 12.70118,5.46093 3.51873,0.78592 6.75482,1.76849 7.1914,2.1836 0.43655,0.41507 1.1877,0.74974 1.66992,0.74218 0.48249,-0.007 0.31435,-0.38872 -0.375,-0.8457 -0.68905,-0.45702 -0.87751,-0.82396 -0.41796,-0.8164 0.45953,0.008 1.56498,0.58125 2.45703,1.27343 0.89202,0.69222 2.32521,1.25782 3.18359,1.25782 0.85854,0 1.35694,0.33541 1.10938,0.74609 -0.72746,1.20756 6.41742,1.84797 7.80273,0.69922 0.67383,-0.55881 1.002,-0.63162 0.72852,-0.16016 -1.08033,1.86225 5.9935,1.33082 9.98242,-0.75 13.91907,-7.26085 28.51624,-19.31436 52.02344,-42.96094 16.64545,-16.74417 24.26787,-23.32715 25.84961,-22.32421 0.42365,0.26876 1.04247,0.0363 1.375,-0.51563 0.37728,-0.6271 0.24305,-0.77258 -0.35938,-0.39062 -0.53056,0.336 -0.96484,0.41748 -0.96484,0.18164 0,-0.67971 10.31746,-6.12678 11.10937,-5.86524 0.3922,0.12953 0.49945,-0.11899 0.23828,-0.55273 -0.26128,-0.4337 0.0836,-1.0102 0.76758,-1.2793 0.68404,-0.26929 1.90578,-1.56267 2.71484,-2.875 1.89917,-3.08047 3.29124,-3.32065 5.25391,-0.90625 0.87133,1.07191 1.59741,1.51401 1.61328,0.98242 0.0153,-0.53159 -0.53254,-1.44277 -1.2168,-2.02539 -1.37257,-1.16893 -0.85093,-2.95045 0.59571,-2.0332 0.53541,0.33944 0.66602,0.17736 0.32031,-0.39649 -0.59075,-0.98067 1.03655,-7.92797 2.04297,-8.72265 0.52892,-0.41764 1.17985,-2.91685 2.12109,-8.14258 0.25478,-1.41437 1.06458,-4.69409 1.80078,-7.28711 0.73624,-2.59302 1.4068,-5.29277 1.48829,-6 0.0815,-0.70719 0.98851,-3.79298 2.01562,-6.85742 1.02708,-3.06452 1.97742,-7.11928 2.11133,-9.00977 0.1339,-1.8904 0.85264,-5.27802 1.59766,-7.52929 0.74474,-2.25132 1.35351,-4.78691 1.35351,-5.63477 0,-0.84786 0.26903,-1.81912 0.59766,-2.15625 0.32861,-0.33713 1.12371,-2.42596 1.76562,-4.64258 1.43505,-4.95522 1.81688,-38.34122 0.70899,-61.89062 -0.41031,-8.72198 -0.76765,-16.43735 -0.79297,-17.14453 -0.0684,-1.81403 0.98404,-14.44707 1.48242,-17.78711 0.22863,-1.53226 0.62399,-4.14542 0.87695,-5.8086 0.25299,-1.66322 0.78231,-2.81976 1.17578,-2.57031 0.39349,0.24949 0.52977,-0.27597 0.30274,-1.16601 -0.22696,-0.89039 -0.0158,-1.87128 0.4707,-2.17969 1.046,-0.66323 4.27539,-7.90764 4.27539,-9.5918 0,-0.64324 0.75084,-1.65138 1.66992,-2.24023 0.91908,-0.58889 1.67188,-1.54022 1.67188,-2.11524 0,-0.57502 1.86483,-2.99111 4.14453,-5.36719 2.27973,-2.37603 3.88811,-4.32031 3.57422,-4.32031 -1.33807,0 3.79401,-3.07502 6.47656,-3.88086 2.05843,-0.61837 3.01194,-1.44879 3.19922,-2.78515 0.29732,-2.12077 1.82227,-2.63892 1.82227,-0.61914 0,1.56597 0.97822,1.65454 2.38085,0.21484 1.19268,-1.22389 2.65023,-1.40339 13.07618,-1.59766 8.79362,-0.16384 17.652,1.22035 25.63476,4.00586 3.13429,1.0935 5.69727,1.61444 5.69727,1.15625 0,-0.45815 -0.65674,-1.0548 -1.46094,-1.32617 -1.64575,-0.5554 -5.06265,-2.02173 -9.40039,-4.03516 -1.60839,-0.74653 -4.61563,-1.74812 -6.68359,-2.22461 -4.78857,-1.10294 -18.37192,-1.06697 -23.8125,0.0625 -2.2977,0.47717 -5.21415,0.96985 -6.48047,1.09571 -1.26633,0.12605 -2.55167,0.48506 -2.85547,0.79687 -0.30376,0.31151 -1.1825,0.56641 -1.95313,0.56641 -0.77065,0 -4.56078,3.16889 -8.42382,7.04101 -3.86308,3.87247 -7.33407,6.94819 -7.7129,6.83594 -0.37837,-0.11248 -0.46656,0.16468 -0.19531,0.61524 0.27145,0.45055 0.11156,1.0611 -0.35547,1.35742 -0.46702,0.29612 -0.84961,1.4571 -0.84961,2.58008 0,1.12301 -0.3719,2.27645 -0.82617,2.56445 -0.47365,0.30028 -0.61359,-0.0438 -0.32812,-0.80664 0.27369,-0.73168 0.081,-1.33008 -0.42774,-1.33008 -0.50871,0 -0.92384,0.76283 -0.92382,1.69531 -10e-6,1.43762 -2.29648,7.28184 -5.15626,13.12696 -0.41272,0.84423 -0.52644,1.90512 -0.2539,2.35742 0.27246,0.45229 0.096,0.82226 -0.39063,0.82226 -0.48666,0 -0.88476,0.6009 -0.88476,1.33594 0,0.73489 0.37586,1.09924 0.83398,0.8086 0.54267,-0.34402 0.56983,0.17959 0.0781,1.5039 -0.41445,1.11844 -1.0224,4.32304 -1.35156,7.1211 -0.92426,7.84898 -2.26397,8.83151 -1.67774,1.23046 1.0064,-13.04829 5.34879,-27.59994 10.88477,-36.47851 2.87701,-4.61412 5.04079,-6.83644 4.0332,-4.14258 -0.38725,1.03536 -0.24564,1.27804 0.48242,0.81641 0.57066,-0.36076 0.81594,-1.24556 0.54688,-1.96485 -0.59622,-1.59405 1.06405,-3.85613 2.26953,-3.09179 0.47841,0.30323 0.62823,0.15003 0.33203,-0.3418 -1.01814,-1.69013 8.06527,-7.55202 14.90234,-9.61719 1.83819,-0.55521 10.10912,-1.3478 18.38086,-1.75976 15.8226,-0.78804 22.2666,-2.08362 31.76367,-6.39258 2.58542,-1.17305 4.95558,-2.09733 5.26758,-2.05274 1.58136,0.22644 2.70378,-0.20607 2.29492,-0.88476 -0.43263,-0.71819 3.3892,-3.88131 4.74805,-3.92969 0.3447,-0.0122 0.65811,-0.40745 0.69727,-0.87891 0.11817,-1.42582 1.73881,-3.01285 2.55078,-2.49804 0.41878,0.26555 0.66361,0.164 0.54297,-0.22461 -0.12079,-0.38865 1.41711,-2.92264 3.41797,-5.63086 2.00049,-2.70822 4.15208,-6.37195 4.78124,-8.14258 1.09492,-3.07982 1.12601,-2.92361 0.7129,3.62695 -0.43709,6.93045 -1.68886,12.84153 -3.13477,14.79883 -0.56536,0.76536 -0.3418,1.07031 0.78125,1.07031 2.25668,0 3.52886,-2.5938 4.51367,-9.20703 0.47452,-3.18667 1.20677,-8.10875 1.62891,-10.9375 0.42217,-2.82875 0.6307,-8.71127 0.46289,-13.07226 -0.17356,-4.50115 0.027,-7.92774 0.46484,-7.92774 0.42425,0 2.92924,1.49567 5.56641,3.32422 6.11921,4.24293 9.08805,5.75482 12.73242,6.48242 2.15127,0.42951 2.59385,0.34669 1.67188,-0.3125 -1.05578,-0.75484 -0.98972,-0.90401 0.41796,-0.94336 1.16478,-0.0325 0.78451,-0.43947 -1.2539,-1.34179 -1.60838,-0.71198 -3.79794,-2.43113 -4.86524,-3.82227 -1.06722,-1.39113 -2.29818,-2.5293 -2.73437,-2.5293 -0.43623,0 -2.83461,-2.09636 -5.33008,-4.65624 -2.49551,-2.56019 -5.77745,-5.27363 -7.29297,-6.0293 -3.82944,-1.90942 -6.08074,-3.76313 -5.4082,-4.45313 0.87982,-0.90262 -1.9554,-3.66089 -3.24219,-3.15429 -0.834,0.32833 -0.22038,1.70324 2.26758,5.08398 1.87615,2.54937 3.74218,4.63672 4.14648,4.63672 0.40447,0 0.73438,0.39103 0.73438,0.86914 0,0.4781 1.04956,1.92498 2.33203,3.21484 1.28251,1.28986 1.95919,2.05479 1.50391,1.70118 -0.45532,-0.35358 -1.67773,-0.64258 -2.7168,-0.64258 -1.79675,0 -1.90302,0.36655 -2.16797,7.5 l -0.27734,7.5 -0.17188,-9.21094 -0.17187,-9.21289 -3.75586,-5.23438 c -2.06572,-2.87881 -3.54748,-5.57923 -3.29297,-6.00195 0.25464,-0.42272 0.0923,-0.76953 -0.36133,-0.76953 -1.32866,0 -4.03358,-8.45095 -5.07617,-15.86328 -0.53012,-3.76905 -1.4768,-8.78138 -2.10352,-11.13867 -2.51439,-9.45733 -2.83326,-11.3926 -2.89453,-17.56055 -0.0621,-6.25866 -1.11035,-11.35193 -2.77929,-13.50977 -1.27277,-1.64533 -0.22752,-32.25369 1.28515,-37.64257 3.16218,-11.26522 8.5887,-20.01744 16.2168,-26.15235 6.03008,-4.84968 9.83397,-6.85182 17.81055,-9.375 7.83107,-2.47724 19.46297,-2.6495 27.5625,-0.4082 13.07592,3.61845 25.64121,13.62502 30.76171,24.5 4.46223,9.47679 5.38178,14.40363 5.78907,30.99219 0.32734,13.33433 0.16382,15.97758 -1.37891,22.23633 -0.96295,3.90634 -1.75158,8.86205 -1.75195,11.01171 -6.5e-4,3.6357 -2.10193,15.83003 -2.97852,17.28516 -0.21388,0.35508 -0.75465,3.66273 -1.20312,7.34961 -1.18549,9.74615 -1.70582,11.88042 -2.55274,10.47461 -0.51666,-0.85775 -1.05229,-0.32101 -1.99804,2.00195 -0.71071,1.74511 -1.29297,3.51132 -1.29297,3.92578 0,0.41447 -0.65677,1.57605 -1.46094,2.58203 -0.80421,1.00599 -2.13921,2.80057 -2.96485,3.98829 -0.82533,1.18771 -2.06615,2.16015 -2.75781,2.16015 -2.02545,0 -7.81462,3.72329 -8.33008,5.35742 -0.26022,0.82506 -0.82331,1.5 -1.25195,1.5 -0.42867,0 -2.88007,2.17136 -5.44531,4.82422 -2.5652,2.65286 -6.04112,5.55699 -7.72656,6.45508 l -3.06446,1.63281 2.92383,-0.44726 2.92383,-0.44922 -2.92383,1.21289 c -2.61589,1.08509 -2.70442,1.22065 -0.83594,1.27148 2.82399,0.0769 10.3498,-3.61186 15.48633,-7.58984 3.21993,-2.49367 4.23143,-2.93226 4.30664,-1.86914 0.0539,0.76405 0.3498,6.59625 0.65821,12.96094 0.87231,17.99769 3.3179,28.28711 6.72265,28.28711 1.53619,0 1.56435,-1.1349 0.0937,-4.11328 -1.35012,-2.73752 -2.0566,-6.4364 -2.57031,-13.45899 -0.32776,-4.48078 -0.25838,-4.81236 0.54492,-2.57227 1.26886,3.539 4.35627,8.44987 7.69922,12.2461 1.54174,1.75071 2.84426,3.56956 2.89453,4.04101 0.0503,0.47146 0.37406,0.87576 0.71875,0.89844 0.34466,0.0223 2.467,1.26278 4.7168,2.75781 4.47874,2.97616 12.33854,6.24482 20.14062,8.375 2.94637,0.80444 11.04122,1.65056 19.63477,2.05274 11.62617,0.54414 15.64869,1.06114 19.63476,2.52344 9.20792,3.37787 17.68858,10.72926 21.99414,19.0664 1.85118,3.58436 1.40694,3.22944 -2.49414,-1.99414 -0.95425,-1.27778 -2.14237,-2.24355 -2.64062,-2.14453 -0.49822,0.0991 -0.92264,-0.53925 -0.94531,-1.41992 -0.0214,-0.88071 -1.35448,-2.57012 -2.96289,-3.75391 l -2.92383,-2.15234 2.92383,2.66016 c 1.60841,1.46218 2.54744,2.66639 2.08789,2.67773 -0.45952,0.0104 -2.33953,-1.42473 -4.17774,-3.1875 -1.83813,-1.76273 -3.90639,-3.25234 -4.5957,-3.31055 -0.68931,-0.0584 -4.21734,-1.1632 -7.8418,-2.45508 -6.26207,-2.23184 -7.17764,-2.32975 -18.38281,-1.95898 -10.30787,0.34114 -12.52824,0.68467 -17.64062,2.72656 -3.21676,1.28474 -6.22408,2.71646 -6.6836,3.18164 -0.55325,0.55983 -0.41186,0.70106 0.41797,0.41797 0.68931,-0.23516 2.9457,-0.64483 5.01367,-0.91015 2.06793,-0.26525 5.82799,-0.87424 8.35547,-1.35352 6.51583,-1.23557 19.2168,-2.31572 19.2168,-1.63477 0,0.31473 1.24227,0.7784 2.76172,1.03125 1.51948,0.25297 4.24638,1.13456 6.05859,1.95899 1.81221,0.82446 3.59754,1.43282 3.9668,1.35156 0.88346,-0.19434 3.12947,2.12611 2.59179,2.67774 -0.2293,0.23527 0.91508,0.68434 2.54493,0.99804 1.6298,0.31367 2.96484,0.93504 2.96484,1.37891 0,0.44387 1.88001,2.74551 4.17773,5.11523 2.29773,2.36977 4.17774,4.86346 4.17774,5.54102 0,0.67752 0.49369,1.53882 1.09765,1.91601 0.60394,0.37701 1.97858,2.99938 3.05469,5.82813 1.07607,2.82871 2.27422,5.51107 2.66211,5.95898 0.38778,0.44784 0.70508,1.62324 0.70508,2.61329 0,0.98974 0.34615,2.16732 0.76953,2.61523 0.42338,0.44787 0.9826,2.74228 1.24414,5.09961 1.97586,17.80717 1.95805,15.89879 0.55078,58.65625 -0.64819,19.69784 -0.58422,25.36425 0.33008,29.57226 0.62207,2.86311 1.38546,7.84115 1.69727,11.06055 0.31192,3.21944 0.80707,5.60839 1.09961,5.3086 0.29234,-0.29991 1.16293,2.6576 1.93554,6.57421 1.65967,8.41301 5.57382,23.62865 6.56836,25.53516 0.62472,1.19754 1.04153,2.95314 2.95703,12.44531 0.2854,1.41438 0.81081,3.3442 1.16797,4.28711 0.35732,0.94288 1.24287,3.52145 1.9668,5.73047 1.29864,3.96261 1.28914,4.04466 -0.75195,6.13867 -1.26282,1.29562 -1.72779,2.33871 -1.19336,2.67774 0.48151,0.30531 0.875,0.12283 0.875,-0.4043 0,-0.52687 0.41877,-0.69305 0.92968,-0.36914 0.51092,0.32398 1.29123,0.0579 1.73438,-0.5918 0.64437,-0.94477 0.89214,-0.96036 1.24023,-0.0742 0.30584,0.77787 0.74461,0.84449 1.47266,0.22461 0.75798,-0.64539 1.34401,-0.29107 2.18359,1.31836 0.63134,1.21028 3.79482,3.76071 7.0293,5.66797 12.41318,7.31966 14.69814,9.19886 30.5293,25.11328 25.40273,25.5363 38.69129,36.38102 55.1582,45.01172 3.519,1.84434 11.36496,3.25703 10.54688,1.89844 -0.20599,-0.34182 1.18651,-0.6618 3.0957,-0.71094 4.81561,-0.12419 7.23242,-0.58498 7.23242,-1.37891 0,-0.371 0.75085,-0.67578 1.66992,-0.67578 0.91911,0 1.67188,-0.35506 1.67188,-0.78906 0,-0.434 1.22132,-1.04403 2.71484,-1.35547 5.24353,-1.09323 12.67689,-4.10735 15.61914,-6.33398 7.83991,-5.93307 14.3244,-11.35027 20.41602,-17.05664 6.73485,-6.30898 9.07985,-7.26256 9.55078,-3.88672 0.31325,2.24542 2.34537,3.23199 3.00781,1.46094 0.81993,-2.19209 -1.71158,-7.07308 -3.96875,-7.6543 -2.68267,-0.69078 -4.58368,0.4123 -12.66602,7.34766 -12.17106,10.44408 -17.26179,13.53973 -30.93945,18.81054 -4.97329,1.91649 -11.64047,5.01986 -14.8164,6.89844 -3.17594,1.87854 -6.12796,3.41602 -6.5586,3.41602 -1.71855,0 -12.85255,-6.31617 -20.56445,-11.66602 -12.78781,-8.87112 -18.62792,-13.99974 -36.99219,-32.48828 -18.90486,-19.03287 -20.98627,-20.83793 -30.08008,-26.08399 -7.34524,-4.23734 -9.78632,-6.3933 -11.22265,-9.91015 -0.89428,-2.18967 -7.99414,-30.94301 -7.99414,-32.375 0,-0.0359 0.0689,-0.12565 0.18359,-0.25195 -0.17064,-0.33642 -0.0424,-0.7324 -0.0449,-1.10352 -0.002,-0.0518 -0.004,-0.10447 -0.008,-0.15625 -10e-4,-0.0257 -0.002,-0.0504 -0.004,-0.0762 -0.0214,-0.0169 -0.0403,-0.0808 -0.0547,-0.11719 -0.034,-0.09 -0.06,-0.18355 -0.0898,-0.27539 -0.0809,-0.0227 -0.0396,-0.007 -0.0898,-0.19531 -0.0545,-0.20538 -0.0443,-0.4 -0.0273,-0.59961 -0.0155,-0.0109 -0.0316,-0.0546 -0.043,-0.084 -0.11679,-0.29896 -0.11448,-0.56555 -0.0742,-0.87695 0.002,-0.0384 -0.003,-0.0768 -0.002,-0.11523 -7.9e-4,-10e-4 3.5e-4,-0.003 -0.002,-0.004 -0.0227,-0.0378 -0.0381,-0.0804 -0.0664,-0.11328 -0.0389,-0.0446 -0.0955,-0.0726 -0.13477,-0.11719 -0.10696,-0.12261 -0.36564,-0.38324 -0.40039,-0.63086 -0.004,-10e-4 -0.009,8.6e-4 -0.0137,-0.002 -0.0949,-0.0302 -0.10743,-0.17032 -0.14258,-0.26367 -0.0892,-0.23714 -0.11721,-0.419 -0.13867,-0.61329 -1.21812,-2.98829 -6.1512,-24.66372 -8.11133,-35.74804 -2.12133,-11.99562 -2.43035,-26.5953 -1.27343,-60.00391 0.64588,-18.65151 0.55293,-22.64542 -0.70508,-30.80859 -3.91941,-25.43343 -12.61022,-40.15404 -28.38672,-48.07813 -6.85153,-3.44129 -13.60176,-4.64101 -26.37891,-4.6875 -12.37723,-0.045 -22.09661,-2.36303 -33.23242,-7.92578 -6.10889,-3.05166 -13.4903,-10.65898 -17.29492,-17.82617 -2.35846,-4.44291 -2.50119,-5.29186 -2.80469,-16.73047 l -0.31836,-12.04883 4.16016,-5.64062 c 4.5154,-6.12039 6.58674,-10.86011 8.07617,-18.48828 0.73414,-3.75988 1.34109,-4.97996 2.5957,-5.21875 3.38699,-0.64462 6.84876,-5.57222 9.95508,-14.16602 2.10448,-5.8221 3.44544,-15.10742 2.18164,-15.10742 -0.43714,0 -0.93753,1.64083 -1.11328,3.64453 -0.17575,2.0037 -0.3021,0.83714 -0.2832,-2.5918 0.0236,-3.94245 0.27364,-5.57675 0.68164,-4.44531 1.21776,3.3773 2.49109,0.85092 1.90039,-3.77148 -0.70205,-5.49351 -2.34819,-8.26563 -4.90625,-8.26563 h -1.95508 l -0.45312,-14.78515 c -0.50786,-16.5879 -1.97639,-24.10869 -6.51368,-33.33008 -3.38812,-6.8865 -11.92038,-15.70275 -19.24609,-19.88672 -7.80527,-4.45786 -17.39498,-6.63456 -27.01562,-6.54688 z m -34.23047,65.33399 c -1.68601,0 -2.21962,0.70461 -3.33203,4.39453 -0.72844,2.41622 -2.11794,9.56559 -3.08789,15.88867 -2.50401,16.32306 -1.84332,19.34684 7.87109,36.07813 2.32675,4.0074 4.6241,7.56962 5.10742,7.91601 0.48337,0.34635 0.93915,0.63578 1.01172,0.64258 0.66346,0.0658 -3.42883,-11.12555 -5.79297,-15.84375 -5.5015,-10.97952 -6.37141,-14.2656 -5.9707,-22.55078 0.45057,-9.31586 1.03781,-13.02344 2.06054,-13.02344 0.43876,0 0.79883,-0.88392 0.79883,-1.96289 0,-1.07896 0.75085,-3.47474 1.66993,-5.32422 2.25271,-4.53374 2.16235,-6.21484 -0.33594,-6.21484 z m 69.89453,0.30664 c -1.98534,-0.0237 -2.08609,1.59423 -0.27344,4.74609 0.93082,1.61854 1.8136,3.70025 1.96289,4.625 0.14929,0.92475 0.69793,2.47554 1.21875,3.44531 0.94624,1.76254 2.40205,14.80797 2.19531,19.66602 -0.14248,3.34326 -1.86984,7.94449 -6.99023,18.61133 -2.29398,4.77892 -4.17188,9.60808 -4.17187,10.73242 0,1.14456 0.36814,1.81224 0.83593,1.51563 0.45963,-0.29138 0.8356,-0.98929 0.83594,-1.55079 2.6e-4,-0.56149 1.61926,-3.1433 3.59766,-5.73632 6.8403,-8.96536 10.15999,-17.67478 9.56445,-25.09961 -0.51318,-6.39789 -2.97349,-20.85446 -4.42774,-26.01953 -1.00992,-3.58801 -1.63731,-4.48191 -3.38281,-4.82422 -0.36046,-0.0707 -0.68122,-0.10794 -0.96484,-0.11133 z m 18.22265,11.48047 c 0.48643,0 0.65104,0.38596 0.36719,0.85742 -0.28399,0.47146 -0.68218,0.85742 -0.88476,0.85742 -0.20259,0 -0.36914,-0.38596 -0.36914,-0.85742 0,-0.47146 0.40033,-0.85742 0.88671,-0.85742 z m -105.18359,2.41015 c 0.20087,-0.0762 0.65191,0.59964 1.16406,1.81055 0.68298,1.61456 1.12417,3.29792 0.98047,3.74023 -0.3557,1.09486 -2.2966,-3.39145 -2.25586,-5.21484 0.004,-0.20072 0.0444,-0.31052 0.11133,-0.33594 z m 88.2168,0.63086 c -0.33698,-0.0161 -1.10928,0.61305 -1.9961,1.67383 -1.18238,1.41438 -2.9578,3.25077 -3.94335,4.08203 -1.56911,1.32312 -1.59341,1.43839 -0.19336,0.92578 1.1077,-0.40548 1.41445,-0.27649 0.99609,0.41797 -0.3326,0.55158 -0.37539,1.00391 -0.0957,1.00391 1.08094,0 5.5713,-2.72103 5.16992,-3.13281 -0.23312,-0.23916 -1.18312,-0.0194 -2.11133,0.49023 -2.66872,1.4652 -2.68288,1.11019 -0.0625,-1.57812 1.34328,-1.37811 2.43113,-3.01699 2.41602,-3.64258 -0.004,-0.1564 -0.0674,-0.23487 -0.17969,-0.24024 z m 19.50195,0.38868 c 0.41639,-10e-6 0.75586,0.76997 0.75586,1.71289 0,0.94291 -0.14223,1.71484 -0.31836,1.71484 -0.17616,0 -0.51743,-0.77193 -0.75781,-1.71484 -0.24053,-0.94292 -0.0962,-1.71289 0.32031,-1.71289 z m -112.36914,0.85546 c 0.18062,0 0.33008,0.57992 0.33008,1.28711 -1e-5,0.70719 -0.36541,1.28516 -0.81055,1.28516 -0.44519,0 -0.59277,-0.57797 -0.32812,-1.28516 0.26453,-0.70719 0.62797,-1.28711 0.80859,-1.28711 z m 108.43359,1.13672 c 0.22734,-0.0618 0.56463,0.33412 0.80274,0.97071 0.56496,1.51047 0.0836,1.77582 -0.74024,0.4082 -0.30311,-0.50283 -0.37155,-1.09757 -0.15234,-1.32227 0.0274,-0.0281 0.0574,-0.0478 0.0898,-0.0566 z m -85.80468,0.57813 c -0.45954,0 -0.1176,0.82832 0.75781,1.83984 l 1.58984,1.83985 -2.08789,-1.12305 c -1.91152,-1.02699 -1.99078,-1.00234 -0.9414,0.30273 1.31186,1.63151 1.20154,1.59985 2.99804,0.89258 1.24321,-0.48946 1.23758,-0.66961 -0.0605,-2.14258 -0.78039,-0.88466 -1.79632,-1.60937 -2.25586,-1.60937 z m -19.32227,0.39843 c 0.56611,0.0291 1.20117,0.35153 1.20117,0.79493 0,0.12933 -0.54773,0.23632 -1.21679,0.23633 -0.66918,-10e-6 -1.02055,-0.32794 -0.7793,-0.72852 0.13948,-0.23155 0.45525,-0.31992 0.79492,-0.30274 z m -0.18359,3.73829 1.85156,3.14843 c 1.18251,2.01018 2.00759,2.73471 2.28516,2.00391 0.23958,-0.62942 0.24117,0.39737 -0.006,2.2832 -0.24291,1.88584 -1.05377,4.39362 -1.80274,5.57227 h -0.002 c -0.74899,1.17864 -1.5511,2.84847 -1.7832,3.71094 -0.27487,1.02179 -0.92876,-0.18707 -1.87891,-3.47071 -1.81683,-6.27924 -1.82903,-8.29387 -0.0605,-11.06054 z m 4.33789,0.49023 c 0.0849,-0.0207 0.16221,-0.002 0.22656,0.0645 0.25724,0.26392 7.3e-4,0.95564 -0.57031,1.53711 -0.82515,0.84028 -0.92216,0.74317 -0.46875,-0.47851 0.23533,-0.63405 0.55784,-1.06097 0.8125,-1.12305 z m 98.50195,0.41992 c 0.0373,0.005 0.0883,0.10429 0.15039,0.31055 0.53378,1.7741 1.27913,1.89241 2.72461,0.42969 0.84881,-0.85888 1.309,-0.73162 2.32422,0.64258 1.4383,1.94659 1.11248,7.93143 -0.64844,11.89648 -1.00864,2.27112 -1.09103,2.30079 -1.70312,0.60352 -0.35388,-0.98142 -1.02081,-1.78516 -1.48047,-1.78516 -0.45971,0 -1.43474,1.06091 -2.16797,2.35742 -0.73489,1.29651 -1.07088,1.5855 -0.75,0.64258 1.14996,-3.3807 1.89984,-9.49 1.57813,-12.85742 -0.13522,-1.41438 -0.13778,-2.25581 -0.0274,-2.24024 z m 6.96094,10.70508 c 0.0752,0.0389 0.11952,0.21723 0.13086,0.53516 0.0253,0.70719 -0.31822,1.86508 -0.76367,2.57226 -0.98707,1.56693 -0.98707,0.21198 0,-2.14453 0.29584,-0.70651 0.50753,-1.02775 0.63281,-0.96289 z m -105.60156,1.48242 c 0.11383,0.0414 0.32141,0.22426 0.63086,0.53906 0.57101,0.58147 0.82769,1.27319 0.57031,1.53711 -0.25725,0.26393 -0.72517,-0.2132 -1.03906,-1.05859 -0.28339,-0.76355 -0.35184,-1.0865 -0.16211,-1.01758 z m 41.60156,3.33789 c -0.7827,0 -2.4636,3.41018 -3.55664,7.21485 -1.39374,4.85115 0.89368,8.34159 3.41992,5.21875 0.91317,-1.12888 1.302,-1.08436 3.23633,0.37109 3.00468,2.26084 4.04294,0.80568 1.72265,-2.41406 -1.62776,-2.25874 -1.7604,-2.94986 -0.92187,-4.83789 1.27015,-2.85995 1.2354,-3.40959 -0.14258,-2.23633 -0.6167,0.52509 -1.35981,0.71051 -1.65234,0.41016 -0.29276,-0.30037 -1.26591,1.14828 -2.16211,3.2207 -1.94472,4.49693 -2.26228,3.33863 -0.49414,-1.80274 1.43406,-4.17003 1.53739,-5.14453 0.55078,-5.14453 z m 15.36914,0.54493 c -0.49518,0.0468 -0.30431,1.61622 0.74609,4.19531 1.68106,4.12827 1.70088,6.50911 0.0449,5.85742 -1.26338,-0.4975 -1.7296,0.63036 -0.69726,1.68945 0.30637,0.31431 1.29435,0.57227 2.19531,0.57227 1.4521,0 1.59407,-0.46646 1.25391,-4.09766 -0.21101,-2.25295 -1.08678,-5.19756 -1.94727,-6.54492 -0.75374,-1.18019 -1.29859,-1.69996 -1.5957,-1.67187 z m -2.99609,1.5996 0.54882,2.57032 c 0.30142,1.41437 0.65313,2.70315 0.78125,2.86132 0.12813,0.15846 -0.78578,1.3144 -2.03125,2.57032 -1.24535,1.25592 -1.89285,1.9942 -1.4375,1.64062 1.353,-1.05082 2.58638,-0.73185 1.4961,0.38672 -0.55144,0.56575 -1.00196,1.39546 -1.00196,1.8457 0,0.45024 0.76146,0.11342 1.69141,-0.75 1.18961,-1.10448 1.40099,-1.75316 0.71289,-2.18945 -0.66909,-0.42426 -0.41276,-0.98323 0.81445,-1.76953 2.23268,-1.43046 2.25822,-2.56242 0.11133,-5.14258 z m 44.46093,2.87696 -0.58398,1.99023 h -0.004 c -0.32107,1.09463 -1.28896,3.14617 -2.15039,4.56055 l -1.5664,2.57226 -0.01,-2.63086 c -0.01,-1.7745 0.68871,-3.26037 2.14844,-4.5625 z m -97.85937,0.12304 c 0.48657,0 0.65302,0.38597 0.36914,0.85743 -0.28403,0.47145 -0.68203,0.85742 -0.88477,0.85742 -0.20266,0 -0.36914,-0.38597 -0.36914,-0.85742 0,-0.47146 0.3981,-0.85743 0.88477,-0.85743 z m 41.97461,3.30469 c 0.34281,-0.10148 1.38098,0.82378 2.5039,2.26758 1.2833,1.65007 2.22245,2.9874 2.08789,2.97266 -0.93233,-0.10331 -4.9149,-4.45709 -4.69531,-5.13282 0.0188,-0.0578 0.0545,-0.0929 0.10352,-0.10742 z m -32.69727,16.43164 c -0.0796,0.0371 0.20586,0.5176 0.78125,1.47852 0.63519,1.06078 1.44202,1.92969 1.79102,1.92969 1.0074,0 0.75817,-0.47758 -1.15625,-2.22461 -0.89153,-0.81358 -1.33641,-1.2207 -1.41602,-1.1836 z m 3.15625,4.26563 c -0.43243,0 -0.78515,0.38401 -0.78515,0.85547 0,0.47145 0.58629,0.85742 1.30273,0.85742 0.71645,0 1.06904,-0.38597 0.78516,-0.85742 -0.28403,-0.47146 -0.87033,-0.85547 -1.30274,-0.85547 z m 21.9336,0.0117 c -1.21754,0.0113 -1.24024,0.12764 -0.16016,0.84375 1.63627,1.08486 2.74336,1.08486 2.08984,0 -0.28403,-0.47145 -1.15261,-0.85056 -1.92968,-0.84375 z m 48.14257,8.55859 c 0.2298,0 -0.26394,0.77193 -1.0957,1.71484 -0.83176,0.94292 -1.69989,1.71485 -1.92969,1.71485 -0.22979,0 0.26395,-0.77193 1.09571,-1.71485 0.83176,-0.94291 1.69989,-1.71484 1.92968,-1.71484 z m -4.37695,5.3457 -0.33008,2.89844 c -0.32863,2.88781 -0.98242,4.0049 -0.98242,1.67773 0,-0.67231 -0.64076,-1.34955 -1.42187,-1.5039 -1.16909,-0.23098 -1.05297,-0.52681 0.65625,-1.67578 z m -0.0508,18.52539 c 0.0457,0.027 0.0959,0.13944 0.14844,0.34571 0.21014,0.82505 0.21014,2.17493 0,3 -0.21014,0.82503 -0.38086,0.15011 -0.38086,-1.5 0,-1.23758 0.0954,-1.92657 0.23242,-1.84571 z m 100.79101,66.22657 c 0.0518,-0.0271 0.27571,0.30997 0.70508,0.99609 0.52207,0.83418 1.67786,3.69423 2.57032,6.35547 0.89246,2.66128 1.47678,4.99096 1.29687,5.17578 -0.28135,0.28864 -1.12409,-1.95854 -4.24609,-11.33203 -0.25831,-0.77554 -0.37765,-1.16825 -0.32618,-1.19531 z m 5.19922,13.91992 c 0.076,0.0118 0.16557,0.14395 0.26563,0.40039 0.24113,0.61875 0.21071,1.3576 -0.0664,1.64258 -0.27745,0.28486 -0.47529,-0.22139 -0.4375,-1.125 0.0251,-0.62412 0.11164,-0.93765 0.23828,-0.91797 z m 1.75586,8.67187 c 0.0504,0.0193 0.10614,0.0988 0.16407,0.2461 0.23168,0.58934 0.23168,1.55522 0,2.14453 -0.23169,0.5893 -0.42188,0.10642 -0.42188,-1.07227 0,-0.88412 0.10671,-1.37616 0.25781,-1.31836 z m 0.87305,5.47266 c 0.0457,0.027 0.0959,0.13943 0.14844,0.3457 0.21014,0.82504 0.21014,2.17493 0,3 -0.21014,0.82504 -0.38086,0.15007 -0.38086,-1.5 0,-1.2376 0.0954,-1.92658 0.23242,-1.8457 z m 0.88281,11.16211 c 0.0431,-0.0254 0.0926,0.36426 0.14453,1.2168 0.16691,2.7281 0.16729,6.96979 -0.004,9.42773 -0.16819,2.45794 -0.30444,0.22702 -0.30274,-4.95898 0.001,-3.56541 0.0673,-5.62977 0.16211,-5.68555 z m -277.54297,13.04297 c 0.15982,0.0398 0.44411,1.7764 0.81446,5.5 1.20114,12.07695 1.77149,24.78692 1.61328,36.00195 -0.0931,6.60045 -0.47904,13.09263 -0.85742,14.42578 -0.40894,1.44053 -0.67849,-5.34249 -0.66602,-16.71679 0.0119,-10.52659 -0.29348,-23.76825 -0.67773,-29.42579 -0.42646,-6.27857 -0.46014,-9.84335 -0.22657,-9.78515 z m 51.78516,3.40429 c -0.58513,0.0118 -0.61435,1.87997 0.42383,5.59375 0.40415,1.44575 0.9491,6.65061 1.20898,11.56641 0.45594,8.62443 0.43134,8.78606 -0.65625,4.65039 -1.10502,-4.20185 -1.12906,-4.22616 -1.30273,-1.28516 -0.0974,1.65015 -0.35022,2.32504 -0.56055,1.5 -0.6895,-2.70655 -1.70349,-1.57304 -2.30273,2.57227 -0.8479,5.86575 -1.18046,7.69963 -2.51758,13.92969 -0.65773,3.06448 -1.98576,10.00792 -2.95313,15.42969 -2.6156,14.65946 -6.18534,31.7504 -7.33984,35.14453 -0.24054,0.70718 -0.54404,1.86508 -0.67383,2.57226 -0.12963,0.70719 -1.55522,6.49274 -3.16797,12.85742 -1.61274,6.36469 -4.46204,18.51567 -6.33203,27.00196 -3.59996,16.33697 -5.73962,24.33468 -6.86914,25.67187 -0.37842,0.44788 -0.6875,1.37625 -0.6875,2.0625 0,0.68625 -0.88411,2.4415 -1.96484,3.90039 -1.08077,1.45883 -2.63737,4.00224 -3.45703,5.65235 -0.8197,1.6501 -2.00184,3.30835 -2.62891,3.68554 -0.62703,0.37701 -1.14063,1.19538 -1.14062,1.81836 0,0.62302 -1.31271,2.05034 -2.91797,3.17188 -1.60527,1.12157 -2.92263,2.32825 -2.92579,2.68164 -0.003,0.35376 -0.39214,0.64453 -0.86523,0.64453 -0.70715,0 -4.0003,2.38354 -10.41992,7.54297 -0.87537,0.70352 -8.38539,5.69159 -12.32422,8.18555 -1.26373,0.80005 -2.29688,1.18428 -2.29687,0.85546 -10e-6,-0.32878 -0.8469,0.1631 -1.88086,1.0918 -1.034,0.92871 -3.00807,2.23305 -4.38672,2.89844 -1.37862,0.66538 -3.13064,1.73753 -3.89453,2.38281 -0.7639,0.64536 -1.89385,1.24882 -2.51172,1.3418 -0.61785,0.0931 -2.05048,0.83617 -3.1836,1.65039 -1.13309,0.81422 -2.5604,1.48047 -3.17187,1.48047 -0.61144,0 -2.45319,0.93381 -4.0918,2.07617 -1.63864,1.14236 -3.49813,1.87287 -4.13281,1.62305 -0.63471,-0.24991 -1.1543,-0.0732 -1.1543,0.39257 0,0.74382 -6.99078,4.50677 -15.875,8.54493 -1.60839,0.73107 -3.48842,1.66056 -4.17773,2.0664 -0.68934,0.40581 -2.19295,1.16324 -3.3418,1.68164 -1.14885,0.5184 -2.65444,1.275 -3.34375,1.68164 -1.58717,0.93634 -8.2599,4.12193 -8.7832,4.19336 -0.21626,0.0295 -1.61772,0.80894 -3.11524,1.73243 -7.67057,4.73019 -9.35299,5.31877 -17.42187,6.09765 -12.54952,1.21145 -21.64649,4.65247 -21.64649,8.1875 0,1.67222 1.95704,1.41459 4.4336,-0.58398 5.22429,-4.21599 12.28201,-5.53824 36.43945,-6.83008 17.8533,-0.95467 42.19152,0.0443 52.375,2.15039 7.01338,1.45051 21.07896,6.27718 37.49609,12.86523 5.50545,2.20929 12.64913,4.72563 15.875,5.59375 3.22588,0.86812 7.07304,1.6005 8.54883,1.62696 2.92145,0.0514 2.76194,0.37921 5.24024,-10.80664 0.53924,-2.43383 2.68145,-7.44944 4.75976,-11.14454 8.31962,-14.79175 9.5944,-17.57715 13.10742,-28.64648 2.00781,-6.32647 5.39855,-15.47442 7.53516,-20.32812 6.58283,-14.95427 8.17181,-21.83647 8.14648,-35.32032 -0.0219,-12.17605 -0.19871,-13.23952 -6.29882,-38.14453 -3.82518,-15.61712 -8.06379,-43.50905 -8.63086,-56.78906 -0.34488,-8.07621 -0.71267,-10.50195 -1.58985,-10.50195 -0.71111,0 -1.10258,-0.88764 -1.04101,-2.35743 0.11602,-2.76661 1.32835,-8.01613 1.47265,-6.37695 0.0544,0.61727 0.44632,0.89996 0.8711,0.63086 0.42477,-0.26933 0.92261,0.19093 1.10547,1.02148 0.37377,1.69913 3.52324,-8.25911 4.80468,-15.1914 1.3766,-7.44707 1.0169,-15.7029 -0.95117,-21.85352 -1.1874,-3.71079 -2.32893,-5.55479 -2.91406,-5.54297 z m 173.82031,0.13868 c -0.36688,0.19716 -1.27384,1.74578 -2.17968,3.76367 -1.59493,3.55185 -1.88244,5.63599 -1.8711,13.62304 0.0104,8.22157 0.37827,10.69186 2.8711,19.28711 2.53871,8.75445 2.8501,10.91331 2.7832,19.28711 -0.11025,13.79486 -5.09457,47.04822 -10.0332,66.93946 l -4.0254,16.20898 v 15.64453 c 0,8.60527 -0.12427,15.2597 -0.27734,14.78711 -0.15318,-0.47259 -0.61554,-0.85937 -1.02539,-0.85937 -0.41688,0 -0.44302,0.8504 -0.0645,1.92968 1.02274,2.90495 1.21014,10.67523 0.23242,9.64258 -0.44636,-0.47149 -0.98114,-1.82131 -1.1875,-3 -0.31998,-1.82857 -0.39115,-1.74221 -0.48828,0.5918 -0.0625,1.5044 0.2631,2.97422 0.72265,3.26562 0.45944,0.29141 0.83399,1.65166 0.83399,3.02344 0,1.97121 0.29175,2.38031 1.38672,1.94922 1.17592,-0.46292 1.31116,-0.10118 0.89258,2.38477 -0.27138,1.61144 -0.29948,2.44676 -0.0625,1.85742 0.71626,-1.7819 2.11502,-1.20028 1.54492,0.64258 -0.30441,0.98347 -0.15001,1.71484 0.36132,1.71484 0.49051,0 0.89063,-0.72402 0.89063,-1.60938 0,-2.08509 -2.41781,-8.03858 -3.64453,-8.97265 -0.58212,-0.44334 -0.36227,-0.52754 0.5664,-0.21875 1.15363,0.38339 1.41495,0.14661 1.0918,-0.99024 -0.23365,-0.82212 -0.63601,-3.42395 -0.89453,-5.78125 -0.46193,-4.21228 -0.44177,-4.18508 1.22266,1.57813 0.93146,3.22526 2.27749,7.02151 2.99023,8.43555 0.71263,1.41399 1.11324,3.05706 0.89063,3.65234 -0.22266,0.59531 0.26112,1.6663 1.07421,2.38086 1.96241,1.7238 6.89203,15.8206 6.3418,18.13477 -0.23811,1.00055 -0.19928,1.27759 0.0899,0.61523 0.30444,-0.70122 1.45335,1.62678 2.75,5.57227 1.22475,3.72654 4.75504,11.2809 7.84375,16.7871 6.77382,12.07571 7.62952,14.11095 8.96093,21.27735 0.56935,3.06444 1.4036,6.05323 1.85352,6.64258 2.08154,2.72651 12.03984,0.19788 32.75195,-8.31641 23.84841,-9.80357 31.06101,-11.52838 54.10547,-12.9375 11.15078,-0.68115 19.78489,-0.67411 31.98438,0.0293 22.50618,1.2977 26.99262,2.02279 33.23632,5.36132 2.85846,1.52856 5.47953,2.91007 5.82422,3.07032 0.3447,0.16051 0.62696,-0.29146 0.62696,-1.00586 0,-3.51141 -9.23051,-7.13402 -21.14649,-8.29883 -4.77441,-0.4667 -9.19539,-1.37349 -10.29297,-2.11133 -2.68373,-1.804 -23.14205,-12.4143 -28.9375,-15.00781 -2.63384,-1.17865 -4.78935,-2.43177 -4.79101,-2.78516 -0.002,-0.35376 -0.40291,-0.64258 -0.89258,-0.64257 -0.89031,-10e-6 -11.7852,-5.21514 -14.15039,-6.77344 -0.68931,-0.45411 -3.6966,-2.02617 -6.6836,-3.49414 -2.98703,-1.46797 -5.99623,-2.99263 -6.68554,-3.38672 -0.68931,-0.39406 -2.94379,-1.54098 -5.01172,-2.54883 -2.06793,-1.00789 -6.39254,-3.55596 -9.60938,-5.66406 -3.21675,-2.10811 -7.21695,-4.59563 -8.88867,-5.52539 -3.90202,-2.17036 -14.71153,-10.16975 -17.45898,-12.91992 -4.76293,-4.76807 -10.75628,-13.59742 -12.78321,-18.83399 -1.18616,-3.06448 -3.67512,-12.5157 -5.53125,-21.00195 -3.71225,-16.97273 -6.26353,-27.70599 -9.98632,-42.00391 -1.35028,-5.18604 -3.25437,-13.28542 -4.23047,-18 -0.97614,-4.71462 -2.50128,-11.85006 -3.38867,-15.85742 -0.8874,-4.00743 -2.5767,-12.68669 -3.75391,-19.28711 -2.78067,-15.59134 -4.7122,-23.59243 -5.56641,-23.05078 -0.37731,0.23909 -0.68554,0.0266 -0.68554,-0.47266 0,-0.49927 -0.35398,-0.9082 -0.78711,-0.9082 -0.4331,0 -0.93168,1.64081 -1.10743,3.64453 l -0.32031,3.64258 -0.14258,-4.28711 c -0.0784,-2.35729 0.43108,-7.90732 1.13086,-12.33398 0.69975,-4.42693 1.08212,-8.24192 0.85157,-8.47852 -0.0288,-0.0296 -0.0687,-0.0299 -0.1211,-0.002 z m 51.07617,6.86914 c 0.0433,0.0346 0.0908,0.18011 0.14063,0.44531 0.19918,1.06076 0.19918,2.79662 0,3.85742 -0.19918,1.06076 -0.36133,0.19191 -0.36133,-1.92969 0,-1.59105 0.0909,-2.47699 0.2207,-2.37304 z m -0.79687,18.48047 c 0.0401,-0.0514 0.0863,0.49822 0.13476,1.7207 0.15515,3.91192 0.15602,10.08343 -0.002,13.71484 -0.15609,3.63141 -0.28208,0.43201 -0.28125,-7.11133 5.2e-4,-5.18606 0.0602,-8.21125 0.14844,-8.32421 z m -49.39453,0.57617 c 0.0504,0.0193 0.10614,0.10072 0.16406,0.24804 0.23169,0.58935 0.23169,1.55324 0,2.14258 -0.23168,0.58931 -0.42187,0.10634 -0.42187,-1.07226 0,-0.88416 0.1067,-1.37616 0.25781,-1.31836 z m -173.875,2.47265 c 0.076,0.0118 0.16556,0.14396 0.26562,0.40039 0.24129,0.61879 0.21462,1.35798 -0.0645,1.64258 -0.27744,0.28487 -0.47574,-0.22135 -0.43945,-1.125 0.025,-0.62412 0.11164,-0.93763 0.23828,-0.91797 z m -2.45313,2.09961 c 0.0648,-0.0359 0.14125,0.0935 0.22071,0.40625 h 0.002 c 0.21109,0.83399 0.19576,1.98997 -0.0332,2.57032 -0.22885,0.58034 -0.40064,-0.10125 -0.38477,-1.51563 0.0106,-0.88389 0.0872,-1.40111 0.19531,-1.46094 z m 177.07813,2.18555 c 0.076,0.0118 0.16751,0.14395 0.26758,0.40039 0.24113,0.61875 0.21071,1.3576 -0.0664,1.64258 -0.27783,0.28479 -0.47725,-0.22139 -0.43945,-1.125 0.0251,-0.62412 0.11164,-0.93765 0.23828,-0.91797 z m -177.88281,3.5293 c 0.0504,0.0193 0.10611,0.0988 0.16406,0.24609 0.2318,0.5893 0.2318,1.55324 0,2.14258 -0.23196,0.5893 -0.42188,0.10829 -0.42188,-1.07031 0,-0.88413 0.10669,-1.37617 0.25782,-1.31836 z m 178.71875,0.75781 c 0.076,0.0118 0.16751,0.14201 0.26757,0.39844 0.24114,0.61882 0.21139,1.35993 -0.0664,1.64453 -0.27746,0.28486 -0.47725,-0.22139 -0.43946,-1.125 0.0251,-0.62412 0.11165,-0.93764 0.23829,-0.91797 z m -23.46485,1.63086 c -1.15482,0.0179 -2.13526,0.32162 -2.64453,0.95117 -0.92632,1.14508 -0.74216,1.40484 1.29297,1.83008 6.12412,1.27963 6.53678,1.58849 6.81836,5.11328 0.19393,2.42597 0.48125,3.02065 1.03125,2.12891 0.6573,-1.06583 0.77238,-1.05873 0.83398,0.0488 0.0482,0.86616 0.30532,0.72526 0.78907,-0.42968 0.6842,-1.63355 0.7214,-1.62191 0.77734,0.22265 0.0521,1.71806 0.24554,1.81537 1.72852,0.86524 2.18188,-1.39816 2.10859,-2.55383 -0.42774,-6.67578 -2.12326,-3.45075 -4.14542,-4.67088 -3.16406,-1.91016 0.49927,1.40357 0.42466,1.40115 -1.17578,-0.0391 -1.52521,-1.3714 -3.93468,-2.13539 -5.85938,-2.10547 z m -131.19531,0.21289 c -1.93221,-0.0171 -4.28806,0.73735 -5.39258,2.13672 -1.3531,1.71401 -1.89259,1.6452 -1.60742,-0.20703 0.0544,-0.35377 -0.24234,-0.64258 -0.6582,-0.64258 -1.46563,0 -5.12581,7.61214 -4.92969,10.25195 0.10642,1.43305 0.61696,2.60547 1.13476,2.60547 1.04506,0 2.84466,-3.55717 2.94727,-5.82617 0.0378,-0.83671 0.43647,-0.41264 0.93555,0.99414 0.65315,1.84105 1.05245,2.16366 1.59375,1.28711 0.39689,-0.64267 0.72795,-1.91064 0.73437,-2.81641 0.0208,-2.67462 2.50222,-4.78125 5.63281,-4.78125 2.27672,0 2.79607,-0.30427 2.5586,-1.5 -0.20019,-1.00762 -1.44639,-1.48868 -2.94922,-1.50195 z m 153.82422,1.58398 c 0.076,0.0118 0.16751,0.14396 0.26758,0.40039 0.24113,0.61875 0.21071,1.35761 -0.0664,1.64258 -0.27783,0.28479 -0.47725,-0.22139 -0.43945,-1.125 0.0251,-0.62412 0.11164,-0.93764 0.23828,-0.91797 z m 1.96484,0.93164 c 0.0682,0.0308 0.10137,0.19092 0.0957,0.48633 -0.0135,0.70719 -0.32524,2.25104 -0.69336,3.42969 -0.53783,1.72271 -0.67447,1.80594 -0.69336,0.42773 -0.0135,-0.94291 0.29839,-2.48481 0.69336,-3.42773 0.27493,-0.65648 0.48395,-0.96739 0.59765,-0.91602 z m 47.38672,8.02735 c 0.0648,-0.0359 0.14119,0.0915 0.2207,0.40429 h -0.002 c 0.21279,0.834 0.19974,1.99192 -0.0293,2.57227 -0.2287,0.58035 -0.39988,-0.1032 -0.38476,-1.51758 0.0107,-0.88389 0.0873,-1.39915 0.19531,-1.45898 z m -53.44336,4.85547 c -0.15116,-0.0577 -0.25781,0.4344 -0.25781,1.31836 0,1.17883 0.19019,1.65965 0.42187,1.07031 0.23169,-0.58931 0.23169,-1.55324 0,-2.14258 -0.058,-0.14733 -0.11367,-0.22684 -0.16406,-0.24609 z m -222.84765,1.38281 c 0.11602,0.0424 0.17052,0.72448 0.12304,2.15039 -0.0458,1.37511 -0.40252,3.46393 -0.79297,4.64258 -0.47875,1.44521 -0.55194,0.74781 -0.22656,-2.14258 0.33926,-3.01365 0.70261,-4.72111 0.89649,-4.65039 z m 277.1582,0.33203 c 0.0504,0.0193 0.10419,0.0988 0.16211,0.24609 0.23168,0.58931 0.23168,1.55523 0,2.14454 -0.23173,0.58934 -0.41992,0.10638 -0.41992,-1.07227 0,-0.88413 0.10669,-1.37616 0.25781,-1.31836 z m -229.85742,1.61524 c 0.076,0.0118 0.16751,0.14396 0.26757,0.40039 0.24129,0.61882 0.21117,1.35798 -0.0664,1.64257 -0.27778,0.28487 -0.47574,-0.22135 -0.43945,-1.125 0.025,-0.62411 0.11164,-0.93763 0.23828,-0.91796 z m 182.3789,1.08007 c 0.0455,0.007 0.0836,0.1169 0.11328,0.33789 0.97236,7.23368 5.81185,29.88934 9.03125,42.28321 2.07636,7.99362 3.60877,14.97959 3.4043,15.52539 -0.0213,0.0568 -0.0676,0.12026 -0.11523,0.18359 0.0877,0.17782 0.12597,0.36964 0.24023,0.54102 0.0808,0.6136 0.033,0.26789 0.0156,0.14062 0.0583,0.0939 0.11155,0.19532 0.11328,0.26172 0.001,0.004 0.004,0.0114 0.006,0.0156 0.0392,0.0494 0.0629,0.13615 0.26562,0.51367 0.0113,0.0227 -0.0157,-0.0485 -0.0195,-0.0723 0.0832,0.43201 0.0839,0.0225 0.10937,0.63672 0.0668,0.12455 0.13325,0.258 0.13672,0.31641 0.004,0.008 0.006,0.0104 0.01,0.0156 0.001,0.006 0.003,0.013 0.004,0.0195 0.008,0.009 0.0161,0.0172 0.0234,0.0312 0.008,0.0151 0.0139,0.0334 0.0215,0.0508 0.003,0.004 -0.008,-0.0213 -0.004,-0.0176 0.0113,0.0151 0.0198,0.0294 0.0274,0.0449 0.009,0.0168 0.0167,0.034 0.0254,0.0508 0.001,0.003 0.001,0.008 0.004,0.008 0.003,-7.5e-4 -0.004,-0.0116 -0.002,-0.008 0.003,0.004 0.0197,0.037 0.0234,0.0332 0.0302,0.034 0.0452,0.0768 0.0644,0.11719 0.002,0.004 -0.008,-0.0118 -0.004,-0.0156 0.003,-0.003 0.008,0.008 0.008,0.0117 0.0113,0.0227 0.0219,0.0469 0.0332,0.0703 0.002,0.0164 0.005,0.0334 0.008,0.0508 0.003,0.002 0.002,0.008 0.004,0.0117 0.004,0.008 0.0118,0.016 0.0156,0.0273 0.002,0.004 0.004,0.008 0.006,0.0117 0.0308,0.0461 0.0509,0.0742 0.0762,0.11719 0.0488,0.0473 0.15125,0.1089 0.0996,0.13281 -0.0286,0.0133 -0.0561,0.004 -0.084,-0.0137 0.001,0.003 0.003,0.002 0.004,0.006 0.002,0.0117 0.003,0.0231 0.002,0.0351 3.8e-4,-0.002 0.002,0.004 0.002,0.008 1.3e-4,6.3e-4 -1.2e-4,0.001 0,0.002 0.16141,0.0388 0.32101,0.0836 0.47266,0.14844 0.10129,0.0431 0.0657,0.21108 0.0801,0.32031 0.0371,0.27994 0.0215,0.47353 -0.002,0.70117 0.36341,1.17077 1.80953,7.29847 3.48828,14.83203 7.42572,33.32315 10.6587,39.40547 27.48047,51.69336 11.45938,8.37078 41.64252,24.75833 66.30469,36 6.62638,3.02049 15.03806,7.03759 18.69336,8.92774 l 6.64648,3.4375 -22.52148,0.46679 c -30.40127,0.63103 -37.80145,2.1032 -63.46289,12.61524 -7.81221,3.20024 -16.78133,6.63146 -19.93164,7.62695 -3.15031,0.99545 -6.98626,1.81055 -8.52539,1.81055 -2.58788,0 -2.83618,-0.24232 -3.29883,-3.21485 -0.99621,-6.40101 -3.77086,-13.90816 -7.57227,-20.49414 -6.21849,-10.77362 -9.14967,-17.28632 -11.91406,-26.47265 -1.42462,-4.73424 -4.48729,-13.14398 -6.80664,-18.68946 -5.6276,-13.45538 -7.47689,-20.6466 -8.08203,-31.41992 -0.47951,-8.53784 0.12374,-15.34429 2.26953,-25.60937 0.4703,-2.24979 0.76841,-3.30048 1.45508,-3.9043 0.017,-0.11038 0.0487,-0.21841 0.10742,-0.33203 0.008,-0.0151 -0.0193,0.0694 -0.0117,0.0527 0.0737,-0.18008 0.0607,-0.14304 0.0606,-0.15039 -3.3e-4,-0.003 -0.002,-0.006 -0.002,-0.01 -0.0189,-0.27175 0.0177,-0.52907 0.17382,-0.75977 -0.0586,0.18935 0.012,-0.0453 0.0195,-0.0332 0.0151,0.0518 -0.0233,0.21615 -0.0195,0.16211 0.0188,-0.15135 0.0371,-0.29503 0.0937,-0.4336 -0.002,-0.12433 0.0127,-0.24283 0.041,-0.35742 0.005,-0.0318 0.0218,-0.12082 0.0527,-0.16016 0.0131,-0.035 0.0171,-0.0699 0.0332,-0.10546 -0.0346,-0.22425 0.0432,-0.44638 0.10547,-0.65821 0.0189,-0.0654 0.002,-0.0326 -0.0117,-0.0137 0.034,-0.12321 0.0679,-0.2475 0.10156,-0.37109 0.0189,-0.11717 -0.003,6.9e-4 0.125,-0.26758 0.001,-0.002 2.5e-4,-0.005 0.002,-0.01 l -0.004,0.002 c -0.0173,0.0376 -0.0407,0.0935 -0.0352,0.0684 0.008,-0.0357 0.0151,-0.0376 0.0215,-0.0645 l -0.30078,0.0996 1.9336,-7.78906 c 1.89902,-7.65169 7.02933,-41.37141 8.26758,-54.33398 0.28139,-2.94936 0.6075,-4.82694 0.80468,-4.79493 z m 48.3125,1.58985 c 0.0504,0.0193 0.10644,0.10072 0.16406,0.24804 0.23169,0.58935 0.23169,1.55324 0,2.14258 -0.2318,0.58934 -0.42187,0.10638 -0.42187,-1.07226 0,-0.88413 0.1067,-1.37617 0.25781,-1.31836 z m -230.55078,0.66211 -0.002,0.002 -0.002,0.002 -0.002,0.002 -0.002,0.002 -0.002,0.002 v 0.002 l -0.002,0.002 -0.002,0.002 v 0.002 c 0.23048,0.16615 0.4043,1.72773 0.4043,3.79688 0,5.77202 5.35542,40.50374 7.94921,51.55859 0.89037,3.79432 1.51432,6.56228 1.8086,7.95313 0.0434,0.0539 0.0696,0.0809 0.0234,-0.002 0.0249,0.0507 0.0541,0.0994 0.0742,0.15235 0.004,0.0113 -0.0307,-0.029 -0.0254,-0.0215 0.2352,0.41356 -0.0239,-0.29376 0.29102,0.75782 0.003,0.0113 0.004,0.0217 -0.004,0.0293 -0.006,0.004 -0.006,-0.0139 -0.008,-0.0215 0.0498,0.33638 0.0446,0.23752 0.17774,0.5957 0.0774,0.27931 0.056,0.17232 0.0957,0.57813 2.8e-4,0.003 -3.5e-4,0.003 -0.002,0.008 0.0356,0.0707 0.0735,0.1405 0.10546,0.21289 0.011,0.0265 0.003,0.0552 0.004,0.082 0.008,0.15386 0.002,0.30712 -0.0195,0.45899 0.0976,0.19329 0.1785,0.39299 0.19531,0.61523 0.006,0.21476 0.0249,0.44118 -0.0156,0.6543 0.0817,0.22897 0.12687,0.37624 0.0977,0.62304 -0.003,0.0393 -0.006,0.0779 -0.01,0.11719 -10e-4,0.0151 -0.003,0.0274 -0.008,0.041 -0.002,0.004 -0.0121,0.002 -0.0117,0.006 0.002,0.0298 0.0213,0.0665 0.0351,0.10156 l 0.79102,0.19531 1.4082,6.14844 c 0.7736,3.38132 1.60787,10.62595 1.85547,16.09961 0.58952,13.02837 -0.81724,19.59726 -7.85352,36.64062 -2.98865,7.23927 -6.36984,16.4965 -7.51367,20.57227 -2.11327,7.53029 -5.666,15.49256 -10.83593,24.28711 -4.20527,7.15317 -7.49912,15.03042 -8.62305,20.62695 -0.95875,4.77426 -1.07178,4.92546 -3.64453,4.86914 -3.859,-0.0847 -13.42297,-3.24802 -27.90039,-9.22851 -14.99134,-6.19272 -26.82765,-9.92767 -35.88282,-11.32618 -3.60387,-0.55631 -15.90947,-1.25692 -27.3457,-1.55664 l -20.79297,-0.54492 10.76758,-5.30859 c 5.92172,-2.91912 17.43658,-8.578 25.58984,-12.57617 32.61471,-15.99349 52.67742,-28.31982 62.97461,-38.69141 9.11403,-9.17987 11.93911,-16.09011 17.8711,-43.7168 1.51844,-7.07183 3.0185,-13.16129 3.33398,-13.5332 0.0153,-0.018 0.0471,-0.0294 0.0801,-0.041 0.001,-0.0146 -2.3e-4,-0.0117 0.002,-0.0293 0.0234,-0.14967 0.006,-0.30153 0.004,-0.45313 0.0464,-0.35264 0.11517,-0.4854 0.27148,-0.77929 -0.029,0.0662 -0.0718,0.16574 -0.0488,0.12695 0.0673,-0.11431 0.1239,-0.23494 0.1836,-0.35352 -0.0742,0.0497 -0.008,-0.0326 0.0527,-0.0996 -0.0174,0.0333 -0.0358,0.0661 -0.0527,0.0996 0.002,-10e-4 0.0119,-0.0104 0.0137,-0.0117 0.0572,-0.14383 0.19842,-0.31121 0.11523,-0.2129 -0.0416,0.10276 -0.0658,0.16262 -0.0664,0.17188 10e-4,-8.1e-4 0.005,-0.003 0.006,-0.004 0.006,-0.0104 0.0583,-0.12039 0.0781,-0.16015 -0.002,-0.009 -0.002,-0.0217 -0.004,-0.0332 -0.0419,-0.22221 0.0189,-0.43393 0.10351,-0.63867 5.7e-4,-0.002 5.6e-4,-0.004 0.002,-0.006 0.0224,-0.0538 0.0365,-0.11001 0.0625,-0.16211 0.01,-0.0182 -0.0161,0.027 -0.0312,0.0566 -0.008,0.0308 -0.0186,0.0611 -0.0274,0.0918 0.006,-0.0267 0.0101,-0.0538 0.0195,-0.0781 0.002,-0.005 0.004,-0.006 0.008,-0.0137 0.0366,-0.13514 0.0719,-0.272 0.11718,-0.40429 -0.0117,0.0171 -0.024,0.0343 -0.0332,0.0527 -0.0491,0.0983 -0.0145,0.16645 -0.0391,0.10938 -0.0416,-0.32064 0.0626,-0.51601 0.19726,-0.72657 -0.12066,-0.003 -0.0305,-0.002 0.0391,-0.35351 0.009,-0.0468 0.0303,-0.0901 0.0469,-0.13477 0.006,-0.0168 0.004,-0.0228 0.006,-0.0332 0.002,-6.1e-4 0.006,-0.004 0.006,-0.002 -0.004,0.0118 -0.007,0.0236 -0.0117,0.0351 -0.009,0.0258 -0.0221,0.0604 -0.01,0.0508 0.0216,-0.0145 0.0413,-0.0318 0.0625,-0.0469 0.002,-0.0102 0.007,-0.0168 0.01,-0.0273 v -0.002 c 7.9e-4,-0.003 5e-4,-0.008 0.002,-0.0117 9.1e-4,-0.008 0.002,-0.012 0.004,-0.0195 3.8e-4,-0.002 5.5e-4,-0.003 0.002,-0.004 4e-5,-0.002 -6.5e-4,-0.004 0,-0.008 5.3e-4,-0.003 0.003,-0.005 0.004,-0.008 -2.5e-4,0.004 -4.4e-4,-0.002 0,-0.004 -3.7e-4,-0.003 3e-5,-0.005 0,-0.008 -10e-6,-0.001 -8e-5,-0.007 0,-0.008 -0.003,-0.0101 -0.006,-0.0222 -0.004,-0.0332 0.005,-0.0219 0.006,-0.0293 0.008,-0.0371 -10e-5,-0.005 -2.7e-4,-0.0101 0,-0.0156 3.8e-4,-0.0113 -0.003,-0.0257 0.002,-0.0371 l 0.002,0.006 c 1.4e-4,0.002 1.4e-4,-0.007 0,-0.008 -0.0323,-0.15264 -0.13007,-0.34414 0.0625,-0.36914 8.2e-4,-6.6e-4 -10e-4,-0.0117 0,-0.0117 h 0.002 c 0.009,-0.11741 0.0453,-0.23231 0.0938,-0.3418 5.9e-4,-0.004 -2e-4,-0.008 0.002,-0.0137 10e-4,-0.003 0.002,-0.008 0.004,-0.008 7e-5,-0.003 -9.7e-4,-0.007 0,-0.0117 7.8e-4,-0.003 0.003,-0.008 0.004,-0.0117 -3.4e-4,-0.003 -4.5e-4,-0.008 0,-0.0117 0.002,-0.0151 0.01,-0.0159 0.0117,-0.0273 -10e-4,0.0113 -8.3e-4,-0.003 0.006,-0.0156 7.3e-4,-10e-4 0.01,3e-4 0.0117,-0.002 v -0.002 h 0.002 v -0.002 c -0.0134,-0.003 -0.0192,-0.0372 -0.0273,-0.15039 -0.0106,-0.14664 -0.01,-0.14733 -0.0117,-0.28906 9.9e-4,-0.0786 0.008,-0.15771 0.0117,-0.23633 0.0201,-0.42451 0.16079,-0.70913 0.34375,-0.88476 0.48032,-2.57324 1.79068,-7.62056 4.49609,-18.15625 2.13582,-8.31754 4.77765,-19.81626 5.86914,-25.55274 1.0915,-5.73649 2.21139,-10.66311 2.49024,-10.94922 0.0349,-0.0358 0.0706,-0.0413 0.10351,-0.0176 z m 177.08594,2.57812 c -0.69852,0.11957 -2.9043,4.59095 -2.9043,6.03906 0,0.65386 -1.50366,2.81057 -3.3418,4.79297 -1.83791,1.98244 -3.34375,3.97417 -3.34374,4.42578 -10e-6,0.45147 -0.56265,0.82032 -1.25196,0.82032 -0.68931,0 -1.26405,0.48296 -1.27539,1.07226 -0.0294,1.39075 -5.14785,7.03114 -7.17969,7.91211 -1.42325,0.61705 -1.37456,0.73683 0.51758,1.26563 1.91142,0.53423 1.81006,0.63973 -1.19531,1.23632 -2.06846,0.41061 -2.89694,0.89686 -2.23828,1.31446 3.05272,1.93564 14.16361,-3.25143 16.3789,-7.64649 2.03112,-4.02962 1.49711,-4.02573 -2.70898,0.0254 -3.80564,3.66516 -3.84541,3.68104 -0.93555,0.39258 1.66878,-1.88583 4.15141,-5.54956 5.51563,-8.14258 2.42392,-4.60713 4.86605,-12.66634 4.08203,-13.4707 -0.0321,-0.0329 -0.0726,-0.0451 -0.11914,-0.0371 z m -226.52344,1.80469 c 0.076,0.0118 0.16752,0.14397 0.26758,0.40039 0.24128,0.61882 0.21086,1.35798 -0.0664,1.64258 -0.27778,0.28482 -0.47573,-0.22136 -0.43945,-1.125 0.0251,-0.62412 0.11164,-0.93764 0.23828,-0.91797 z m 280.74024,0 c 0.076,0.0118 0.16556,0.14397 0.26562,0.40039 0.24113,0.61882 0.21071,1.35798 -0.0664,1.64258 -0.27749,0.28482 -0.47724,-0.22136 -0.43945,-1.125 0.0251,-0.62412 0.1136,-0.93764 0.24024,-0.91797 z m -224.7793,0.99219 c -0.1785,0.0925 -0.12247,0.90135 0.14648,2.55664 0.69187,4.25816 4.78727,12.872 7.76758,16.33593 1.23497,1.43539 0.64835,0.97581 -1.30469,-1.02148 -4.10279,-4.19562 -4.83475,-2.71889 -0.91992,1.85547 2.96222,3.46125 5.87547,5.21822 10.50195,6.33594 1.73825,0.41994 3.34822,0.79782 3.57813,0.83789 0.22977,0.0401 0.98061,-0.30279 1.66992,-0.75977 1.07803,-0.71486 1.05504,-0.83241 -0.16992,-0.84375 -1.32661,-0.0122 -5.67773,-3.75421 -5.67773,-4.88281 0,-0.2781 -0.84687,-1.40836 -1.88086,-2.51172 -3.44346,-3.67449 -4.80469,-5.4687 -4.80469,-6.33398 0,-0.47146 -0.37444,-0.85547 -0.83399,-0.85547 -0.45952,0 -0.83593,-0.77193 -0.83593,-1.71485 0,-0.94291 -0.52393,-1.71484 -1.16407,-1.71484 -0.64017,0 -1.37988,-0.57797 -1.64453,-1.28516 -0.26451,-0.70718 -1.05798,-1.28711 -1.76172,-1.28711 -0.70374,0 -1.28459,-0.67496 -1.29101,-1.5 -0.007,-0.82503 -0.41155,-2.07797 -0.89844,-2.78515 -0.16334,-0.23724 -0.29119,-0.3802 -0.38476,-0.42188 -0.0351,-0.0156 -0.0663,-0.0142 -0.0918,-0.004 z m -56.71094,2.53515 c 0.0504,0.0193 0.10611,0.10072 0.16406,0.24805 0.2318,0.58934 0.2318,1.55327 0,2.14258 -0.23165,0.58934 -0.42187,0.10638 -0.42187,-1.07227 0,-0.88412 0.10668,-1.37616 0.25781,-1.31836 z m 283.16016,5.04492 c 0.076,0.0118 0.16556,0.14396 0.26562,0.4004 h 0.002 c 0.24113,0.61848 0.21071,1.35797 -0.0664,1.64257 -0.27749,0.28487 -0.47725,-0.22139 -0.43945,-1.125 0.0251,-0.62411 0.11164,-0.93764 0.23828,-0.91797 z m -284.91602,2.57032 c 0.076,0.0118 0.16556,0.14395 0.26563,0.40039 0.24128,0.61878 0.21431,1.35798 -0.0645,1.64258 -0.27744,0.28486 -0.47573,-0.22139 -0.43945,-1.125 0.025,-0.62412 0.11164,-0.93765 0.23828,-0.91797 z m -1.67187,7.71484 c 0.076,0.0118 0.16781,0.14396 0.26757,0.40039 0.24129,0.61875 0.21117,1.3576 -0.0664,1.64258 -0.27781,0.28482 -0.47574,-0.22139 -0.43945,-1.125 0.0251,-0.62414 0.11164,-0.93766 0.23828,-0.91797 z m 289.92968,4.28711 c 0.076,0.0118 0.16752,0.14397 0.26758,0.40039 0.24114,0.61878 0.21101,1.35798 -0.0664,1.64258 -0.27746,0.28486 -0.47725,-0.22139 -0.43946,-1.125 0.0251,-0.62412 0.11164,-0.93764 0.23828,-0.91797 z m 15.03321,4.06641 c 0.0101,0.008 0.0193,0.0172 0.0293,0.0254 0.004,-0.003 0.008,-0.006 0.0117,-0.01 -0.0145,-0.005 -0.0266,-0.0108 -0.041,-0.0156 z m -3.22266,1.53711 c -0.0113,0.0379 -0.0239,0.0754 -0.0352,0.11328 0.0262,-0.0336 0.0429,-0.0511 0.0645,-0.0781 -0.0101,-0.0114 -0.0197,-0.0234 -0.0293,-0.0352 z m -5.24805,1.875 c 0,0.006 10e-6,0.0117 0,0.0176 l 0.002,0.002 c -7.1e-4,-0.007 1.6e-4,-0.013 -0.002,-0.0195 z m -1.68164,0.16796 c 0.0645,0.0804 0.13358,0.15226 0.22852,0.18165 0.0393,0.0121 0.11458,-0.002 0.17773,-0.002 5e-4,-0.0593 -1.8e-4,-0.11853 0,-0.17773 -0.1343,-0.003 -0.27242,0.007 -0.40625,-0.002 z m -303.01953,0.81641 c -0.004,0.0169 -0.008,0.0337 -0.0117,0.0508 5.9e-4,0.0104 -4.2e-4,0.0254 0.002,0.0195 0.006,-0.0227 0.0124,-0.0937 0.01,-0.0703 z m 4.86719,0.10938 c 0.076,0.0118 0.16752,0.142 0.26758,0.39843 0.24128,0.61875 0.21086,1.35994 -0.0664,1.64453 -0.27778,0.28483 -0.47573,-0.22139 -0.43945,-1.125 0.025,-0.62411 0.11164,-0.93764 0.23828,-0.91796 z m -3.875,0.62304 c -0.007,0.019 -0.0146,0.0492 -0.0215,0.084 0.002,-0.004 0.006,-0.006 0.008,-0.01 0.004,-0.0261 0.01,-0.0529 0.0137,-0.0742 z m 1.28906,0.85352 c -0.004,0.001 -0.003,0.007 -0.006,0.0117 -4.8e-4,0.002 4.9e-4,0.004 0,0.006 0.001,-0.005 0.0102,-0.0198 0.006,-0.0176 z m -0.86328,3.08203 c -0.0125,0.0231 -0.0233,0.0461 -0.0332,0.0703 -0.005,0.0113 0.0169,-0.018 0.0215,-0.0293 0.005,-0.0142 0.008,-0.0274 0.0117,-0.041 z m 228.24414,7.46484 c -0.0475,-0.0161 -0.0929,-0.002 -0.13867,0.0449 -0.28006,0.28683 -0.56068,3.12332 -0.62305,6.30273 -0.0785,3.98279 -0.58604,6.52032 -1.63086,8.15625 -0.83402,1.30598 -1.30174,2.5938 -1.03906,2.86328 0.26268,0.26948 0.0737,1.51173 -0.41992,2.75977 -0.49372,1.24803 -0.84922,3.13646 -0.79102,4.19726 0.0582,1.06076 -0.22473,1.92969 -0.62695,1.92969 -1.0204,0 -1.64123,5.03818 -0.66211,5.37305 0.43941,0.15023 0.18624,1.48919 -0.56445,2.97851 -1.5696,3.11384 -1.71089,3.96992 -0.5293,3.2207 0.49841,-0.31559 0.83594,0.72099 0.83594,2.57032 0,1.84928 -0.33772,2.88823 -0.83594,2.57226 -1.47568,-0.93569 -0.28706,19.30094 1.28711,21.91407 0.73535,1.22313 1.22569,0.95547 0.7207,-0.39454 -0.24608,-0.65801 -0.5617,-3.06884 -0.70117,-5.35742 -0.13939,-2.28861 -0.52476,-5.512 -0.85547,-7.16211 l -0.60156,-3 1.32813,2.45508 c 0.73062,1.35035 1.33007,3.16028 1.33007,4.02149 0,0.8612 0.32445,1.77291 0.72266,2.02539 0.67442,0.42765 -0.1354,-5.65653 -1.22266,-9.18555 -0.26116,-0.84767 0.0263,-2.1761 0.63868,-2.95117 0.85791,-1.08594 0.86667,-1.25739 0.0391,-0.7461 -0.83388,0.51444 -1.02189,-0.36233 -0.83594,-3.90625 0.13198,-2.5138 0.49237,-4.76743 0.80078,-5.00781 0.8922,-0.69623 1.86943,-5.45258 1.00781,-4.90625 -0.87265,0.55332 -0.42269,-6.42289 0.45704,-7.08594 0.47886,-0.36094 2.04357,-5.99356 3.98632,-14.34961 0.49794,-2.14164 -0.36372,-9.09056 -1.07617,-9.33203 z m -1.62305,5.21875 c -0.15082,-0.0578 -0.25781,0.43438 -0.25781,1.31836 0,1.17884 0.19019,1.66161 0.42188,1.07227 0.23168,-0.58931 0.23168,-1.55328 0,-2.14258 -0.0579,-0.14734 -0.11369,-0.22879 -0.16407,-0.24805 z m -151.36718,1.63672 c -0.0472,-0.004 -0.0946,0.009 -0.14453,0.041 -0.40948,0.26056 -0.40412,2.05251 0.0176,4.12304 0.40924,2.01389 0.98529,5.19221 1.2793,7.0625 0.44511,2.83106 0.6548,3.1186 1.25,1.71485 0.47051,-1.10971 0.56648,-0.36879 0.2832,2.16992 -0.39701,3.55733 -0.33453,3.72785 0.82032,2.19336 1.42753,-1.89679 1.66057,-5.2629 0.41797,-6.05078 -0.45953,-0.2914 -0.83594,-1.42447 -0.83594,-2.51758 0,-1.09308 -0.5646,-2.46581 -1.25391,-3.05273 -0.68931,-0.58693 -1.25195,-2.2015 -1.25195,-3.58594 0,-1.21142 -0.25173,-2.07127 -0.58203,-2.09766 z m 179.95508,1.88477 c 0,0 0,0.002 0,0.002 0.0859,0.0583 0.11231,0.0798 0.14843,0.10352 -0.004,-0.005 -0.005,-0.0127 -0.01,-0.0176 -0.0367,-0.0402 -0.13781,-0.0916 -0.13867,-0.0879 z m 0.63867,1.73437 c 0.0108,0.0214 0.006,0.0128 0.01,0.0195 3e-4,-0.003 0.002,-1.7e-4 0.002,-0.004 0.002,-0.034 0.004,8.7e-4 -0.004,-0.008 -0.003,-0.002 -0.0116,-0.0116 -0.008,-0.008 z m -209.44727,0.89649 c -5.5e-4,0.004 -8e-4,0.008 -0.002,0.0117 8.5e-4,-0.002 0.003,-0.004 0.004,-0.006 -7.6e-4,-0.002 -8.4e-4,-0.004 -0.002,-0.006 z m 24.63672,5.625 c 0.0432,0.0849 0.0838,0.17098 0.12695,0.25586 -0.007,-0.0374 -0.01,-0.0764 -0.0273,-0.10938 -0.0303,-0.058 -0.0656,-0.10145 -0.0996,-0.14648 z m 160.64063,0.67773 c -0.002,0.003 -0.004,0.006 -0.006,0.01 -0.0107,0.0204 -0.008,0.033 -0.0117,0.0508 0.007,-0.0123 0.0105,-0.0202 0.0176,-0.0332 -2.3e-4,-0.009 0,-0.0182 0,-0.0273 z m -160.50586,0.16602 c 0.0173,0.0299 0.0283,0.0617 0.0449,0.0918 -6.6e-4,-0.003 6.9e-4,-0.003 0,-0.006 -0.007,-0.0302 -0.0613,-0.11467 -0.0449,-0.0859 z m 8.61328,10.30664 c -0.23073,-0.006 -0.33029,1.27924 -0.36524,4.15234 -0.0629,5.16484 -0.018,5.30709 0.69922,2.15625 0.42739,-1.8774 0.45707,-4.32738 0.0684,-5.52734 -0.16549,-0.50926 -0.29747,-0.77843 -0.40234,-0.78125 z m 2.25781,20.21875 c -0.10832,0.0598 -0.18539,0.57725 -0.19531,1.46093 -0.017,1.41438 0.1558,2.09598 0.38476,1.51563 0.22976,-0.58035 0.24463,-1.73632 0.0312,-2.57031 -0.0794,-0.31276 -0.15571,-0.44213 -0.2207,-0.40625 z m -0.62109,8.98242 c -0.18679,0.0251 -0.52469,0.33408 -1.01563,1 -0.67469,0.91514 -1.21314,2.26503 -1.19726,3 h -0.002 c 0.019,0.85648 0.45923,0.56695 1.22461,-0.80664 1.07531,-1.92829 1.40116,-3.2486 0.99024,-3.19336 z m 193.68945,7.05078 1.87891,1.63281 c 1.03396,0.89813 1.88086,1.76717 1.88085,1.92969 10e-6,0.68598 -0.67218,0.1797 -2.16796,-1.63281 z m 4.5957,4.71484 c 0.0431,-0.0442 0.38036,0.21493 1.04297,0.74805 0.80421,0.64706 1.46289,1.32199 1.46289,1.5 0,0.70549 -0.68578,0.25017 -1.77734,-1.17773 -0.51957,-0.67973 -0.77166,-1.02609 -0.72852,-1.07032 z m 195.74219,8.94922 c -0.18894,0.0182 -0.37407,0.0629 -0.55664,0.13477 -1.82162,0.71716 -4.05146,5.15706 -3.53125,7.03125 0.25943,0.93483 -0.54802,2.20701 -2.25391,3.55078 l -2.66015,2.0957 1.88086,-2.15039 c 1.03396,-1.18246 1.8789,-2.42534 1.8789,-2.76172 0,-0.80133 -9.06107,6.42053 -14.88672,11.86524 -4.1642,3.89189 -9.34375,10.87532 -9.34375,12.59765 0,1.40024 1.4436,0.63089 2.32227,-1.23828 0.59599,-1.26788 0.94797,-1.48978 1.02734,-0.64453 0.0662,0.70719 0.23926,1.91309 0.38477,2.67969 0.17193,0.90516 -0.94909,2.04476 -3.19727,3.24805 -1.90401,1.01915 -4.02553,2.25241 -4.71484,2.74023 -0.95346,0.6748 -3.82074,-0.46199 -11.98633,-4.74805 -9.50649,-4.99011 -15.58594,-6.93589 -15.58594,-4.99023 0,0.35361 5.45186,3.53633 12.11524,7.07227 6.66334,3.53563 12.11523,6.65945 12.11523,6.9414 0,0.28199 -1.43888,1.17868 -3.19726,1.99219 -2.50122,1.1571 -3.81867,1.29425 -6.05664,0.63476 -1.57338,-0.46363 -2.20261,-0.87759 -1.39844,-0.91992 0.80421,-0.0425 1.46094,-0.42241 1.46094,-0.84375 0,-0.44572 -1.43723,-0.43526 -3.4375,0.0274 -3.76434,0.8677 -5.8715,0.43373 -9.07813,-1.8711 -2.61872,-1.88224 -10.10568,-2.84326 -9.49805,-1.21875 0.2239,0.5986 1.79097,1.33184 3.48243,1.62891 4.34736,0.76309 9.34179,3.12014 9.34179,4.4082 0,0.85727 0.49813,0.83509 2.33203,-0.10351 1.70034,-0.87016 3.00269,-0.97037 4.80469,-0.36719 2.44452,0.81812 2.44665,0.82542 0.17969,0.52344 -2.72455,-0.36284 -4.97882,1.71698 -3.13086,2.88867 1.86217,1.1808 9.27275,-0.0817 13.64453,-2.32422 2.22425,-1.14093 5.60796,-3.50792 7.51953,-5.25977 5.29871,-4.85605 6.07923,-5.35286 7.53125,-4.78125 1.05986,0.41726 1.15633,0.89011 0.45508,2.23438 -1.62697,3.11883 -6.94171,8.60077 -11.17187,11.52344 -3.97354,2.74533 -4.08052,3.92882 -0.17774,1.97265 1.58816,-0.79597 1.55406,-0.67853 -0.26367,0.91016 l -2.08789,1.82617 2.08789,-0.58789 c 4.83636,-1.36071 11.49803,-6.54843 15.38867,-11.98437 4.152,-5.80135 4.37331,-5.97125 6.24414,-4.75586 0.93872,0.60986 0.6569,1.5237 -1.46289,4.74609 -2.93242,4.45769 -3.45911,6.28604 -0.9043,3.13867 0.91529,-1.12755 1.89131,-1.8187 2.16797,-1.53516 1.08359,1.11168 5.16293,-2.13596 11.15235,-8.8789 7.33651,-8.25967 11.02342,-11.95533 11.93164,-11.96289 0.35909,-0.002 0.8828,0.60675 1.16211,1.35351 0.41268,1.10329 0.65544,1.14401 1.29883,0.21485 0.56432,-0.81574 0.67333,-0.58978 0.3789,0.78711 -0.22662,1.06144 -0.071,1.71378 0.3457,1.44922 1.51408,-0.96 0.70127,-3.99715 -1.74023,-6.50196 -1.65003,-1.69277 -2.94862,-4.3458 -3.82422,-7.8125 -2.16889,-8.58706 -5.65422,-14.24804 -8.48828,-13.97461 z m -1.94727,3.56641 c 0.26931,0.0848 0.36028,1.12998 0.19922,2.54492 -0.18398,1.617 -0.48063,2.93945 -0.66015,2.93945 -0.62888,0 -0.32022,-5.04613 0.33398,-5.46093 0.0455,-0.0288 0.0885,-0.0356 0.12695,-0.0234 z m 2.50977,0.50781 c 1.19718,0.0716 2.57461,2.90182 4.67969,9.38672 2.27954,7.02217 3.36499,8.71736 2.52929,3.94922 -0.43986,-2.50957 -0.40267,-2.57927 0.38086,-0.69922 0.47936,1.14792 0.70252,2.53375 0.49805,3.08008 -0.20436,0.54633 -1.90886,2.24372 -3.78906,3.77148 l -3.41797,2.77735 v -5.14649 c 0,-2.8303 -0.59695,-7.53486 -1.32617,-10.45508 -1.0015,-4.00977 -1.08961,-5.54725 -0.36133,-6.2832 0.26363,-0.2664 0.53037,-0.39738 0.80664,-0.38086 z m -245.29297,0.78125 c -0.18973,-0.0689 -0.12131,0.256 0.16211,1.01953 0.31374,0.84518 0.78168,1.32083 1.03906,1.05664 0.25724,-0.26388 7e-4,-0.95566 -0.57031,-1.53711 -0.30947,-0.31509 -0.51702,-0.4977 -0.63086,-0.53906 z m -406.263671,0.0547 c 0.447165,0.0812 0.881807,0.81762 1.427735,2.04687 0.535268,1.20522 1.34258,1.95679 1.794922,1.66993 0.456415,-0.28929 0.616118,0.0286 0.359375,0.71484 -0.716943,1.91675 4.062465,6.86003 11.597656,11.99414 3.766258,2.56615 8.353253,6.33083 10.191403,8.36523 1.83802,2.03468 2.68631,3.19085 1.88477,2.56836 -0.87436,-0.6788 -2.3784,-0.91973 -3.75977,-0.5996 -1.26638,0.29329 -3.534878,0.68753 -5.041012,0.875 -1.506169,0.18735 -3.675132,0.96975 -4.81836,1.73828 -2.068656,1.39052 -2.118467,1.35676 -10.533203,-7.15039 l -8.455078,-8.54688 1.402344,-4.55273 c 1.922874,-6.2405 2.892884,-8.90896 3.755859,-9.11719 0.06472,-0.0156 0.129479,-0.0146 0.193359,-0.006 z m 404.646481,2.00586 c -0.48971,-0.0339 -0.29233,0.61705 0.79102,1.72851 0.74404,0.76332 1.41003,2.22679 1.47851,3.25391 0.0908,1.35473 0.22309,1.20054 0.48047,-0.5625 0.24359,-1.66783 -0.12458,-2.78809 -1.16992,-3.57227 -0.74613,-0.55942 -1.28625,-0.82734 -1.58008,-0.84765 z m 4.90625,1.60937 c -0.0753,0.0699 -0.1187,0.53661 -0.1582,1.42578 -0.0533,1.20223 0.34683,2.64332 0.89063,3.20118 1.27321,1.30628 2.03059,0.57227 0.89257,-0.86524 -0.47561,-0.60072 -1.04975,-1.86372 -1.27539,-2.80664 -0.16709,-0.69764 -0.27434,-1.02498 -0.34961,-0.95508 z m -407.705074,0.82032 c -0.07668,0.016 -0.157822,0.05 -0.242188,0.10351 -0.367109,0.23278 -0.942957,1.68647 -1.279297,3.22852 -1.559629,7.1506 -1.824617,9.15106 -1.158203,8.72851 0.395573,-0.25081 0.71875,0.0314 0.71875,0.625 0,2.219 1.393216,-0.66581 2.421875,-5.01367 0.962178,-4.06679 0.689252,-7.91229 -0.460937,-7.67187 z m 645.451174,0.71093 1.39062,3.56641 c 1.06723,2.73623 1.25697,4.86182 0.8125,9.14062 -0.66512,6.40305 -1.29821,7.93973 -4.84961,11.78907 -2.90173,3.14524 -3.08037,3.20408 -4.57226,1.46875 -1.2361,-1.43781 -4.45686,-1.66105 -5.69141,-0.39453 -1.16889,1.1992 -8.9865,-3.92491 -8.1914,-5.36914 2.05307,-3.73021 5.50231,-7.32711 12.80273,-13.35157 z m -642.816409,0.28125 2.714844,2.51758 c 1.493537,1.38471 2.714844,2.63776 2.714844,2.78516 0,0.66225 -0.689064,0.0793 -2.976563,-2.51758 z m 535.574219,1.9961 2.08984,1.76953 c 2.49763,2.11438 3.3418,2.24485 3.3418,0.51953 0,-0.70719 -0.28226,-1.28932 -0.62695,-1.29688 -0.34466,-0.006 -1.56595,-0.23247 -2.71485,-0.50195 z m 101.51758,0.14648 c 0.0431,0.0442 -0.20889,0.39248 -0.72852,1.07227 -1.09153,1.42779 -1.77734,1.8813 -1.77734,1.17578 0,-0.17802 0.65673,-0.85295 1.46094,-1.5 0.66266,-0.53316 1.00178,-0.79227 1.04492,-0.74805 z m -232.58789,1.17578 c -0.514,0.0874 -0.27957,1.23789 0.73242,3.42578 0.77023,1.6647 1.17636,3.39865 0.90234,3.85352 -0.27405,0.4549 -0.0265,1.02285 0.55078,1.26172 0.57729,0.23879 1.07927,0.46416 1.11329,0.50195 0.0351,0.0372 -0.10016,-1.08953 -0.30274,-2.5039 -0.2541,-1.77642 -0.0194,-2.57227 0.76172,-2.57227 0.63969,0 0.11308,-0.96714 -1.21289,-2.22852 -1.29327,-1.23028 -2.14514,-1.80627 -2.54492,-1.73828 z m -299.22656,1.22071 -2.88282,0.52929 c -1.58555,0.29088 -3.0969,0.88365 -3.35742,1.31641 -0.26068,0.43276 -2.34707,1.43255 -4.63672,2.22266 -4.24982,1.46653 -6.25195,2.68351 -6.25195,3.80078 0,0.67018 6.56533,-0.92884 10.02539,-2.44141 1.14885,-0.50222 3.21705,-1.92842 4.5957,-3.16992 z m 438.23632,0.17578 c -3.17491,0 4.75341,6.01316 10.02539,7.60351 2.06793,0.62381 4.32437,1.45955 5.01368,1.85742 0.68931,0.39825 1.7697,0.74321 2.40039,0.77344 1.99022,0.0875 -0.55497,-2.32243 -4.37305,-4.14258 -6.99492,-3.33463 -9.59096,-4.3789 -10.89649,-4.3789 -0.73444,0 -1.33593,-0.38401 -1.33593,-0.85547 0,-0.47146 -0.37443,-0.85742 -0.83399,-0.85742 z m 103.15821,0.39453 c 0.0504,0.0193 0.10614,0.10072 0.16406,0.24805 0.23168,0.58934 0.23168,1.55319 0,2.14257 -0.23172,0.58931 -0.42188,0.10635 -0.42188,-1.07226 0,-0.88416 0.1067,-1.37616 0.25782,-1.31836 z M 79.5625,639.22656 c 0.05037,0.0193 0.106143,0.10072 0.164062,0.24805 0.231799,0.58938 0.231799,1.55327 0,2.14258 -0.231927,0.58934 -0.421874,0.10642 -0.421874,-1.07227 0,-0.88412 0.10669,-1.37616 0.257812,-1.31836 z m 634.14453,0.89063 -4.51953,5.14258 c -2.4858,2.82878 -4.68645,5.33642 -4.89062,5.57226 -0.20421,0.23573 0.0253,-0.34254 0.51171,-1.28515 0.48643,-0.94288 2.68705,-3.45075 4.89063,-5.57227 z m 16.77344,2.01172 c 0.0457,0.027 0.0958,0.13942 0.14844,0.3457 0.21014,0.82503 0.21014,2.17493 0,3 -0.21015,0.82503 -0.38282,0.15007 -0.38282,-1.5 0,-1.23761 0.0973,-1.92659 0.23438,-1.8457 z m 10.43359,1.8457 c 0.0431,-0.0442 0.3823,0.21492 1.04492,0.74805 0.80417,0.64705 1.46289,1.32198 1.4629,1.5 0,0.70552 -0.68777,0.25013 -1.7793,-1.17774 -0.51959,-0.67973 -0.77166,-1.02608 -0.72852,-1.07031 z m -638.76367,2.14258 1.88086,1.63281 c 1.034,0.89813 1.87891,1.76521 1.87891,1.92773 0,0.68599 -0.6722,0.17966 -2.16797,-1.63281 z m 631.1543,3.85742 c 0.22975,0 -0.85711,1.3499 -2.41602,3 -1.5589,1.6501 -3.02216,3 -3.25195,3 -0.2298,0 0.85707,-1.3499 2.41601,-3 1.55891,-1.6501 3.02216,-3 3.25196,-3 z m -662.951174,0.25977 c 0.03931,-0.006 0.113958,0.0458 0.228515,0.16796 0.442235,0.47146 1.647658,2.30432 2.677735,4.07227 2.007163,3.44477 1.90308,4.49605 -0.126954,1.28516 -1.599349,-2.52979 -3.054445,-5.48159 -2.779296,-5.52539 z m 36.392574,1.45507 c 0.0431,-0.0442 0.38232,0.21493 1.04493,0.74805 0.80419,0.64706 1.46093,1.32198 1.46093,1.5 0,0.70549 -0.68584,0.25013 -1.77734,-1.17773 -0.51963,-0.67973 -0.77164,-1.02609 -0.72852,-1.07032 z m 534.13086,1.82617 c -0.41594,-0.0114 -0.85281,0.006 -1.30859,0.0508 l -2.67774,0.26562 3.54493,2.14258 c 2.01354,1.21735 3.54764,2.79045 3.55078,3.64258 0.004,0.82507 0.53042,1.5 1.16992,1.5 0.6395,0 1.4024,0.98127 1.69531,2.17969 0.4684,1.91418 0.68144,2.02617 1.75782,0.92187 1.19735,-1.22869 0.66104,-5.02555 -0.68946,-4.87891 -1.87525,0.20372 -2.25586,-0.14201 -2.25586,-2.04882 0,-2.26589 -1.87548,-3.69582 -4.78711,-3.7754 z m -468.625,0.1543 c -0.87793,0.0252 -1.99095,0.56737 -4.01367,1.7832 -2.13431,1.28323 -3.68537,2.65725 -3.44726,3.05274 0.23826,0.39553 -0.12843,0.93875 -0.81446,1.20898 -1.26262,0.49713 -1.32341,2.65671 -0.13086,4.61719 h -0.002 c 1.06292,1.74739 1.84457,1.24989 3.07031,-1.95508 0.71281,-1.86372 1.88398,-3.21238 3.04688,-3.51172 1.0387,-0.26743 2.32471,-1.02852 2.85937,-1.68945 0.53467,-0.66092 1.67821,-1.20117 2.54102,-1.20117 0.8628,0 1.57031,-0.40889 1.57031,-0.9082 0,-0.49932 -0.36189,-0.67813 -0.80273,-0.39844 -0.44085,0.27953 -1.52371,0.0459 -2.40625,-0.51953 -0.50185,-0.32154 -0.94395,-0.49361 -1.47071,-0.47852 z m 565.5918,3.1836 c -0.29681,-6.9e-4 -1.33659,0.95958 -2.71289,2.55078 -3.40853,3.94038 -4.53377,6.2919 -1.99805,4.17578 1.21943,-1.01764 1.34379,-0.99224 0.91602,0.18164 -0.27201,0.74649 -0.0599,1.3929 0.4707,1.4375 1.67853,0.14113 12.56416,2.92955 14.95899,3.83203 1.26376,0.47626 2.29882,1.22787 2.29882,1.66992 0,0.44221 0.37444,0.56679 0.83399,0.27539 3.05941,-1.93984 -1.62215,-6.94409 -7.20508,-7.70117 -8.98881,-1.21893 -8.8152,-1.13069 -7.18555,-3.6875 1.03291,-1.62081 1.10449,-2.04744 0.25391,-1.50977 -0.9216,0.58296 -1.05393,0.38406 -0.5957,-0.89062 0.0811,-0.22559 0.0638,-0.33375 -0.0352,-0.33398 z m -640.357422,0.084 c 0.290269,0.0122 0.53898,0.0919 0.677734,0.23438 0.277645,0.28471 -0.214895,0.48701 -1.095703,0.44921 -0.97333,-0.0411 -1.172401,-0.24394 -0.505859,-0.51757 0.30158,-0.12378 0.633559,-0.17826 0.923828,-0.16602 z m 397.255862,1.69727 c -0.18972,-0.0689 -0.12129,0.25599 0.16211,1.01953 0.31374,0.84517 0.78167,1.32278 1.03906,1.05859 0.25727,-0.26389 -10e-4,-0.95563 -0.57227,-1.53711 -0.30947,-0.3151 -0.51507,-0.49966 -0.6289,-0.54101 z m 242.49023,0.28515 c 0.0378,0.0149 0.0195,0.10039 -0.0625,0.26563 -0.29079,0.58756 -0.68174,1.89385 -0.87109,2.90234 -0.45551,2.42646 -0.92177,2.81354 -1.50586,1.25195 -0.26355,-0.70446 0.28379,-2.16809 1.21484,-3.25195 0.58177,-0.67731 1.00363,-1.08937 1.16797,-1.16016 0.0246,-0.0106 0.044,-0.01 0.0566,-0.008 z m -579.51953,3.12891 c -1.913,0.0432 -1.94839,0.10852 -0.41797,0.7832 0.91908,0.4052 2.42467,0.7587 3.34375,0.78516 1.37925,0.0389 1.45238,-0.0993 0.41797,-0.78516 -0.68934,-0.45691 -2.1949,-0.80966 -3.34375,-0.7832 z m 337.87695,0.20508 c -0.0325,0.009 -0.0625,0.0285 -0.0898,0.0566 -0.21883,0.22473 -0.1504,0.81943 0.15234,1.32226 0.82394,1.36759 1.3052,1.10229 0.74024,-0.4082 -0.23808,-0.63658 -0.57546,-1.03263 -0.80274,-0.9707 z m 242.81836,1.54687 c 0.37861,0 0.75802,0.0589 1.04492,0.17774 0.57446,0.23807 0.10391,0.43359 -1.04492,0.43359 -1.14875,0 -1.61933,-0.19586 -1.04492,-0.43359 0.28721,-0.11887 0.66632,-0.17774 1.04492,-0.17774 z m -633.75,1.17383 1.87891,1.63477 c 1.03399,0.89779 1.88086,1.76521 1.88086,1.92773 0,0.68595 -0.67219,0.1797 -2.16797,-1.63281 z m -10.445309,0.42969 c 0.04313,-0.0442 0.382342,0.21494 1.044921,0.74804 0.804193,0.64706 1.462891,1.32199 1.462891,1.5 0,0.70553 -0.687796,0.25014 -1.779297,-1.17773 -0.519634,-0.67973 -0.771641,-1.02609 -0.728515,-1.07031 z m 614.951169,0 c 0.0432,0.0442 -0.20887,0.39246 -0.72851,1.07226 -1.09149,1.42776 -1.77735,1.88131 -1.77735,1.17578 0,-0.17797 0.65673,-0.85294 1.46094,-1.5 0.66267,-0.53317 1.00178,-0.79227 1.04492,-0.74804 z m -638.011716,4.47461 c -0.751556,0.0512 -1.225036,0.3586 -1.798828,0.94726 -1.50206,1.54103 -1.80919,1.3571 5.117187,3.05664 5.813121,1.4264 12.491394,4.98341 15.666016,8.34375 1.502785,1.59069 2.923506,2.89258 3.15625,2.89258 0.232894,0 -1.04495,-1.54186 -2.839844,-3.42773 -3.699591,-3.88691 -3.09572,-4.65235 0.845703,-1.07227 1.427377,1.29653 0.90719,0.69049 -1.154297,-1.34766 -4.233278,-4.18541 -9.741159,-7.30796 -15.527343,-8.80273 -1.68391,-0.43499 -2.713289,-0.641 -3.464844,-0.58984 z m 671.781246,0.66797 c -2.3684,-10e-6 -12.94562,3.97624 -14.13281,5.3125 -0.58295,0.65609 -0.45739,0.79794 0.41602,0.46874 3.70518,-1.39653 4.36294,-1.46501 2.29882,-0.23632 -1.26346,0.75227 -2.29882,1.5488 -2.29882,1.76953 0,0.65605 0.46252,0.49891 5.13867,-1.73438 2.4582,-1.17407 5.81814,-2.13962 7.46484,-2.14257 1.6467,-0.005 3.21742,-0.23954 3.49219,-0.52149 1.03586,-1.06273 -0.47573,-2.91601 -2.37891,-2.91601 z m -668.841793,0.96289 c 0.290272,0.0122 0.53895,0.0919 0.677734,0.23437 0.277614,0.28467 -0.214929,0.48701 -1.095703,0.44922 -0.973361,-0.0411 -1.172402,-0.24394 -0.505859,-0.51758 0.301564,-0.12378 0.633555,-0.17825 0.923828,-0.16601 z m 665.986323,0.86328 c 0.37861,0 0.7577,0.0589 1.04493,0.17773 0.57441,0.2377 0.1039,0.43359 -1.04493,0.4336 -1.14882,0 -1.61738,-0.19587 -1.04296,-0.4336 0.2872,-0.11886 0.66466,-0.17773 1.04296,-0.17773 z m -27.28906,0.21484 c -0.0753,-0.002 -0.17456,0.0343 -0.29297,0.10938 -0.45445,0.28803 -0.82422,0.88647 -0.82421,1.33007 0,1.233 0.59885,0.96158 1.15429,-0.52343 0.21393,-0.57209 0.18842,-0.91019 -0.0371,-0.91602 z m 1.86524,0.53125 c -0.22976,0 -0.82064,0.77189 -1.3125,1.71484 -0.49168,0.94292 -0.70636,1.71288 -0.47657,1.7129 0.22976,0 0.82064,-0.76998 1.3125,-1.7129 0.49168,-0.94295 0.70636,-1.71484 0.47657,-1.71484 z m -636.097659,0.0195 c 1.052027,-0.0331 8.124239,3.55022 8.615234,4.36524 0.251085,0.41692 0.151089,0.71666 -0.220703,0.66601 -1.007373,-0.13712 -9.134177,-5.00857 -8.394531,-5.03125 z m 12.732421,0.40821 2.453126,2.7871 c 2.287468,2.59703 2.978515,3.17983 2.978515,2.51758 0,-0.14751 -1.22326,-1.4024 -2.716797,-2.78711 z m 632.003908,4.42968 c -0.18864,-0.15118 -1.6398,1.29863 -3.22656,3.22071 -1.58699,1.92207 -2.35757,3.01121 -1.71289,2.42187 1.6433,-1.50406 2.92883,-1.33899 1.67187,0.21484 -2.08947,2.58293 -0.24639,1.1974 2.55273,-1.91992 1.86358,-2.07518 2.06917,-2.47645 0.58204,-1.13672 -2.50315,2.25502 -3.14605,1.58154 -0.91016,-0.95312 0.7632,-0.86506 1.23157,-1.69648 1.04297,-1.84766 z m -628.367189,1.6875 c -0.151795,0.0678 0.32881,0.91425 1.302735,2.24024 1.298596,1.76795 2.578528,3.21484 2.845703,3.21484 0.267129,0 0.03584,-0.46162 -0.515625,-1.02734 -2.121774,-2.17678 -0.874135,-2.44255 1.568356,-0.33399 1.41389,1.22056 3.01163,2.2047 3.55078,2.19336 0.53918,-0.0143 0.22771,-0.45244 -0.6914,-0.97265 -0.91908,-0.52026 -2.70499,-1.93103 -3.968752,-3.13477 -1.263734,-1.2037 -2.296875,-1.8758 -2.296875,-1.49414 0,0.38169 -0.643244,0.16463 -1.427734,-0.48242 -0.19613,-0.16177 -0.316589,-0.22574 -0.367188,-0.20313 z m 588.041019,0.3125 c -1.25318,0 0.40713,2.74841 3.45898,5.72656 1.93727,1.89064 3.52149,4.03255 3.52149,4.75977 0,0.7273 1.14812,3.83701 2.55078,6.91211 5.31488,11.65213 4.7501,28.24055 -1.2793,37.58789 -1.15877,1.79637 -2.10742,3.62937 -2.10742,4.07422 0,1.46665 -7.01152,7.00188 -12.17383,9.60937 -4.44918,2.24731 -22.76148,6.83134 -31.69141,7.9336 -1.37862,0.17015 -4.91919,1.13311 -7.86718,2.14062 -2.94804,1.00755 -5.64819,1.83203 -6.00196,1.83203 -0.35372,0 -1.7024,0.4502 -2.99609,1 -1.29366,0.54981 -2.53974,1.06403 -2.76953,1.14454 -1.28081,0.44719 -4.08306,1.61472 -6.39258,2.66211 -1.44809,0.65643 -2.85111,1.19335 -3.11719,1.19335 -0.2663,0 -3.65054,1.54386 -7.51953,3.42969 -3.86903,1.88587 -7.29593,3.42774 -7.61719,3.42774 -0.32118,0 -1.76874,0.56679 -3.21679,1.25976 -1.44809,0.69294 -4.70104,1.81564 -7.22852,2.49414 -2.52748,0.67854 -5.53668,1.65563 -6.68555,2.17188 -1.81194,0.8143 -1.58955,0.88602 1.67188,0.53906 2.56585,-0.27284 1.37193,0.25251 -3.75977,1.6543 v 0.002 c -6.06425,1.65721 -6.71083,1.97039 -3.34179,1.62305 12.66712,-1.30674 21.68532,-4.02079 42.15429,-12.68555 14.14534,-5.98791 20.93946,-8.15118 41.67383,-13.26953 7.50403,-1.85242 15.77495,-4.43272 18.38086,-5.73242 5.59185,-2.78892 13.02453,-10.25709 16.15625,-16.23438 6.66826,-12.72733 5.65355,-32.9555 -2.25976,-45.01953 -2.28813,-3.48831 -2.71711,-4.69254 -1.88282,-5.28906 0.69751,-0.4989 0.377,-0.56955 -0.90429,-0.19727 -1.26308,0.36688 -1.79274,0.25858 -1.45704,-0.29883 0.29016,-0.48166 0.0558,-1.09777 -0.52148,-1.36914 -0.57728,-0.27212 -0.1098,-0.25996 1.03906,0.0234 1.36558,0.33785 1.79821,0.22693 1.25196,-0.32031 -0.6759,-0.6771 -7.53902,-2.78516 -9.06836,-2.78516 z m -553.13282,0.19336 c -0.62728,-0.0537 -1.53525,0.0234 -2.72851,0.20703 -2.12862,0.3275 -4.66537,0.92474 -5.63867,1.32813 -1.5866,0.6573 -1.51077,0.74788 0.73632,0.85937 1.83226,0.0909 0.93345,0.55781 -3.34179,1.74024 -3.76455,1.04092 -4.65703,1.47494 -2.50586,1.21679 1.83816,-0.22068 4.28084,-0.65 5.42969,-0.95312 l 2.08984,-0.55078 -2.1875,2.48047 c -5.21078,5.90797 -7.79493,12.62813 -9.07031,23.58789 -1.55145,13.33236 1.56291,24.41775 9.22265,32.81836 7.93903,8.70689 12.00674,10.45378 41.07032,17.64648 10.34662,2.56059 18.47168,5.31842 31.33203,10.63281 19.60992,8.10358 29.74523,11.00909 44.01758,12.61524 l 9.87304,1.10937 -6.61719,2.28125 c -3.63831,1.25435 -8.13143,3.26356 -9.98632,4.46485 -3.40118,2.20277 -6.13567,6.63945 -6.13672,9.95703 v 0.002 c 9.9e-4,2.77223 1.95084,2.13045 3.71094,-1.22266 1.73082,-3.29692 4.78232,-4.6411 6.74414,-2.9707 0.93075,0.7923 1.24218,0.80415 1.24218,0.0449 0,-0.55714 0.41255,-0.75019 0.91797,-0.42968 0.60818,0.38566 0.58045,-0.0682 -0.082,-1.33985 -0.57004,-1.09255 -0.63231,-1.6853 -0.14258,-1.375 0.47363,0.30055 1.05883,0.22086 1.29883,-0.17773 0.2401,-0.39863 2.6155,-1.20754 5.2793,-1.79688 2.66376,-0.5893 6.91199,-2.05405 9.43945,-3.2539 4.38811,-2.08313 4.50096,-2.21728 2.51953,-2.97852 -1.35484,-0.52067 -2.76917,-0.47229 -4.07617,0.13867 -1.10094,0.51466 -2.1501,0.78443 -2.33008,0.59961 -0.17994,-0.18459 1.86412,-1.34367 4.54102,-2.57617 8.05618,-3.70904 11.98623,-3.73487 28.58789,-0.19727 11.95554,2.54778 17.63408,3.27295 31.13672,3.98047 21.3659,1.11954 25.78638,0.52641 34.55664,-4.64062 7.86529,-4.63385 11.35349,-5.42643 17.76172,-4.03125 4.45616,0.97017 5.25564,0.8874 10.94531,-1.14258 3.37631,-1.20461 6.51204,-1.95409 6.9668,-1.66602 0.45467,0.2885 0.58462,0.12351 0.28906,-0.36718 -0.2956,-0.4907 0.20957,-1.09298 1.12305,-1.33789 0.91343,-0.24511 1.84587,-0.13936 2.07226,0.23633 0.44958,0.74596 -3.14516,3.44335 -4.58984,3.44335 -1.44771,0 -17.50845,7.22701 -17.52735,7.88672 -0.009,0.32996 2.14476,0.49072 4.78711,0.35352 4.95679,-0.25731 11.07227,-2.06292 11.07227,-3.26953 0,-0.37663 0.71995,-0.68555 1.60156,-0.68555 0.90459,0 2.34074,-1.21299 3.29492,-2.78516 1.58177,-2.60632 4.63523,-5.78711 5.55664,-5.78711 1.06874,0 0.23584,1.8338 -1.05468,2.32227 -1.48982,0.56394 -2.6785,1.89234 -2.70118,3.01758 -0.007,0.3436 1.29355,-0.0423 2.89063,-0.85742 1.59708,-0.8151 2.91249,-2.00477 2.92383,-2.64453 0.0113,-0.63992 0.49004,-0.97999 1.06445,-0.75586 1.64886,0.64361 4.80469,-0.89327 4.80469,-2.33985 0,-0.72234 0.36344,-1.3125 0.80859,-1.3125 0.44523,0 0.57637,0.62297 0.29102,1.38477 -0.43816,1.17131 -0.24607,1.23669 1.23437,0.42383 0.96318,-0.52884 2.00737,-1.38698 2.32032,-1.90625 0.41344,-0.68671 0.72356,-0.68818 1.13867,0.004 0.37946,0.6299 1.51898,0.23066 3.40039,-1.19336 1.55614,-1.17785 3.34161,-2.14257 3.96875,-2.14258 0.62706,0 0.90884,-0.38596 0.625,-0.85742 -0.29284,-0.48604 0.40843,-0.85742 1.62109,-0.85742 1.17596,0 2.13867,-0.39381 2.13867,-0.87695 0,-0.48314 0.93907,-1.24526 2.08789,-1.69336 1.14887,-0.4481 2.08985,-1.15904 2.08985,-1.58008 0,-0.42108 1.40953,-0.9957 3.13281,-1.27539 1.72328,-0.27961 3.88558,-0.6866 4.80469,-0.9043 0.91907,-0.21792 2.14043,-0.42314 2.71484,-0.46093 0.57441,-0.0361 1.04492,-0.4102 1.04492,-0.83204 0,-0.44594 -1.30469,-0.45598 -3.13281,-0.0195 -4.62425,1.1017 -6.61523,0.95623 -6.61523,-0.48437 0,-0.93109 0.28438,-1.02996 1.06054,-0.36914 0.74548,0.63473 1.57851,0.6178 2.80274,-0.0547 0.95792,-0.52645 2.05482,-0.75632 2.4375,-0.51367 0.88252,0.55956 5.95312,-1.37045 5.95312,-2.26563 0,-0.36831 1.97414,-0.67408 4.38672,-0.68164 2.41259,-0.007 4.95132,-0.40421 5.64063,-0.88281 0.9332,-0.64766 0.61253,-0.75258 -1.25391,-0.41016 -1.37873,0.25285 -2.03432,0.2295 -1.45703,-0.0488 0.57725,-0.27878 0.80646,-0.90999 0.50976,-1.40235 -0.30761,-0.50937 -0.0411,-0.71385 0.6211,-0.47461 0.63836,0.23086 2.98556,-0.51736 5.21484,-1.66211 2.22928,-1.14459 3.80343,-1.66511 3.49805,-1.1582 -0.30535,0.50691 -1.75246,1.55806 -3.2168,2.33789 -1.55758,0.83029 -2.21407,1.57458 -1.57812,1.79492 0.59731,0.20682 2.6655,-0.70589 4.5957,-2.02929 1.93013,-1.32344 4.24542,-2.52964 5.14453,-2.67969 1.83916,-0.30682 3.34394,-2.21856 2.09375,-2.66016 -0.44787,-0.15813 -0.57738,-0.68236 -0.28711,-1.16406 0.33472,-0.55597 -0.19796,-0.67049 -1.45703,-0.31445 -1.80571,0.5108 -1.83961,0.4712 -0.38672,-0.45508 1.29706,-0.82692 1.78389,-0.75512 2.59766,0.38672 1.28628,1.80472 1.72968,1.77123 4.63281,-0.34961 1.32159,-0.96545 4.48503,-2.10257 7.0293,-2.52735 4.55459,-0.76051 9.95488,-3.43164 6.9375,-3.43164 -0.76445,0 -1.62241,0.38627 -1.90625,0.85742 -0.28403,0.47146 -0.95363,0.85743 -1.48828,0.85743 -0.53466,0 -0.23063,-0.50962 0.67578,-1.13086 1.98183,-1.35829 9.09903,-4.13429 10.11523,-3.94531 0.3978,0.0741 1.00492,0.0403 1.34961,-0.0742 0.99602,-0.33166 2.23191,-0.62811 3.09961,-0.74414 0.44096,-0.0589 1.66228,-1.03747 2.71484,-2.17579 1.0526,-1.13831 3.07971,-2.77721 4.50391,-3.64257 1.42424,-0.8654 3.65122,-2.3366 4.94922,-3.26954 1.68257,-1.20911 2.45897,-1.39556 2.70312,-0.64453 0.18822,0.57933 0.94673,1.05469 1.68555,1.05469 1.10763,0 1.05798,-0.22206 -0.2793,-1.25976 -1.52938,-1.18644 -1.4548,-1.26489 1.30274,-1.3711 2.65024,-0.10216 2.72899,-0.17234 0.83594,-0.74804 -1.28553,-0.39115 -2.97269,-0.18392 -4.38672,0.5371 -1.26376,0.64438 -2.29883,1.00368 -2.29883,0.79883 0,-0.6178 17.5212,-10.52115 24.23047,-13.69531 16.56593,-7.83727 42.34501,-12.63368 76.04101,-14.14844 13.20703,-0.59372 15.07372,-0.87216 19.2168,-2.86133 5.61747,-2.69707 8.14171,-4.60935 7.26758,-5.50585 -0.36291,-0.37233 -2.86424,0.56615 -5.55859,2.08593 -5.58539,3.1502 -12.50718,4.37407 -25.11133,4.43946 -19.11867,0.0995 -50.79536,5.54355 -65.10938,11.18945 -7.10071,2.8007 -14.20217,6.3508 -25.31055,12.6543 -18.81399,10.67625 -32.66161,17.10968 -62.89843,29.22265 -11.94811,4.78643 -24.98676,10.19378 -28.97461,12.01563 l -7.25196,3.3125 -8.20507,-3.625 c -4.51363,-1.99325 -19.11078,-7.59133 -32.4375,-12.44141 -28.61026,-10.41237 -42.29084,-16.34889 -69.34961,-30.09375 -20.2122,-10.26701 -26.56417,-12.68609 -42.85547,-16.31641 -16.69741,-3.72083 -26.78478,-5.07693 -41.11524,-5.52734 -19.41684,-0.61028 -20.73614,-0.82364 -26.32031,-4.27344 -2.63787,-1.62962 -5.38,-2.96289 -6.09375,-2.96289 -2.21954,0 2.19647,4.09674 6.88477,6.38672 3.77658,1.8446 5.77225,2.11998 18.8457,2.61328 19.28007,0.72756 26.84651,1.61106 43.86524,5.11914 19.70956,4.06284 27.37921,6.86384 46.70703,17.06055 9.2361,4.87268 19.70278,10.14129 23.25976,11.70703 3.55698,1.56575 6.34062,2.9776 6.18555,3.13672 -0.1549,0.15893 -4.38016,-1.52505 -9.39063,-3.74023 -5.01044,-2.21519 -10.05067,-3.98015 -11.19921,-3.92383 -1.68728,0.0828 -1.79192,-0.0194 -0.54688,-0.52539 1.35939,-0.55249 1.26038,-0.7567 -0.83594,-1.73828 -1.30728,-0.61214 -4.06879,-1.697 -6.13672,-2.41016 -2.06796,-0.7132 -5.27675,-1.99767 -7.13086,-2.85547 -1.8541,-0.85784 -4.48723,-1.84281 -5.8496,-2.1875 -1.36271,-0.34473 -3.22936,-1.10704 -4.14844,-1.69336 -0.91908,-0.58632 -2.98732,-1.31943 -4.59571,-1.63086 -2.55367,-0.49421 -2.35803,-0.28894 1.54493,1.62891 2.45824,1.2079 4.90281,2.1951 5.43164,2.19336 0.858,-0.003 11.5438,5.03295 14.74804,6.95117 3.26851,1.9567 13.31098,6.76758 14.12696,6.76758 1.41724,0 6.7757,3.12908 6.26172,3.65625 -0.25049,0.25697 0.79201,0.72914 2.31836,1.05078 3.25958,0.68712 10.06355,3.81932 10.83007,4.98633 0.29328,0.44636 1.00791,0.51116 1.58985,0.14258 0.68891,-0.43658 0.85103,-0.32598 0.46289,0.31835 -0.36354,0.60348 -0.008,1.01381 0.91406,1.05274 3.20377,0.135 5.51109,0.87551 9.05664,2.90625 2.45376,1.40519 3.86527,1.79482 4.24023,1.17187 0.36869,-0.61202 0.82316,-0.45213 1.32227,0.46289 0.4188,0.76774 1.14163,1.39649 1.60547,1.39649 0.4639,0 0.58028,-0.43928 0.25781,-0.97461 -0.32248,-0.53533 0.50072,-0.14783 1.83008,0.85937 1.32932,1.00717 3.92161,1.96444 5.75977,2.12696 1.83815,0.16263 4.09264,0.58821 5.01171,0.94726 4.014,1.56771 7.0664,3.14488 7.50977,3.88086 0.26327,0.4371 2.74831,1.05885 5.52148,1.38086 2.77316,0.32187 5.55537,1.11109 6.18164,1.75391 0.62661,0.64282 1.94092,1.16797 2.91993,1.16797 1.13287,0 1.56294,0.36045 1.18359,0.99023 -0.37716,0.62627 -0.22911,0.75708 0.4043,0.35547 0.55067,-0.34915 1.54958,-0.16941 2.21875,0.40039 0.96801,0.82443 1.21679,0.78804 1.21679,-0.18164 0,-0.67019 -1.34547,-1.71898 -2.98828,-2.32812 -1.64281,-0.60945 -2.8279,-1.26875 -2.63476,-1.4668 0.36714,-0.37667 14.90135,5.44029 15.64062,6.25976 0.62253,0.68999 -3.36531,-0.5836 -6.17773,-1.97265 -2.9932,-1.4784 -3.05806,-1.48109 -2.50391,0.002 0.44444,1.18817 3.97829,2.20365 9.39258,2.69922 1.53524,0.14052 2.93035,0.40042 3.10156,0.57617 0.35758,0.36684 -18.90771,8.96519 -27.61718,12.32617 -4.97304,1.91906 -7.28701,2.27434 -15.45704,2.3711 l -9.60937,0.11328 -7.10156,4.28711 -7.10157,4.28515 -13.69922,0.29102 c -16.05888,0.34016 -26.11431,-0.67163 -42.5996,-4.28516 -14.23777,-3.12109 -24.12287,-3.1818 -29.8086,-0.18554 -1.81169,0.95467 -5.0121,1.81773 -7.11133,1.91796 -3.81191,0.18229 -24.78007,-3.62053 -25.75,-4.66992 -0.28187,-0.30463 0.80372,-0.27816 2.41211,0.0586 2.76754,0.57932 2.83533,0.53949 1.25391,-0.73047 -0.91911,-0.73811 -2.12915,-1.35402 -2.6875,-1.36914 -1.97859,-0.0531 -9.09497,-2.75263 -15.27734,-5.79492 -3.44655,-1.69603 -7.11253,-3.40609 -8.14649,-3.80079 -2.89199,-1.10388 -5.29769,-2.11011 -9.40039,-3.92968 -4.97239,-2.20532 -20.65629,-6.64421 -27.99023,-7.92188 -29.53657,-5.14575 -39.40531,-12.68171 -43.43946,-33.16992 -1.4377,-7.30174 -1.29204,-13.27338 0.4043,-16.58398 l 1.08398,-2.11719 -1.79101,1.63281 c -1.31332,1.1963 -1.81352,2.68663 -1.86719,5.57227 -0.0403,2.16635 -0.36477,5.86731 -0.72266,8.22461 l -0.65234,4.2871 -0.11133,-5.66796 c -0.1361,-6.90796 0.70423,-13.73442 1.61914,-13.1543 0.3703,0.23478 1.06135,-0.25487 1.53516,-1.08984 0.47381,-0.83483 0.8767,-1.13357 0.89258,-0.66211 0.0403,1.12614 6.69279,-12.57371 6.69922,-13.79688 0.003,-0.51704 1.3213,-2.33025 2.92968,-4.0293 3.02284,-3.19322 3.66312,-4.53426 1.78125,-4.69531 z m 556.77149,2.37891 c 0.0431,-0.0442 0.38038,0.2149 1.04297,0.74805 0.8028,0.64562 1.46059,1.32056 1.46289,1.5 -0.002,0.70176 -0.68705,0.24847 -1.77735,-1.17774 -0.51957,-0.67973 -0.77165,-1.02608 -0.72851,-1.07031 z m -494.43359,0.0352 c -1.25597,0 -2.71811,0.27342 -3.54297,0.82032 -0.91785,0.60858 -0.3037,0.83436 2.29687,0.8457 1.95305,0.007 3.55078,-0.37424 3.55078,-0.8457 0,-0.5469 -1.04902,-0.82032 -2.30468,-0.82032 z m 521.43164,0.35938 c -0.64007,10e-4 -1.33854,0.28196 -2.12305,0.8457 -1.01855,0.73213 -1.37018,1.33008 -0.78125,1.33008 0.59051,0 0.84136,0.38164 0.56055,0.84766 -0.29832,0.49549 0.0567,0.62305 0.85546,0.30859 0.95691,-0.3767 1.0737,-0.72315 0.39063,-1.15625 -0.68799,-0.43627 -0.58555,-0.7713 0.34766,-1.13867 0.72789,-0.28664 1.32421,-0.12512 1.32421,0.35937 0,0.48454 0.42481,0.61203 0.94336,0.28321 0.64419,-0.40846 0.50896,-0.8453 -0.42382,-1.38086 -0.34694,-0.19919 -0.70972,-0.29959 -1.09375,-0.29883 z m -527.84961,0.46094 c -0.20265,0 -0.60089,0.38596 -0.88477,0.85742 -0.28402,0.47146 -0.11948,0.85742 0.36719,0.85742 0.48667,0 0.88476,-0.38596 0.88476,-0.85742 0,-0.47146 -0.16445,-0.85742 -0.36718,-0.85742 z m 469.31054,0.13867 c -1.18367,0.0252 -2.54233,0.23696 -4.2832,0.63867 -2.5852,0.59652 -5.16969,1.11575 -5.74414,1.1543 -0.57441,0.0385 -1.04492,0.43166 -1.04492,0.875 0,0.44334 -0.54506,0.592 -1.21094,0.33008 -0.80927,-0.31858 -1.05639,-0.0646 -0.74609,0.76562 0.3431,0.91748 -0.20138,1.24219 -2.08204,1.24219 -1.40035,0 -2.77865,0.386 -3.0625,0.85742 -0.78572,1.30481 3.24903,1.02798 5.94727,-0.4082 1.30791,-0.69612 4.55578,-1.51934 7.2168,-1.82813 2.66101,-0.3089 5.03873,-0.89728 5.28515,-1.30664 0.24666,-0.40936 1.64889,-0.78365 3.11524,-0.83203 l 2.66601,-0.0859 -2.81836,-0.92383 c -1.04422,-0.34236 -2.0546,-0.50374 -3.23828,-0.47851 z m -498.84179,0.75781 c -0.60752,0 -0.92638,0.27267 -0.59766,0.81836 0.28402,0.47142 1.34082,0.85131 2.34766,0.84375 1.48829,-0.0107 1.59507,-0.16823 0.57617,-0.84375 -0.82306,-0.54569 -1.71866,-0.81836 -2.32617,-0.81836 z m 5.67382,1.05664 c -0.33548,0.006 -0.56097,0.0471 -0.64257,0.13086 -0.80673,0.82764 0.0932,1.20441 3.79297,1.58399 1.957,0.2008 3.80377,0.61453 4.10156,0.91992 0.8154,0.83656 3.77016,0.66821 3.25586,-0.18555 -0.48538,-0.80574 -8.15943,-2.48967 -10.50782,-2.44922 z m -50.20703,0.72461 c -0.29026,-0.0123 -0.62031,0.0422 -0.92187,0.16602 -0.66654,0.27375 -0.46946,0.47668 0.5039,0.51757 0.88065,0.0372 1.37523,-0.16462 1.09766,-0.44921 -0.13884,-0.1423 -0.38943,-0.2221 -0.67969,-0.23438 z m 63.57032,2.4668 c -2.82106,0 -1.86791,1.54606 2.29687,3.72265 2.18281,1.14078 5.92332,3.12232 8.31055,4.4043 2.65965,1.42828 6.21729,2.49835 9.18945,2.76367 2.66771,0.23811 4.91381,0.48861 4.99024,0.55664 0.47957,0.42792 9.46512,0.0202 9.46679,-0.42968 0.001,-0.30516 -2.53313,-1.00873 -5.63281,-1.5625 -6.19305,-1.10646 -13.82573,-3.56583 -18.94531,-6.10352 -1.81779,-0.901 -4.36199,-1.63672 -5.6543,-1.63672 -1.29231,0 -2.34961,-0.38596 -2.34961,-0.85742 0,-0.47146 -0.7528,-0.85742 -1.67187,-0.85742 z m 459.10546,0.85742 c -0.69104,0 -1.90906,0.33593 -2.70703,0.74805 -4.31694,2.22962 -10.50683,4.23013 -11.67187,3.77148 -0.90875,-0.35773 -1.13288,-0.19259 -0.70508,0.51758 0.41994,0.6971 -0.50307,1.4975 -2.78711,2.41797 -1.87839,0.75696 -3.41602,1.74618 -3.41602,2.19726 0,0.47585 0.96606,0.55456 2.29883,0.18946 1.26376,-0.34579 2.86147,-0.61278 3.55078,-0.59766 2.13071,0.0517 6.6836,-1.61929 6.6836,-2.45312 0,-0.43503 0.57585,-0.79102 1.27929,-0.79102 0.70375,0 1.4952,-0.57797 1.75977,-1.28516 0.26457,-0.70718 1.29739,-1.28711 2.29492,-1.28711 0.99757,0 2.4592,-0.76997 3.2461,-1.71289 1.20714,-1.44642 1.23394,-1.71484 0.17382,-1.71484 z m -317.57617,6 c -3.9191,0 -1.59827,2.06105 5.02735,4.4668 3.56029,1.29271 8.41713,3.44439 10.79492,4.78125 2.37772,1.33685 4.48052,2.31146 4.67187,2.16406 0.19136,-0.14744 0.19136,-0.39009 0,-0.53711 -8.66077,-6.65148 -16.62124,-10.875 -20.49414,-10.875 z m 180.17578,0.1543 c -3.62684,-0.28812 -18.29889,5.61303 -20.92187,8.85547 -1.36683,1.68952 -0.5721,1.60914 3.17383,-0.32227 1.70494,-0.87912 4.60518,-2.08702 6.44336,-2.68555 7.55202,-2.459 12.11523,-4.46195 12.11523,-5.31836 0,-0.31961 -0.29243,-0.48813 -0.81055,-0.52929 z m 110.73243,2.41797 c -0.20266,0 -0.60093,0.38401 -0.88477,0.85546 -0.28392,0.47146 -0.11946,0.85743 0.36719,0.85743 0.48669,0 0.88476,-0.38597 0.88476,-0.85743 0,-0.47145 -0.1646,-0.85546 -0.36718,-0.85546 z m 2.875,0 c -0.45944,0 -0.83594,0.38401 -0.83594,0.85546 0,0.47146 0.37642,0.85743 0.83594,0.85743 0.45947,0 0.83398,-0.38597 0.83398,-0.85743 0,-0.47145 -0.37443,-0.85546 -0.83398,-0.85546 z m -493.4961,0.29492 c 0.076,0.0118 0.16752,0.14395 0.26758,0.40039 0.24129,0.61878 0.21086,1.35798 -0.0664,1.64258 -0.27777,0.28486 -0.47573,-0.22139 -0.43945,-1.125 0.025,-0.62412 0.11164,-0.93764 0.23828,-0.91797 z m 581.61524,10.38672 c 0.0504,0.0193 0.10614,0.0987 0.16406,0.24609 0.23168,0.5893 0.23168,1.55519 0,2.14453 -0.23206,0.58931 -0.42188,0.10634 -0.42188,-1.07226 0,-0.88413 0.10671,-1.37617 0.25782,-1.31836 z m -184.10743,9.89062 c -0.45955,0 -1.06772,0.38596 -1.35156,0.85742 -0.2838,0.47146 -0.14119,0.85742 0.31836,0.85742 0.45952,10e-6 1.06772,-0.38596 1.35156,-0.85742 0.28415,-0.47146 0.14116,-0.85742 -0.31836,-0.85742 z m -14.35742,5.48633 c 0.0362,0.004 0.0547,0.017 0.0547,0.041 0,0.23573 -1.10905,1.01705 -2.46484,1.73633 -2.25374,1.19577 -4.15929,1.76381 -3.31446,0.98828 0.80607,-0.73994 5.18102,-2.82427 5.72461,-2.76562 z m 4.16406,1.47656 c -0.28995,-0.0123 -0.62225,0.0422 -0.92382,0.16602 -0.66656,0.27371 -0.46752,0.47638 0.50586,0.51758 0.88082,0.0372 1.37349,-0.16462 1.0957,-0.44922 -0.13882,-0.1423 -0.38748,-0.22209 -0.67774,-0.23438 z m -10.99218,3.75586 c 0.30218,0.0987 0.18813,0.69151 -0.61914,1.68945 -0.58133,0.71857 -1.44574,1.30665 -1.91992,1.30664 -0.47449,0 -0.18,-0.77491 0.65429,-1.7207 0.86396,-0.97942 1.58258,-1.37404 1.88477,-1.27539 z m -161.47656,3.87891 c 0.45927,0 1.40053,0.37501 2.08984,0.83203 0.68932,0.45713 0.87555,0.83008 0.41601,0.83008 -0.45954,0 -1.39858,-0.37306 -2.08789,-0.83008 -0.68938,-0.45714 -0.87751,-0.83203 -0.41796,-0.83203 z m 3.82617,2.05078 c 0.64651,-0.10922 5.83959,1.98251 6.50586,2.66601 0.71072,0.72915 -1.10034,0.27997 -3.85743,-0.95703 -1.4935,-0.67007 -2.71484,-1.41549 -2.71484,-1.65625 0,-0.0279 0.0233,-0.0454 0.0664,-0.0527 z m 128.1875,5.66406 c 0.45951,0 0.27134,0.37501 -0.41797,0.83203 -0.68931,0.45714 -1.62834,0.83008 -2.08789,0.83008 -0.45952,0 -0.27134,-0.37306 0.41797,-0.83008 0.68931,-0.45713 1.62833,-0.83203 2.08789,-0.83203 z m -111.16602,1.13281 c 1.16559,-0.0335 7.97852,2.29227 7.97852,2.7793 0,0.53677 -0.95162,0.32346 -4.85743,-1.09375 -1.98148,-0.71909 -3.45406,-1.45933 -3.27343,-1.64453 0.0238,-0.0244 0.0746,-0.0388 0.15234,-0.041 z m 113.77735,1.71094 c -0.27282,-0.056 -0.83314,0.33802 -1.3418,0.9668 -0.65885,0.81468 -0.72201,1.30664 -0.16797,1.30664 1.00978,0 2.18682,-1.62626 1.60742,-2.2207 -0.0263,-0.027 -0.0617,-0.0447 -0.0976,-0.0527 z M 362.0293,745.2207 c 0.426,0 1.33004,0.25344 2.47851,0.75977 1.10186,0.48563 1.24433,0.74919 0.41797,0.7832 -0.68934,0.0259 -1.8185,-0.32618 -2.50781,-0.7832 -0.76366,-0.50633 -0.81467,-0.75977 -0.38867,-0.75977 z m 96.40625,0.86524 c 0.29029,0.0123 0.53902,0.0921 0.67773,0.23437 0.27765,0.28468 -0.21492,0.48702 -1.0957,0.44922 -0.97334,-0.0412 -1.17039,-0.24394 -0.50391,-0.51758 0.30159,-0.12378 0.63159,-0.1783 0.92188,-0.16601 z m -8.70313,0.77734 c 0.45955,0 0.27134,0.37501 -0.41797,0.83203 -0.68931,0.45717 -1.63029,0.83008 -2.08984,0.83008 -0.45955,0 -0.27134,-0.37306 0.41797,-0.83008 0.68935,-0.45713 1.63033,-0.83203 2.08984,-0.83203 z m -4.64453,1.68945 c 0.48665,0 0.88477,0.38597 0.88477,0.85743 0,0.47145 -0.16656,0.85546 -0.36914,0.85546 -0.20262,0 -0.60093,-0.38401 -0.88477,-0.85546 -0.28396,-0.47146 -0.11755,-0.85743 0.36914,-0.85743 z m -81.32227,0.29493 c -0.29931,-0.0517 -0.51171,0.13723 -0.51171,0.51172 0,0.49897 0.3764,0.9082 0.83593,0.9082 0.45953,0 0.83594,-0.17103 0.83594,-0.37891 0,-0.20791 -0.37639,-0.6168 -0.83594,-0.9082 -0.11488,-0.0728 -0.22434,-0.11559 -0.32422,-0.13281 z m 79.28126,0.58789 c 0.45921,0 0.27137,0.37335 -0.41797,0.83007 -0.68931,0.45718 -1.62834,0.83204 -2.08789,0.83204 -0.45952,0 -0.27135,-0.37501 0.41796,-0.83204 0.68931,-0.45683 1.6283,-0.83007 2.0879,-0.83007 z m -66.53321,1.06836 c 0.2509,-0.009 0.63021,0.0726 1.15821,0.23828 1.03075,0.32356 2.37413,0.86322 2.98437,1.19922 0.65159,0.35852 0.0634,0.61132 -1.42578,0.61132 -1.40157,0 -2.73648,-0.53647 -2.98438,-1.19921 -0.21051,-0.56282 -0.15059,-0.83382 0.26758,-0.84961 z m 61.86524,0.91015 c 0.40204,-0.0244 0.75054,0.0616 0.94726,0.26367 0.39322,0.40392 -0.28338,0.79274 -1.50976,0.86719 -1.91097,0.116 -2.01109,0.0129 -0.71289,-0.73242 0.4168,-0.23943 0.87334,-0.37405 1.27539,-0.39844 z m -6.14649,2.69532 c 0.16891,-0.043 0.47084,0.008 0.86328,0.1621 1.30507,0.51368 1.29492,0.64572 -0.11718,1.70508 -0.84159,0.63137 -1.92749,1.13243 -2.41407,1.1211 -0.48661,-0.0143 -0.22017,-0.42404 0.59375,-0.91016 0.81389,-0.48609 1.26539,-1.24067 1.00196,-1.67773 -0.13287,-0.22054 -0.0967,-0.35766 0.0723,-0.40039 z m -0.88281,0.37109 -2.08789,1.29101 c -1.14886,0.71014 -2.65249,1.29431 -3.3418,1.29688 -1.11405,0.004 -1.11405,-0.078 0,-0.72461 0.68931,-0.4001 2.19294,-0.98273 3.3418,-1.29492 z m -8.78711,3.53906 c 0.27234,-0.005 0.0197,0.25599 -0.82031,0.80078 -0.68931,0.44708 -1.30193,1.21252 -1.35938,1.70117 -0.0575,0.48866 -0.14958,1.27464 -0.20703,1.7461 -0.0574,0.47149 -0.71535,0.85742 -1.46094,0.85742 -1.11038,0 -1.16632,-0.23402 -0.31445,-1.28711 1.41464,-1.74875 0.5665,-1.61452 -2.69531,0.42578 -2.57004,1.6074 -2.61374,1.71163 -0.7168,1.71485 3.24824,0.005 1.52845,0.82011 -2.84375,1.34765 -2.2142,0.26714 -5.37261,1.42357 -7.01758,2.57031 -1.64496,1.14679 -4.12489,2.09205 -5.51172,2.09961 -1.63169,0.009 -2.14229,0.25924 -1.44531,0.71289 0.69457,0.45215 0.17636,0.70118 -1.46094,0.70118 -1.39672,0 -2.44692,-0.0729 -2.33203,-0.16211 1.72698,-1.33784 16.40971,-7.75173 16.04688,-7.00977 -0.2767,0.56568 0.0157,0.38259 0.65039,-0.4082 0.63477,-0.79075 3.34034,-2.42962 6.01367,-3.64258 3.10422,-1.40839 5.02071,-2.15889 5.47461,-2.16797 z m -31.31836,14.56055 c 0.45952,0 0.27134,0.37302 -0.41797,0.83008 -0.68931,0.45713 -1.62834,0.83203 -2.08789,0.83203 -0.45951,0 -0.2713,-0.37505 0.41797,-0.83203 0.68931,-0.45718 1.62834,-0.83008 2.08789,-0.83008 z m 203.38281,5.22265 c 0.29029,0.0123 0.54098,0.0921 0.67969,0.23438 0.27764,0.28464 -0.21691,0.48701 -1.09766,0.44922 -0.97338,-0.0411 -1.17046,-0.24394 -0.5039,-0.51758 0.30155,-0.12378 0.63159,-0.1783 0.92187,-0.16602 z m -364.29101,1.71485 c -0.29027,-0.0123 -0.62227,0.0422 -0.92383,0.16601 -0.66654,0.27375 -0.46747,0.47639 0.50586,0.51758 0.88065,0.0372 1.37327,-0.16619 1.0957,-0.45117 -0.13882,-0.1423 -0.38747,-0.22014 -0.67773,-0.23242 z m 42.50976,4.38476 1.9668,1.98828 c 1.9856,2.00973 5.72461,2.81761 5.72461,1.23633 0,-0.47146 -0.75276,-0.85742 -1.67188,-0.85742 -0.91907,0 -1.66992,-0.34131 -1.66992,-0.75781 0,-0.41654 -0.97815,-0.94889 -2.17383,-1.1836 z m 306.93164,7.53711 c -1.4835,0.0294 -1.38815,0.13263 2.94141,3.20508 1.36717,0.97036 1.33509,0.99231 -0.29102,0.21289 -2.74163,-1.31399 -4.34549,-0.98529 -1.88671,0.38672 1.17562,0.65601 2.58713,2.20587 3.13671,3.44336 1.10665,2.49184 2.66407,2.16905 2.66407,-0.55273 0,-2.05902 -4.58432,-6.73462 -6.56446,-6.69532 z M 234.0957,792.6582 c 0.1937,0.0401 0.22717,0.2052 0.0625,0.47852 -0.28074,0.46609 -0.86446,0.84766 -1.29687,0.84766 -1.20187,0 -0.93577,-0.61571 0.51172,-1.18555 0.18589,-0.0732 0.34513,-0.11856 0.47656,-0.13867 0.0986,-0.0151 0.18153,-0.0153 0.24609,-0.002 z m 119.90821,0.84961 c -0.17478,-2.3e-4 -0.36535,0.0191 -0.56641,0.0586 -0.80419,0.15798 -1.76688,0.31376 -2.13867,0.35156 -0.37198,0.0361 -0.46633,0.4146 -0.20899,0.8418 0.54222,0.90009 3.8086,0.21334 3.8086,-0.80079 0,-0.28148 -0.37019,-0.45048 -0.89453,-0.45117 z m -10.74805,0.23047 c -1.28698,-0.009 -2.23421,0.0925 -2.07813,0.35156 0.24857,0.41261 2.18337,0.75 4.30079,0.75 2.11741,0 3.69331,-0.14135 3.50195,-0.31445 -0.49226,-0.44468 -3.57965,-0.77167 -5.72461,-0.78711 z m -112.17383,0.2461 c 0.22977,-10e-6 -0.26394,0.76997 -1.0957,1.71289 -0.83177,0.94295 -1.69978,1.71484 -1.92969,1.71484 -0.22977,0 0.26394,-0.77189 1.0957,-1.71484 0.83176,-0.94292 1.69978,-1.7129 1.92969,-1.71289 z m 3.03125,19.72851 c -1.27697,-0.0189 -4.54297,3.28249 -4.54297,4.5918 0,0.61024 0.26008,1.37695 0.57813,1.70312 0.31806,0.32633 1.41436,-0.4786 2.4375,-1.78711 1.02354,-1.30851 1.47214,-2.52227 0.99804,-2.69726 -0.50496,-0.18633 -0.38989,-0.62486 0.27735,-1.0586 0.62634,-0.4072 0.73972,-0.74439 0.25195,-0.75195 z m -1.19531,1.71484 c 0.0318,0.0723 -0.24755,0.47856 -0.81445,1.27149 -0.67415,0.94292 -1.3328,1.87611 -1.4629,2.07226 -0.12979,0.19643 -0.23632,-0.0467 -0.23632,-0.53906 0,-0.49228 0.65869,-1.42326 1.46289,-2.07031 0.67631,-0.5441 1.019,-0.80666 1.05078,-0.73438 z" />
  </g>
</svg>
