<?xml version="1.0" encoding="UTF-8" standalone="no"?>
<!DOCTYPE svg PUBLIC "-//W3C//DTD SVG 1.1//EN" "http://www.w3.org/Graphics/SVG/1.1/DTD/svg11.dtd">
<svg xmlns="http://www.w3.org/2000/svg" version="1.1" viewBox="0.00 0.00 1024.00 1024.00">
<g stroke-width="2.00" fill="none" stroke-linecap="butt">
<path stroke="#6b0929" vector-effect="non-scaling-stroke" d="
  M 421.63 197.31
  Q 416.18 208.71 414.17 220.30"
/>
<path stroke="#51011b" vector-effect="non-scaling-stroke" d="
  M 414.17 220.30
  C 412.33 236.55 417.67 254.52 434.09 260.78
  A 0.73 0.72 84.5 0 0 434.96 259.72
  C 432.14 255.14 432.10 244.20 434.15 238.65
  C 441.98 217.43 459.07 203.43 481.26 199.65
  Q 486.00 198.84 490.78 198.06"
/>
<path stroke="#6b0929" vector-effect="non-scaling-stroke" d="
  M 490.78 198.06
  L 499.22 199.18"
/>
<path stroke="#51011b" vector-effect="non-scaling-stroke" d="
  M 499.22 199.18
  Q 499.44 199.58 500.07 199.56
  Q 500.45 199.54 500.83 199.21
  Q 509.17 192.06 518.12 184.87"
/>
<path stroke="#6b0929" vector-effect="non-scaling-stroke" d="
  M 518.12 184.87
  Q 524.78 180.04 534.38 177.42"
/>
<path stroke="#827c69" vector-effect="non-scaling-stroke" d="
  M 534.38 177.42
  Q 534.84 177.60 535.02 177.37
  Q 535.35 176.96 534.88 176.72
  C 529.35 173.95 524.36 171.42 518.20 168.86
  Q 498.73 160.77 482.30 147.56
  A 0.70 0.70 0.0 0 0 481.38 147.60
  C 464.20 164.43 445.80 178.39 426.72 192.45
  Q 424.29 194.24 421.63 197.31"
/>
<path stroke="#e68582" vector-effect="non-scaling-stroke" d="
  M 534.38 177.42
  Q 526.11 176.83 520.04 173.86
  Q 519.70 173.69 519.74 174.06
  L 520.45 180.28
  A 1.30 1.29 7.6 0 1 518.68 181.63
  C 506.39 176.73 494.78 172.46 482.97 166.64
  Q 482.52 166.41 482.18 166.79
  Q 480.25 168.94 478.53 170.29
  C 464.18 181.58 447.89 192.42 433.23 205.49
  C 431.17 207.32 429.06 209.95 426.80 212.06
  Q 426.01 212.79 426.38 211.79
  Q 429.10 204.37 434.05 198.27
  Q 434.32 197.93 433.89 197.91
  L 421.63 197.31"
/>
<path stroke="#b50a34" vector-effect="non-scaling-stroke" d="
  M 518.12 184.87
  Q 510.25 188.83 503.92 195.03
  A 1.93 1.93 0.0 0 1 503.00 195.53
  Q 500.46 196.09 500.21 198.74
  A 0.55 0.53 -19.3 0 1 500.04 199.08
  Q 499.67 199.42 499.22 199.18"
/>
<path stroke="#b50a34" vector-effect="non-scaling-stroke" d="
  M 490.78 198.06
  C 470.66 197.16 450.85 205.04 439.75 221.91
  C 435.67 228.12 432.61 235.12 429.27 241.65
  A 2.12 2.12 0.0 0 1 426.01 242.30
  C 419.48 236.73 416.33 228.39 414.17 220.30"
/>
<path stroke="#6b0929" vector-effect="non-scaling-stroke" d="
  M 542.74 187.02
  Q 527.94 190.18 520.14 201.63
  Q 518.66 203.80 521.28 203.61
  C 540.61 202.20 562.39 195.69 580.45 206.72"
/>
<path stroke="#51011b" vector-effect="non-scaling-stroke" d="
  M 580.45 206.72
  Q 589.42 214.00 593.04 224.74
  Q 594.01 227.60 593.68 238.49
  Q 593.65 239.21 594.26 238.82
  Q 601.14 234.30 607.99 229.69
  Q 612.75 226.48 611.90 220.27"
/>
<path stroke="#6b0929" vector-effect="non-scaling-stroke" d="
  M 611.90 220.27
  L 609.57 215.17"
/>
<path stroke="#827c69" vector-effect="non-scaling-stroke" d="
  M 609.57 215.17
  C 602.90 201.79 596.64 190.53 595.10 175.24
  Q 595.05 174.71 594.56 174.95
  C 584.55 179.89 575.39 179.93 564.93 180.70
  Q 553.16 181.58 542.74 187.02"
/>
<path stroke="#e68582" vector-effect="non-scaling-stroke" d="
  M 609.57 215.17
  Q 609.28 215.27 609.05 215.26
  Q 608.83 215.24 608.62 214.99
  Q 597.61 202.00 592.90 185.65
  Q 592.77 185.20 592.30 185.28
  Q 581.31 187.32 570.20 187.83
  C 556.41 188.45 547.33 189.57 535.83 193.51
  A 0.30 0.30 0.0 0 1 535.54 192.99
  L 542.74 187.02"
/>
<path stroke="#b50a34" vector-effect="non-scaling-stroke" d="
  M 611.90 220.27
  L 597.44 225.43
  Q 596.91 225.62 596.75 225.08
  C 594.16 216.54 589.34 209.40 580.45 206.72"
/>
<path stroke="#51011b" vector-effect="non-scaling-stroke" d="
  M 461.04 256.63
  Q 463.21 267.27 473.02 273.01
  A 0.34 0.34 0.0 0 0 473.52 272.63
  C 472.28 267.73 471.27 262.28 471.52 257.41
  C 472.50 239.15 489.10 225.56 505.11 219.86
  A 0.75 0.74 -45.9 0 0 505.09 218.45
  L 504.72 218.33"
/>
<path stroke="#827c69" vector-effect="non-scaling-stroke" d="
  M 504.72 218.33
  Q 506.76 218.38 507.82 217.46
  Q 508.30 217.05 507.75 216.73
  Q 494.00 208.86 479.93 216.20
  C 464.64 224.18 458.21 239.68 461.04 256.63"
/>
<path stroke="#cc7d73" vector-effect="non-scaling-stroke" d="
  M 504.72 218.33
  Q 495.53 220.10 492.75 221.00
  C 477.25 226.03 468.73 240.36 464.57 255.40
  Q 464.43 255.91 463.96 256.13
  Q 462.89 256.63 461.04 256.63"
/>
<path stroke="#6b0929" vector-effect="non-scaling-stroke" d="
  M 534.93 223.89
  C 555.81 230.85 564.61 250.40 556.98 271.05
  Q 556.61 272.05 557.49 271.46
  Q 564.57 266.67 570.96 260.99
  A 1.07 1.05 66.5 0 0 571.31 260.08
  L 570.51 252.37"
/>
<path stroke="#827c69" vector-effect="non-scaling-stroke" d="
  M 570.51 252.37
  C 572.30 230.47 555.62 213.55 533.51 222.30
  Q 532.55 222.68 533.44 223.57
  Q 533.69 223.82 534.93 223.89"
/>
<path stroke="#e68582" vector-effect="non-scaling-stroke" d="
  M 570.51 252.37
  C 564.26 237.34 554.93 224.09 539.05 221.62
  Q 536.30 221.19 534.93 223.89"
/>
<path stroke="#51011b" vector-effect="non-scaling-stroke" d="
  M 490.91 252.95
  C 483.60 271.95 501.75 287.41 519.00 288.71
  Q 519.65 288.76 519.25 288.25
  C 513.42 280.87 505.50 272.62 503.38 263.58
  C 499.05 245.10 533.57 243.67 531.13 263.17
  C 530.64 267.06 528.08 271.12 526.14 274.69
  A 0.81 0.80 -82.3 0 0 527.03 275.86
  Q 541.35 272.38 542.17 259.09"
/>
<path stroke="#6b0929" vector-effect="non-scaling-stroke" d="
  M 542.17 259.09
  C 541.96 227.81 498.02 222.14 490.91 252.95"
/>
<path stroke="#b50a34" vector-effect="non-scaling-stroke" d="
  M 542.17 259.09
  Q 537.51 245.12 525.78 243.76
  C 511.84 242.14 501.89 250.51 494.43 261.31
  Q 492.75 263.75 492.26 260.83
  L 490.91 252.95"
/>
<path stroke="#827c69" vector-effect="non-scaling-stroke" d="
  M 631.09 239.41
  L 628.77 248.94"
/>
<path stroke="#6b0929" vector-effect="non-scaling-stroke" d="
  M 628.77 248.94
  C 621.71 266.39 615.12 284.06 605.86 300.35
  A 0.32 0.31 4.2 0 0 606.25 300.80
  C 618.26 295.87 627.65 286.39 636.76 277.39
  A 0.28 0.28 0.0 0 1 637.19 277.73
  L 629.54 290.59
  A 0.34 0.33 10.9 0 0 629.88 291.09
  Q 645.83 288.71 659.09 297.70
  A 0.18 0.18 0.0 0 1 658.93 298.01
  C 651.29 295.10 638.05 293.52 632.70 301.45
  C 623.74 314.73 615.00 325.98 600.64 335.18
  Q 599.98 335.60 600.76 335.59
  C 616.83 335.34 629.73 335.11 644.22 343.42"
/>
<path stroke="#51011b" vector-effect="non-scaling-stroke" d="
  M 644.22 343.42
  L 644.26 343.82
  A 0.91 0.91 0.0 0 0 644.61 344.45
  C 658.64 355.36 668.98 366.42 675.35 383.23
  Q 675.71 384.17 676.20 383.30
  Q 682.31 372.49 685.14 360.89
  C 689.57 342.75 686.55 323.33 696.33 306.24"
/>
<path stroke="#6b0929" vector-effect="non-scaling-stroke" d="
  M 696.33 306.24
  Q 702.88 299.55 710.78 293.88
  A 0.57 0.57 0.0 0 0 710.79 292.97
  Q 692.59 279.30 677.51 262.02
  Q 670.89 254.43 664.35 246.77
  Q 664.25 246.67 664.25 246.52
  Q 664.25 246.38 664.26 246.26
  Q 664.26 246.15 664.15 246.12
  L 632.97 237.85
  A 1.88 1.33 17.2 0 0 630.91 238.52
  Q 630.82 238.75 631.09 239.41"
/>
<path stroke="#b50a34" vector-effect="non-scaling-stroke" d="
  M 696.33 306.24
  Q 685.26 309.88 682.11 323.17
  C 679.84 332.77 679.03 342.58 676.94 352.23
  C 676.15 355.90 674.58 359.51 673.30 363.03
  Q 672.83 364.32 671.90 363.30
  Q 659.78 349.85 644.22 343.42"
/>
<path stroke="#e68582" vector-effect="non-scaling-stroke" d="
  M 628.77 248.94
  Q 652.53 255.39 669.09 273.02
  A 0.24 0.23 12.2 0 0 669.48 272.77
  L 659.27 248.62
  A 2.20 2.19 -2.9 0 0 657.89 247.38
  L 631.09 239.41"
/>
<path stroke="#51011b" vector-effect="non-scaling-stroke" d="
  M 320.58 287.73
  L 316.83 289.82
  A 0.71 0.71 0.0 0 0 316.71 290.99
  C 327.97 300.40 336.11 308.71 338.23 324.04
  Q 339.91 336.25 341.93 348.39
  C 342.67 352.84 344.11 356.25 345.95 360.31
  C 355.01 380.25 372.28 388.45 393.40 390.01
  Q 393.90 390.05 394.27 389.71
  C 408.09 377.49 428.31 371.53 446.42 371.13
  A 0.33 0.33 0.0 0 0 446.54 370.49
  L 437.82 366.79"
/>
<path stroke="#6b0929" vector-effect="non-scaling-stroke" d="
  M 437.82 366.79
  C 416.29 359.44 399.98 354.13 389.58 333.18
  C 386.12 326.20 382.07 317.37 374.27 310.98
  Q 368.58 306.32 363.09 302.90
  Q 361.29 301.77 363.34 302.30
  Q 377.35 305.91 390.76 311.99"
/>
<path stroke="#51011b" vector-effect="non-scaling-stroke" d="
  M 390.76 311.99
  L 398.47 316.63
  A 0.18 0.18 0.0 0 0 398.72 316.39
  Q 390.03 300.31 386.47 282.44
  C 385.71 278.58 383.57 271.79 379.20 270.43"
/>
<path stroke="#6b0929" vector-effect="non-scaling-stroke" d="
  M 379.20 270.43
  Q 376.37 269.54 374.18 267.45
  A 0.75 0.74 -30.9 0 1 374.50 266.19
  C 376.98 265.50 379.11 264.90 381.79 264.79
  C 388.61 264.53 395.45 263.80 402.23 264.46
  A 0.80 0.80 0.0 0 0 403.07 263.40
  L 399.19 252.27"
/>
<path stroke="#827c69" vector-effect="non-scaling-stroke" d="
  M 399.19 252.27
  L 396.81 240.58
  Q 396.70 240.04 396.25 240.36
  Q 396.06 240.49 395.99 240.79"
/>
<path stroke="#6b0929" vector-effect="non-scaling-stroke" d="
  M 395.99 240.79
  L 394.91 240.35
  A 1.06 1.02 46.2 0 0 394.21 240.32
  Q 380.67 244.42 366.53 245.17
  Q 366.01 245.19 365.67 245.59
  C 351.85 261.53 338.68 275.55 320.58 287.73"
/>
<path stroke="#e68582" vector-effect="non-scaling-stroke" d="
  M 395.99 240.79
  C 395.62 242.83 393.60 242.40 392.32 242.73
  Q 380.81 245.78 369.05 247.52
  A 0.75 0.74 4.4 0 0 368.45 248.03
  Q 367.27 251.75 364.03 256.30
  C 354.69 269.42 344.66 279.68 330.98 287.12
  Q 330.51 287.38 331.05 287.37
  C 346.81 287.15 363.88 272.28 377.37 261.43
  C 383.30 256.66 392.00 254.43 399.19 252.27"
/>
<path stroke="#b50a34" vector-effect="non-scaling-stroke" d="
  M 379.20 270.43
  Q 381.68 280.90 383.97 291.26
  Q 385.14 296.58 390.76 311.99"
/>
<path stroke="#b50a34" vector-effect="non-scaling-stroke" d="
  M 437.82 366.79
  C 426.83 370.25 415.29 370.75 403.19 376.22
  C 394.89 379.96 391.06 381.02 382.75 378.99
  C 364.60 374.54 354.27 360.22 350.78 342.50
  C 349.60 336.52 348.97 327.71 347.32 321.59
  Q 344.39 310.76 337.90 301.83
  Q 331.67 293.27 320.58 287.73"
/>
<path stroke="#827c69" vector-effect="non-scaling-stroke" d="
  M 606.75 250.38
  C 583.28 273.73 551.75 287.07 522.70 301.96
  C 506.83 310.10 491.12 320.15 482.20 336.04"
/>
<path stroke="#51011b" vector-effect="non-scaling-stroke" d="
  M 482.20 336.04
  Q 464.70 362.42 476.26 391.65
  Q 476.65 392.64 476.88 391.60
  C 478.18 385.49 479.47 378.61 481.48 373.38
  C 490.96 348.73 510.50 335.00 534.00 323.49
  C 553.06 314.15 574.96 306.50 589.46 290.55
  C 600.39 278.54 607.91 260.41 612.43 244.79
  A 0.28 0.28 0.0 0 0 611.96 244.53
  L 606.75 250.38"
/>
<path stroke="#cc7d73" vector-effect="non-scaling-stroke" d="
  M 482.20 336.04
  L 478.13 353.11
  A 0.31 0.31 0.0 0 0 478.71 353.33
  C 488.29 335.11 503.94 323.97 521.94 314.94
  C 553.92 298.91 588.26 286.49 604.97 253.15
  A 1.97 1.89 -5.2 0 1 605.61 252.41
  Q 607.54 251.11 606.75 250.38"
/>
<path stroke="#754f26" vector-effect="non-scaling-stroke" d="
  M 419.26 276.54
  L 420.74 277.39"
/>
<path stroke="#6b0929" vector-effect="non-scaling-stroke" d="
  M 420.74 277.39
  Q 431.53 281.95 440.02 290.14
  C 442.30 292.34 445.54 294.09 448.06 294.96
  C 459.70 299.00 471.99 301.46 482.54 307.94
  A 0.78 0.78 0.0 0 0 483.56 307.76
  C 486.87 303.58 491.26 301.37 495.45 298.22
  Q 495.88 297.90 495.65 297.42
  Q 495.05 296.20 493.94 295.39"
/>
<path stroke="#827c69" vector-effect="non-scaling-stroke" d="
  M 493.94 295.39
  Q 462.49 282.62 439.82 275.15
  Q 425.92 270.57 409.35 268.30
  C 400.39 267.07 391.05 267.48 381.83 267.77
  C 380.20 267.82 378.40 266.98 376.50 267.31
  Q 375.82 267.42 376.33 267.89
  Q 377.31 268.79 378.44 268.83
  Q 399.75 269.53 419.26 276.54"
/>
<path stroke="#e68582" vector-effect="non-scaling-stroke" d="
  M 493.94 295.39
  C 490.06 296.29 485.43 297.91 481.51 297.06
  C 461.34 292.72 444.13 285.75 421.79 276.87"
/>
<path stroke="#f0cb7f" vector-effect="non-scaling-stroke" d="
  M 421.79 276.87
  Q 420.91 276.06 419.26 276.54"
/>
<path stroke="#d9573f" vector-effect="non-scaling-stroke" d="
  M 421.79 276.87
  Q 421.45 277.24 420.74 277.39"
/>
<path stroke="#51011b" vector-effect="non-scaling-stroke" d="
  M 471.78 323.53
  Q 459.98 314.36 446.52 307.80
  A 0.35 0.35 0.0 0 0 446.01 308.11
  C 445.96 324.56 445.92 340.72 456.38 354.57
  A 0.64 0.64 0.0 0 0 457.52 354.26
  Q 459.61 337.24 471.88 325.49
  A 1.30 1.30 0.0 0 0 471.78 323.53"
/>
<path stroke="#51011b" vector-effect="non-scaling-stroke" d="
  M 577.89 320.27
  C 552.86 335.83 523.34 351.38 515.96 382.87
  Q 515.83 383.42 516.39 383.37
  C 537.08 381.21 555.40 367.74 568.14 351.76
  C 574.05 344.34 576.46 329.74 578.24 320.51
  A 0.23 0.23 0.0 0 0 577.89 320.27"
/>
<path stroke="#827c69" vector-effect="non-scaling-stroke" d="
  M 314.19 338.17
  Q 311.42 341.45 308.17 346.68
  Q 287.06 380.62 278.63 420.30
  Q 278.45 421.14 279.31 421.17
  Q 282.96 421.32 287.83 423.24"
/>
<path stroke="#754f26" vector-effect="non-scaling-stroke" d="
  M 287.83 423.24
  L 292.32 426.47
  Q 292.80 426.81 292.91 426.24
  Q 300.17 390.24 319.07 358.77
  Q 321.68 354.43 324.17 349.92
  Q 324.42 349.46 324.32 348.94
  L 320.56 330.68
  Q 320.41 329.93 319.95 330.54
  L 314.19 338.17"
/>
<path stroke="#f0cb7f" vector-effect="non-scaling-stroke" d="
  M 287.83 423.24
  Q 289.69 417.09 291.23 410.93
  C 296.67 389.28 306.39 368.24 317.93 349.18
  A 3.08 3.07 47.8 0 0 318.07 346.26
  L 314.19 338.17"
/>
<path stroke="#754f26" vector-effect="non-scaling-stroke" d="
  M 742.45 423.35
  Q 746.55 421.23 751.05 421.17
  Q 751.57 421.16 751.45 420.65
  C 744.18 388.82 731.76 358.87 710.93 333.24"
/>
<path stroke="#5e3716" vector-effect="non-scaling-stroke" d="
  M 710.93 333.24
  L 708.81 330.57
  Q 708.38 330.04 708.23 330.71
  L 704.31 347.38
  Q 704.20 347.87 704.48 348.28
  Q 728.82 383.73 737.81 425.88
  Q 737.96 426.56 738.52 426.16
  L 742.45 423.35"
/>
<path stroke="#cc862c" vector-effect="non-scaling-stroke" d="
  M 710.93 333.24
  Q 711.23 339.06 709.90 343.81
  C 709.49 345.28 709.72 347.33 710.54 348.67
  Q 719.51 363.47 721.97 368.01
  C 731.15 384.93 737.20 404.08 742.45 423.35"
/>
<path stroke="#51011b" vector-effect="non-scaling-stroke" d="
  M 539.98 423.11
  L 534.97 434.24
  A 0.38 0.38 0.0 0 0 535.39 434.77
  C 540.73 433.82 552.34 432.55 556.47 429.26
  Q 561.61 425.16 567.41 421.50"
/>
<path stroke="#6b0929" vector-effect="non-scaling-stroke" d="
  M 567.41 421.50
  C 598.26 408.34 629.46 398.92 663.07 408.66
  Q 663.81 408.87 663.54 408.15
  L 661.25 402.00"
/>
<path stroke="#827c69" vector-effect="non-scaling-stroke" d="
  M 661.25 402.00
  C 655.73 385.49 645.63 369.67 630.57 360.77"
/>
<path stroke="#6b0929" vector-effect="non-scaling-stroke" d="
  M 630.57 360.77
  Q 626.61 357.80 621.29 356.68
  A 1.17 1.14 -55.6 0 0 620.38 356.86
  Q 599.87 370.59 579.39 384.36
  C 564.29 394.50 549.41 407.31 539.98 423.11"
/>
<path stroke="#e68582" vector-effect="non-scaling-stroke" d="
  M 630.57 360.77
  C 636.81 366.15 645.20 374.06 647.96 381.75
  A 1.62 1.62 0.0 0 1 646.65 383.91
  Q 618.89 387.77 593.99 399.75
  Q 591.33 401.04 588.83 402.69
  A 0.15 0.15 0.0 0 0 588.86 402.96
  Q 589.07 403.04 589.24 402.97
  C 608.96 394.06 642.78 386.53 661.25 402.00"
/>
<path stroke="#b50a34" vector-effect="non-scaling-stroke" d="
  M 567.41 421.50
  L 539.98 423.11"
/>
<path stroke="#6b0929" vector-effect="non-scaling-stroke" d="
  M 445.30 386.69
  C 417.88 389.51 395.08 406.65 388.37 433.79
  Q 388.19 434.51 389.55 434.72"
/>
<path stroke="#51011b" vector-effect="non-scaling-stroke" d="
  M 389.55 434.72
  C 404.65 439.34 414.76 457.24 417.03 471.84
  A 0.42 0.42 0.0 0 0 417.62 472.15
  C 431.77 465.42 443.90 462.28 461.09 458.94
  Q 475.79 456.08 490.25 452.14
  C 498.91 449.78 507.93 446.28 516.78 443.22
  Q 517.28 443.05 517.32 442.52
  Q 518.07 432.11 521.95 422.64
  C 526.78 410.82 537.92 399.86 547.60 391.38
  A 0.36 0.36 0.0 0 0 547.18 390.79
  C 546.36 391.27 545.68 391.86 544.79 392.20
  Q 531.46 397.31 518.74 401.82"
/>
<path stroke="#6b0929" vector-effect="non-scaling-stroke" d="
  M 518.74 401.82
  C 495.39 410.23 473.47 416.52 448.52 415.76
  C 444.03 415.62 439.81 426.97 439.05 430.36
  C 438.09 434.59 438.49 439.56 438.82 444.09
  A 0.15 0.15 0.0 0 1 438.53 444.15
  Q 433.66 428.96 437.23 413.56"
/>
<path stroke="#51011b" vector-effect="non-scaling-stroke" d="
  M 437.23 413.56
  C 442.67 403.16 447.12 394.45 457.62 388.14
  Q 459.59 386.95 457.29 386.91
  L 445.30 386.69"
/>
<path stroke="#b50a34" vector-effect="non-scaling-stroke" d="
  M 437.23 413.56
  Q 438.11 399.12 445.30 386.69"
/>
<path stroke="#b50a34" vector-effect="non-scaling-stroke" d="
  M 518.74 401.82
  C 516.74 414.64 508.24 426.15 498.83 434.54
  C 486.84 445.23 470.49 449.57 454.49 451.97
  C 442.82 453.73 434.61 454.09 426.26 459.07
  Q 425.75 459.37 425.60 458.80
  C 421.99 445.48 415.16 438.32 405.27 426.85
  Q 405.21 426.78 405.13 426.78
  Q 404.97 426.77 404.80 426.74
  Q 404.52 426.69 404.51 426.41
  L 404.49 425.72"
/>
<path stroke="#e68582" vector-effect="non-scaling-stroke" d="
  M 404.49 425.72
  L 409.42 425.96
  A 0.92 0.92 0.0 0 0 410.32 425.38
  Q 416.04 410.74 426.73 399.20
  A 0.36 0.36 0.0 0 0 426.33 398.63
  C 413.29 404.20 406.32 413.11 398.59 425.88"
/>
<path stroke="#b50a34" vector-effect="non-scaling-stroke" d="
  M 398.59 425.88
  C 394.72 427.96 390.63 429.59 389.55 434.72"
/>
<path stroke="#cc7d73" vector-effect="non-scaling-stroke" d="
  M 398.59 425.88
  L 404.49 425.72"
/>
<path stroke="#754f26" vector-effect="non-scaling-stroke" d="
  M 715.96 469.09
  L 750.44 503.76
  Q 750.85 504.17 751.30 503.80
  C 763.94 493.20 775.68 480.61 787.11 468.73
  A 0.56 0.56 0.0 0 0 787.11 467.95
  L 770.51 450.48"
/>
<path stroke="#827c69" vector-effect="non-scaling-stroke" d="
  M 770.51 450.48
  L 751.30 431.00
  Q 750.91 430.61 750.52 431.00
  Q 732.86 449.20 715.62 467.37
  Q 715.17 467.83 715.23 468.24
  Q 715.30 468.78 715.96 469.09"
/>
<path stroke="#f0cb7f" vector-effect="non-scaling-stroke" d="
  M 770.51 450.48
  Q 769.26 453.68 766.79 454.99"
/>
<path stroke="#827c69" vector-effect="non-scaling-stroke" d="
  M 766.79 454.99
  L 750.74 438.54
  Q 750.37 438.17 750.02 438.55
  L 722.98 467.72"
/>
<path stroke="#f0cb7f" vector-effect="non-scaling-stroke" d="
  M 722.98 467.72
  Q 721.68 469.87 718.85 468.62
  Q 718.34 468.40 717.84 468.64
  Q 716.88 469.11 715.96 469.09"
/>
<path stroke="#754f26" vector-effect="non-scaling-stroke" d="
  M 766.79 454.99
  L 778.61 468.34
  Q 778.93 468.70 778.59 469.06
  C 769.92 478.12 760.95 488.40 751.27 496.34
  A 1.00 1.00 0.0 0 1 749.90 496.25
  L 722.98 467.72"
/>
<path stroke="#754f26" vector-effect="non-scaling-stroke" d="
  M 244.68 470.05
  Q 261.20 487.63 278.59 504.03
  A 0.78 0.78 0.0 0 0 279.68 504.02
  L 313.07 471.08"
/>
<path stroke="#827c69" vector-effect="non-scaling-stroke" d="
  M 313.07 471.08
  L 315.84 468.45
  Q 316.32 468.00 315.86 467.53
  L 280.58 431.34
  A 1.56 1.56 0.0 0 0 278.35 431.34
  Q 261.04 448.92 243.77 466.53
  Q 242.71 467.61 243.00 468.33
  Q 243.32 469.14 244.68 470.05"
/>
<path stroke="#f0cb7f" vector-effect="non-scaling-stroke" d="
  M 313.07 471.08
  C 310.82 470.30 310.71 466.85 307.51 468.18"
/>
<path stroke="#827c69" vector-effect="non-scaling-stroke" d="
  M 307.51 468.18
  Q 299.61 459.14 286.64 445.61
  Q 282.12 440.89 278.82 438.13
  Q 278.43 437.80 278.11 438.20
  C 269.82 448.53 259.62 457.91 250.48 467.66"
/>
<path stroke="#f0cb7f" vector-effect="non-scaling-stroke" d="
  M 250.48 467.66
  Q 247.22 468.30 244.68 470.05"
/>
<path stroke="#754f26" vector-effect="non-scaling-stroke" d="
  M 307.51 468.18
  L 279.50 496.56
  A 1.08 1.08 0.0 0 1 277.94 496.54
  L 250.48 467.66"
/>
<path stroke="#265644" vector-effect="non-scaling-stroke" d="
  M 559.93 479.24
  L 559.50 479.92"
/>
<path stroke="#0f312f" vector-effect="non-scaling-stroke" d="
  M 559.50 479.92
  L 552.46 481.09
  A 0.71 0.71 0.0 0 0 551.87 481.71
  Q 550.96 490.50 548.51 499.00
  A 2.01 2.01 0.0 0 0 548.57 500.32
  L 553.37 512.32
  Q 553.57 512.83 553.90 512.40
  L 560.75 503.59"
/>
<path stroke="#265644" vector-effect="non-scaling-stroke" d="
  M 560.75 503.59
  Q 580.66 480.84 599.44 463.94
  Q 606.06 457.97 608.83 454.91"
/>
<path stroke="#827c69" vector-effect="non-scaling-stroke" d="
  M 608.83 454.91
  L 617.14 448.63
  A 0.26 0.26 0.0 0 0 616.95 448.17
  Q 587.34 452.87 561.50 467.95
  A 1.96 1.94 -13.7 0 0 560.53 469.52
  L 559.93 479.24"
/>
<path stroke="#a1d29c" vector-effect="non-scaling-stroke" d="
  M 608.83 454.91
  C 592.46 461.78 574.92 468.83 560.68 479.42
  Q 560.21 479.77 559.93 479.24"
/>
<path stroke="#2e8762" vector-effect="non-scaling-stroke" d="
  M 560.75 503.59
  C 559.73 495.81 558.40 486.93 559.50 479.92"
/>
<path stroke="#265644" vector-effect="non-scaling-stroke" d="
  M 615.24 458.35
  Q 596.31 474.47 581.46 494.22
  Q 576.17 501.23 574.99 509.49"
/>
<path stroke="#0f312f" vector-effect="non-scaling-stroke" d="
  M 574.99 509.49
  L 573.73 523.20
  Q 573.68 523.76 574.24 523.73
  Q 588.20 523.10 601.71 519.63
  Q 602.15 519.52 602.35 519.11
  Q 603.47 516.72 604.14 514.17
  Q 611.14 487.73 617.84 461.21
  Q 618.49 458.66 619.26 456.07
  Q 619.50 455.23 618.80 455.75
  L 615.24 458.35"
/>
<path stroke="#2e8762" vector-effect="non-scaling-stroke" d="
  M 574.99 509.49
  Q 586.44 512.02 597.09 512.68
  Q 597.62 512.71 597.80 512.22
  Q 607.21 486.94 614.80 461.54
  Q 614.98 460.94 615.39 460.04
  Q 616.25 458.21 615.24 458.35"
/>
<path stroke="#265644" vector-effect="non-scaling-stroke" d="
  M 491.08 465.26
  C 486.98 465.45 482.80 466.16 479.71 469.26
  Q 470.44 478.55 460.06 486.69
  A 0.14 0.14 0.0 0 0 460.17 486.94
  Q 479.84 483.50 494.34 469.49"
/>
<path stroke="#0f312f" vector-effect="non-scaling-stroke" d="
  M 494.34 469.49
  Q 497.71 467.31 499.77 463.75
  Q 500.12 463.15 499.44 463.31
  L 491.08 465.26"
/>
<path stroke="#2e8762" vector-effect="non-scaling-stroke" d="
  M 494.34 469.49
  Q 493.88 468.67 492.90 468.06
  Q 492.41 467.76 492.60 467.22
  Q 493.11 465.82 491.08 465.26"
/>
<path stroke="#754f26" vector-effect="non-scaling-stroke" d="
  M 517.22 537.27
  C 516.88 543.06 517.14 549.02 516.55 554.55
  Q 515.67 562.76 514.79 570.35"
/>
<path stroke="#827c69" vector-effect="non-scaling-stroke" d="
  M 514.79 570.35
  C 508.59 602.83 501.05 634.81 493.89 667.20"
/>
<path stroke="#754f26" vector-effect="non-scaling-stroke" d="
  M 493.89 667.20
  L 492.13 679.27"
/>
<path stroke="#5e3716" vector-effect="non-scaling-stroke" d="
  M 492.13 679.27
  L 491.33 693.23
  Q 491.30 693.79 491.67 693.37
  Q 505.08 678.38 508.40 673.62
  Q 509.47 672.09 509.69 667.43"
/>
<path stroke="#754f26" vector-effect="non-scaling-stroke" d="
  M 509.69 667.43
  L 523.96 598.22"
/>
<path stroke="#827c69" vector-effect="non-scaling-stroke" d="
  M 523.96 598.22
  L 527.53 576.51"
/>
<path stroke="#754f26" vector-effect="non-scaling-stroke" d="
  M 527.53 576.51
  C 533.26 545.00 532.10 511.50 526.38 480.18"
/>
<path stroke="#5e3716" vector-effect="non-scaling-stroke" d="
  M 526.38 480.18
  Q 524.96 476.76 522.11 474.28
  Q 521.73 473.94 521.40 474.34
  L 514.38 482.72
  A 1.89 1.88 -28.4 0 0 513.95 484.14
  Q 517.02 510.63 517.22 537.27"
/>
<path stroke="#cc862c" vector-effect="non-scaling-stroke" d="
  M 526.38 480.18
  Q 520.57 487.98 520.49 495.50
  Q 520.42 502.94 522.69 515.52"
/>
<path stroke="#d9b36e" vector-effect="non-scaling-stroke" d="
  M 522.69 515.52
  L 522.96 520.50"
/>
<path stroke="#cc862c" vector-effect="non-scaling-stroke" d="
  M 522.96 520.50
  L 522.15 525.76
  A 0.24 0.24 0.0 0 1 522.00 525.95
  Q 519.01 527.15 518.68 528.48
  Q 517.60 532.77 517.22 537.27"
/>
<path stroke="#f0cb7f" vector-effect="non-scaling-stroke" d="
  M 523.96 598.22
  Q 522.78 593.97 519.47 593.29
  Q 518.99 593.19 518.89 593.67
  Q 513.11 621.41 506.38 648.93
  C 505.16 653.93 504.80 656.43 501.70 659.46
  Q 498.00 663.09 493.89 667.20"
/>
<path stroke="#f0cb7f" vector-effect="non-scaling-stroke" d="
  M 514.79 570.35
  L 519.34 579.80
  Q 519.63 580.41 519.76 579.74
  C 520.10 578.01 520.81 576.24 520.87 574.55
  Q 521.94 547.53 522.96 520.50"
/>
<path stroke="#f0cb7f" vector-effect="non-scaling-stroke" d="
  M 527.53 576.51
  C 527.59 573.79 527.13 571.08 527.35 568.49
  C 528.66 552.96 529.32 537.65 528.39 522.08
  C 528.19 518.76 526.24 516.77 524.24 514.39
  A 0.84 0.84 0.0 0 0 522.76 514.85
  L 522.69 515.52"
/>
<path stroke="#cc862c" vector-effect="non-scaling-stroke" d="
  M 509.69 667.43
  L 503.74 662.09
  Q 503.23 661.63 502.93 662.25
  Q 498.79 671.08 492.13 679.27"
/>
<path stroke="#5e3716" vector-effect="non-scaling-stroke" d="
  M 276.96 519.31
  C 279.34 531.21 283.20 549.39 288.79 562.34"
/>
<path stroke="#754f26" vector-effect="non-scaling-stroke" d="
  M 288.79 562.34
  L 292.12 571.54"
/>
<path stroke="#5e3716" vector-effect="non-scaling-stroke" d="
  M 292.12 571.54
  Q 293.42 575.02 294.94 578.26
  Q 341.00 676.63 443.49 713.03
  Q 456.37 717.60 472.78 720.65
  Q 473.32 720.75 473.56 720.25
  L 475.97 715.23"
/>
<path stroke="#827c69" vector-effect="non-scaling-stroke" d="
  M 475.97 715.23
  L 479.67 707.04
  Q 479.92 706.47 479.32 706.32
  Q 450.18 699.18 422.79 687.26"
/>
<path stroke="#754f26" vector-effect="non-scaling-stroke" d="
  M 422.79 687.26
  C 351.80 654.45 301.75 588.27 290.85 510.60
  Q 290.74 509.85 290.10 510.25
  Q 283.90 514.15 276.57 514.34
  Q 276.01 514.36 276.12 514.91
  L 276.96 519.31"
/>
<path stroke="#f0cb7f" vector-effect="non-scaling-stroke" d="
  M 422.79 687.26
  C 420.73 688.59 416.08 686.43 414.02 685.58
  Q 402.95 681.03 392.04 675.97
  Q 391.59 675.76 391.10 675.86
  Q 388.88 676.28 386.92 675.22
  Q 386.47 674.97 386.08 675.29
  Q 385.64 675.64 385.79 676.16"
/>
<path stroke="#cc862c" vector-effect="non-scaling-stroke" d="
  M 385.79 676.16
  Q 375.60 670.35 367.51 663.73
  Q 327.36 630.89 303.06 584.50
  Q 298.91 576.58 294.56 567.83
  A 0.35 0.35 0.0 0 0 293.90 568.08
  L 294.40 569.94
  Q 294.52 570.39 294.28 570.78
  Q 293.55 572.03 292.12 571.54"
/>
<path stroke="#cc862c" vector-effect="non-scaling-stroke" d="
  M 288.79 562.34
  Q 289.65 559.00 289.07 554.46"
/>
<path stroke="#f0cb7f" vector-effect="non-scaling-stroke" d="
  M 289.07 554.46
  Q 289.91 554.71 289.82 552.24
  Q 289.27 535.48 286.25 518.83
  Q 286.16 518.30 285.63 518.25
  Q 282.25 517.91 279.28 520.45"
/>
<path stroke="#cc862c" vector-effect="non-scaling-stroke" d="
  M 279.28 520.45
  Q 278.75 518.76 276.96 519.31"
/>
<path stroke="#d9b36e" vector-effect="non-scaling-stroke" d="
  M 385.79 676.16
  C 405.39 688.42 420.36 697.24 440.40 704.55
  C 450.89 708.39 464.12 711.68 475.97 715.23"
/>
<path stroke="#d9b36e" vector-effect="non-scaling-stroke" d="
  M 289.07 554.46
  Q 282.37 537.76 279.28 520.45"
/>
<path stroke="#754f26" vector-effect="non-scaling-stroke" d="
  M 674.58 656.07
  Q 675.17 658.82 676.16 659.75
  A 0.72 0.72 0.0 0 0 677.13 659.76
  C 720.19 621.57 745.47 571.10 753.98 514.46
  Q 754.06 513.89 753.49 513.86
  L 747.98 513.54"
/>
<path stroke="#827c69" vector-effect="non-scaling-stroke" d="
  M 747.98 513.54
  Q 743.54 512.88 739.80 510.54
  Q 739.38 510.27 739.33 510.76
  C 733.59 560.26 707.40 612.34 670.00 645.46
  Q 669.60 645.81 669.83 646.28
  L 674.58 656.07"
/>
<path stroke="#f0cb7f" vector-effect="non-scaling-stroke" d="
  M 747.98 513.54
  Q 749.10 514.06 748.67 515.17
  Q 748.58 515.40 748.08 515.96
  A 1.34 1.30 67.0 0 0 747.75 516.81
  C 747.74 520.41 747.97 523.81 747.19 527.33
  C 738.21 567.92 720.76 603.68 694.39 634.89
  Q 691.57 638.22 684.57 645.07
  Q 679.13 650.40 674.58 656.07"
/>
<path stroke="#265644" vector-effect="non-scaling-stroke" d="
  M 356.24 532.30
  Q 370.40 538.41 384.25 544.37
  C 414.65 557.43 443.22 573.77 470.29 593.36"
/>
<path stroke="#0f312f" vector-effect="non-scaling-stroke" d="
  M 470.29 593.36
  L 480.48 601.54
  A 0.59 0.59 0.0 0 0 481.41 601.25
  L 487.61 581.30
  A 0.78 0.73 47.0 0 0 487.61 580.85
  L 480.22 557.34
  A 1.57 1.56 -3.4 0 0 479.00 556.26
  L 468.55 554.39"
/>
<path stroke="#265644" vector-effect="non-scaling-stroke" d="
  M 468.55 554.39
  Q 467.92 552.50 468.02 553.75"
/>
<path stroke="#827c69" vector-effect="non-scaling-stroke" d="
  M 468.02 553.75
  L 466.34 539.81
  Q 466.28 539.31 465.79 539.13
  Q 444.82 531.52 423.78 524.15
  Q 421.45 523.33 418.96 523.55
  C 395.88 525.61 372.84 526.47 349.80 529.21
  A 0.42 0.42 0.0 0 0 349.71 530.03
  L 356.24 532.30"
/>
<path stroke="#a1d29c" vector-effect="non-scaling-stroke" d="
  M 468.02 553.75
  Q 464.28 552.70 460.72 551.28
  C 430.43 539.18 397.00 538.00 365.10 533.24
  Q 360.80 532.59 356.24 532.30"
/>
<path stroke="#2e8762" vector-effect="non-scaling-stroke" d="
  M 468.55 554.39
  C 471.08 566.51 470.79 580.74 470.29 593.36"
/>
<path stroke="#265644" vector-effect="non-scaling-stroke" d="
  M 448.42 603.54
  C 444.97 593.13 438.28 586.15 429.72 579.80
  C 407.89 563.58 383.31 549.49 356.84 542.40"
/>
<path stroke="#0f312f" vector-effect="non-scaling-stroke" d="
  M 356.84 542.40
  Q 352.71 540.41 347.75 539.85
  Q 347.02 539.77 347.43 540.37
  Q 354.01 550.04 361.19 559.26
  C 378.44 581.44 395.07 605.35 408.76 622.50
  C 414.14 629.24 420.70 627.90 430.32 627.07
  Q 442.85 625.98 455.13 623.45
  Q 456.12 623.24 455.75 622.30
  L 448.42 603.54"
/>
<path stroke="#2e8762" vector-effect="non-scaling-stroke" d="
  M 356.84 542.40
  L 417.83 616.14
  Q 418.16 616.54 418.64 616.33
  L 448.42 603.54"
/>
<path stroke="#0f312f" vector-effect="non-scaling-stroke" d="
  M 563.40 585.01
  L 552.64 585.86
  Q 552.14 585.89 552.00 586.38
  Q 549.55 595.04 545.77 603.23
  C 544.82 605.31 545.35 606.60 545.99 608.56
  C 547.64 613.58 548.89 618.68 550.21 623.73
  Q 550.41 624.50 551.06 624.05
  L 560.83 617.33"
/>
<path stroke="#265644" vector-effect="non-scaling-stroke" d="
  M 560.83 617.33
  Q 603.75 590.74 652.81 575.38"
/>
<path stroke="#827c69" vector-effect="non-scaling-stroke" d="
  M 652.81 575.38
  L 671.08 570.72
  A 0.27 0.27 0.0 0 0 671.05 570.20
  C 648.73 567.15 625.94 564.89 604.05 562.15
  Q 601.56 561.84 599.15 562.54
  Q 582.27 567.49 565.39 572.74
  Q 564.90 572.90 564.84 573.40
  L 563.40 585.01"
/>
<path stroke="#a1d29c" vector-effect="non-scaling-stroke" d="
  M 652.81 575.38
  C 646.68 575.12 639.42 575.98 634.73 576.14
  C 609.87 577.00 586.18 579.20 563.24 585.68"
/>
<path stroke="#8aad87" vector-effect="non-scaling-stroke" d="
  M 563.24 585.68
  Q 563.17 584.67 563.40 585.01"
/>
<path stroke="#2e8762" vector-effect="non-scaling-stroke" d="
  M 560.83 617.33
  Q 560.18 602.72 562.25 589.00
  Q 562.50 587.37 563.24 585.68"
/>
<path stroke="#265644" vector-effect="non-scaling-stroke" d="
  M 662.45 581.12
  Q 640.62 585.77 620.61 595.92
  C 605.86 603.39 587.76 612.83 578.81 628.27"
/>
<path stroke="#0f312f" vector-effect="non-scaling-stroke" d="
  M 578.81 628.27
  L 570.72 644.15
  A 0.59 0.59 0.0 0 0 571.03 644.98
  Q 584.51 650.17 598.73 652.71
  C 601.20 653.15 603.94 652.80 605.57 651.07
  C 627.75 627.36 650.63 603.96 672.05 579.58
  Q 672.63 578.93 671.76 579.00
  Q 666.99 579.34 662.45 581.12"
/>
<path stroke="#2e8762" vector-effect="non-scaling-stroke" d="
  M 578.81 628.27
  Q 587.98 634.28 596.82 639.79
  C 597.98 640.52 599.48 642.17 600.97 643.01
  Q 601.50 643.32 601.95 642.89
  Q 631.33 614.55 660.59 586.09
  Q 662.50 584.23 663.97 581.94
  Q 664.33 581.37 663.67 581.28
  L 662.45 581.12"
/>
<path stroke="#5e3716" vector-effect="non-scaling-stroke" d="
  M 607.78 668.25
  C 612.19 676.90 618.05 684.89 622.75 692.95
  Q 628.40 702.63 635.16 711.66
  A 0.60 0.59 55.4 0 0 635.95 711.81
  C 648.75 703.72 660.90 692.90 672.96 683.62
  Q 673.47 683.23 673.30 682.62
  L 672.14 678.47
  Q 671.93 677.71 671.25 678.10
  C 659.07 685.12 648.89 695.06 637.57 703.29
  A 1.27 1.26 -34.8 0 1 635.77 702.97
  L 626.34 688.76"
/>
<path stroke="#827c69" vector-effect="non-scaling-stroke" d="
  M 626.34 688.76
  L 614.34 669.25
  A 2.13 2.12 53.6 0 1 614.74 666.54
  L 640.84 643.62
  A 1.18 1.16 32.3 0 1 641.94 643.38
  L 654.85 647.14
  Q 655.50 647.33 655.45 646.65
  L 655.11 642.02
  Q 655.07 641.45 654.52 641.30
  L 640.32 637.37
  Q 639.83 637.23 639.56 637.67
  L 639.29 638.14
  Q 639.02 638.59 638.62 638.94
  Q 622.96 652.75 607.14 666.42
  Q 606.38 667.07 607.78 668.25"
/>
<path stroke="#d9b36e" vector-effect="non-scaling-stroke" d="
  M 626.34 688.76
  Q 626.30 689.94 624.17 689.36
  A 1.14 1.13 -5.9 0 1 623.44 688.77
  Q 622.23 686.34 619.77 685.27
  A 1.48 1.48 0.0 0 1 619.08 684.64
  Q 616.36 679.94 610.88 669.91
  Q 609.56 667.51 607.78 668.25"
/>
<path stroke="#51011b" vector-effect="non-scaling-stroke" d="
  M 624.13 667.77
  C 627.35 677.18 633.24 686.56 638.60 695.28
  Q 638.85 695.70 639.19 695.35
  C 646.84 687.54 655.58 681.47 663.90 674.51"
/>
<path stroke="#827c69" vector-effect="non-scaling-stroke" d="
  M 663.90 674.51
  L 655.77 656.03
  Q 655.54 655.52 655.02 655.32
  L 643.08 650.93
  Q 642.71 650.79 642.43 651.05
  L 624.13 667.77"
/>
<path stroke="#cc7d73" vector-effect="non-scaling-stroke" d="
  M 663.90 674.51
  Q 662.63 674.60 662.42 674.02"
/>
<path stroke="#e68582" vector-effect="non-scaling-stroke" d="
  M 662.42 674.02
  Q 660.62 671.21 657.01 671.24
  Q 648.46 671.30 641.96 673.03"
/>
<path stroke="#cc7d73" vector-effect="non-scaling-stroke" d="
  M 641.96 673.03
  C 641.41 676.66 641.02 678.72 639.18 681.94
  A 0.26 0.26 0.0 0 1 638.71 681.74
  L 641.17 673.86
  A 1.23 1.21 -65.8 0 0 640.65 672.47
  Q 632.89 667.57 624.13 667.77"
/>
<path stroke="#b50a34" vector-effect="non-scaling-stroke" d="
  M 641.96 673.03
  Q 652.51 675.05 662.42 674.02"
/>
<path stroke="#827c69" vector-effect="non-scaling-stroke" d="
  M 537.37 670.35
  Q 528.79 673.95 521.00 680.76
  Q 498.94 700.04 485.04 725.73
  C 482.80 729.89 481.05 734.91 479.02 739.50"
/>
<path stroke="#754f26" vector-effect="non-scaling-stroke" d="
  M 479.02 739.50
  L 476.81 745.45"
/>
<path stroke="#5e3716" vector-effect="non-scaling-stroke" d="
  M 476.81 745.45
  Q 473.15 760.82 480.97 774.09
  Q 481.32 774.68 481.33 773.99
  Q 481.44 765.10 483.07 757.43"
/>
<path stroke="#754f26" vector-effect="non-scaling-stroke" d="
  M 483.07 757.43
  Q 486.74 745.73 494.49 733.73
  Q 513.61 704.10 540.69 685.12
  C 545.61 681.67 550.66 675.40 544.29 670.23
  Q 542.01 668.37 537.37 670.35"
/>
<path stroke="#cc862c" vector-effect="non-scaling-stroke" d="
  M 483.07 757.43
  L 480.05 746.42
  Q 479.89 745.84 479.32 746.02
  Q 477.86 746.48 476.81 745.45"
/>
<path stroke="#f0cb7f" vector-effect="non-scaling-stroke" d="
  M 479.02 739.50
  L 479.87 739.79
  Q 480.28 739.94 480.48 739.55
  C 480.94 738.62 481.38 737.47 482.03 736.67
  C 499.98 714.37 516.29 692.56 541.79 678.11
  Q 543.31 677.25 542.76 675.60
  Q 541.82 672.70 537.37 670.35"
/>
<path stroke="#5e3716" vector-effect="non-scaling-stroke" d="
  M 541.17 704.87
  Q 531.01 708.77 529.43 722.02
  Q 529.38 722.50 529.85 722.47
  Q 565.03 720.22 599.30 708.05
  Q 605.42 705.88 609.67 703.62
  Q 610.17 703.35 609.99 702.81
  L 608.03 697.09"
/>
<path stroke="#827c69" vector-effect="non-scaling-stroke" d="
  M 608.03 697.09
  L 603.76 688.18
  Q 603.52 687.68 603.01 687.90
  Q 573.66 700.77 541.17 704.87"
/>
<path stroke="#d9b36e" vector-effect="non-scaling-stroke" d="
  M 608.03 697.09
  C 600.92 699.57 593.46 702.64 586.83 704.66
  Q 562.89 711.98 537.99 715.29
  Q 537.44 715.36 537.62 714.84
  L 541.17 704.87"
/>
<path stroke="#754f26" vector-effect="non-scaling-stroke" d="
  M 524.25 814.07
  C 526.70 810.66 528.70 807.21 527.41 802.98
  C 521.21 782.66 514.95 762.48 509.25 742.09"
/>
<path stroke="#5e3716" vector-effect="non-scaling-stroke" d="
  M 509.25 742.09
  L 507.86 736.77
  Q 507.70 736.18 507.35 736.68
  C 503.31 742.41 496.02 753.56 498.15 760.78
  Q 507.34 791.94 518.31 822.81
  A 0.31 0.31 0.0 0 0 518.87 822.87
  L 524.25 814.07"
/>
<path stroke="#cc862c" vector-effect="non-scaling-stroke" d="
  M 509.25 742.09
  Q 508.25 743.54 509.12 745.67
  Q 509.30 746.13 509.13 746.59
  C 506.99 752.28 503.02 754.05 504.99 761.01
  Q 510.24 779.55 516.43 797.81
  Q 519.74 807.58 524.25 814.07"
/>
<path stroke="#827c69" vector-effect="non-scaling-stroke" d="
  M 546.89 779.77
  C 552.78 796.43 544.97 809.38 535.52 822.31
  Q 527.79 832.90 519.82 843.51"
/>
<path stroke="#754f26" vector-effect="non-scaling-stroke" d="
  M 519.82 843.51
  C 510.30 858.29 503.49 871.20 502.89 887.91
  Q 502.80 890.54 504.13 888.27
  Q 515.75 868.52 531.66 850.17
  Q 535.59 845.63 542.91 835.71
  C 552.16 823.15 557.70 815.95 560.21 802.84
  C 562.67 790.01 555.36 769.68 539.77 769.19
  Q 539.31 769.17 539.62 769.51
  Q 544.27 774.59 546.89 779.77"
/>
<path stroke="#f0cb7f" vector-effect="non-scaling-stroke" d="
  M 519.82 843.51
  Q 522.91 845.71 522.35 848.26
  A 0.30 0.29 71.7 0 0 522.86 848.52
  C 532.22 837.57 562.90 806.70 556.69 791.30
  Q 553.92 784.44 546.89 779.77"
/>
<path stroke="#51011b" vector-effect="non-scaling-stroke" d="
  M 261.74 467.00
  L 261.75 468.06
  Q 261.76 468.61 262.11 469.02
  L 278.89 488.46
  Q 279.32 488.95 279.73 488.44
  Q 288.11 478.13 298.01 469.31
  A 0.76 0.76 0.0 0 0 297.99 468.15
  L 295.19 465.88"
/>
<path stroke="#6b0929" vector-effect="non-scaling-stroke" d="
  M 295.19 465.88
  C 292.43 461.25 289.11 459.38 286.15 455.78
  Q 283.98 453.13 281.62 450.77"
/>
<path stroke="#827c69" vector-effect="non-scaling-stroke" d="
  M 281.62 450.77
  L 279.07 447.93
  Q 278.66 447.47 278.25 447.93
  L 261.20 466.57
  Q 260.76 467.05 261.42 467.02
  L 261.74 467.00"
/>
<path stroke="#e68582" vector-effect="non-scaling-stroke" d="
  M 281.62 450.77
  L 280.36 468.27"
/>
<path stroke="#cc7d73" vector-effect="non-scaling-stroke" d="
  M 280.36 468.27
  L 279.98 469.07
  Q 279.79 469.47 279.38 469.29
  C 274.04 466.88 267.20 464.84 261.74 467.00"
/>
<path stroke="#b50a34" vector-effect="non-scaling-stroke" d="
  M 295.19 465.88
  Q 289.34 468.34 282.74 468.65
  Q 282.28 468.67 281.88 468.45
  Q 281.21 468.06 280.36 468.27"
/>
<path stroke="#51011b" vector-effect="non-scaling-stroke" d="
  M 734.34 467.20
  Q 734.10 467.89 734.31 468.20
  Q 741.71 479.00 750.83 488.00
  A 0.99 0.99 0.0 0 0 752.29 487.93
  Q 754.78 484.95 757.31 481.85
  C 760.77 477.62 765.19 473.76 768.92 469.38
  Q 769.70 468.48 768.68 467.85
  Q 767.13 466.91 766.52 465.66"
/>
<path stroke="#827c69" vector-effect="non-scaling-stroke" d="
  M 766.52 465.66
  L 751.23 448.97
  A 1.12 1.11 -46.4 0 0 749.55 449.02
  Q 742.03 458.11 734.07 466.32
  Q 733.65 466.75 734.34 467.20"
/>
<path stroke="#cc7d73" vector-effect="non-scaling-stroke" d="
  M 766.52 465.66
  L 756.95 466.55
  Q 756.46 466.59 756.32 466.12
  L 752.07 451.36
  Q 752.01 451.17 751.83 451.07
  Q 751.58 450.93 751.43 450.85
  Q 751.32 450.79 751.35 450.91
  Q 753.32 459.26 753.90 467.82
  A 1.21 1.21 0.0 0 1 752.31 469.05
  C 746.48 467.10 740.37 464.42 734.34 467.20"
/>
</g>
<path fill="#070010" d="
  M 0.00 0.00
  L 1024.00 0.00
  L 1024.00 1024.00
  L 0.00 1024.00
  L 0.00 0.00
  Z
  M 421.63 197.31
  Q 416.18 208.71 414.17 220.30
  C 412.33 236.55 417.67 254.52 434.09 260.78
  A 0.73 0.72 84.5 0 0 434.96 259.72
  C 432.14 255.14 432.10 244.20 434.15 238.65
  C 441.98 217.43 459.07 203.43 481.26 199.65
  Q 486.00 198.84 490.78 198.06
  L 499.22 199.18
  Q 499.44 199.58 500.07 199.56
  Q 500.45 199.54 500.83 199.21
  Q 509.17 192.06 518.12 184.87
  Q 524.78 180.04 534.38 177.42
  Q 534.84 177.60 535.02 177.37
  Q 535.35 176.96 534.88 176.72
  C 529.35 173.95 524.36 171.42 518.20 168.86
  Q 498.73 160.77 482.30 147.56
  A 0.70 0.70 0.0 0 0 481.38 147.60
  C 464.20 164.43 445.80 178.39 426.72 192.45
  Q 424.29 194.24 421.63 197.31
  Z
  M 542.74 187.02
  Q 527.94 190.18 520.14 201.63
  Q 518.66 203.80 521.28 203.61
  C 540.61 202.20 562.39 195.69 580.45 206.72
  Q 589.42 214.00 593.04 224.74
  Q 594.01 227.60 593.68 238.49
  Q 593.65 239.21 594.26 238.82
  Q 601.14 234.30 607.99 229.69
  Q 612.75 226.48 611.90 220.27
  L 609.57 215.17
  C 602.90 201.79 596.64 190.53 595.10 175.24
  Q 595.05 174.71 594.56 174.95
  C 584.55 179.89 575.39 179.93 564.93 180.70
  Q 553.16 181.58 542.74 187.02
  Z
  M 461.04 256.63
  Q 463.21 267.27 473.02 273.01
  A 0.34 0.34 0.0 0 0 473.52 272.63
  C 472.28 267.73 471.27 262.28 471.52 257.41
  C 472.50 239.15 489.10 225.56 505.11 219.86
  A 0.75 0.74 -45.9 0 0 505.09 218.45
  L 504.72 218.33
  Q 506.76 218.38 507.82 217.46
  Q 508.30 217.05 507.75 216.73
  Q 494.00 208.86 479.93 216.20
  C 464.64 224.18 458.21 239.68 461.04 256.63
  Z
  M 534.93 223.89
  C 555.81 230.85 564.61 250.40 556.98 271.05
  Q 556.61 272.05 557.49 271.46
  Q 564.57 266.67 570.96 260.99
  A 1.07 1.05 66.5 0 0 571.31 260.08
  L 570.51 252.37
  C 572.30 230.47 555.62 213.55 533.51 222.30
  Q 532.55 222.68 533.44 223.57
  Q 533.69 223.82 534.93 223.89
  Z
  M 490.91 252.95
  C 483.60 271.95 501.75 287.41 519.00 288.71
  Q 519.65 288.76 519.25 288.25
  C 513.42 280.87 505.50 272.62 503.38 263.58
  C 499.05 245.10 533.57 243.67 531.13 263.17
  C 530.64 267.06 528.08 271.12 526.14 274.69
  A 0.81 0.80 -82.3 0 0 527.03 275.86
  Q 541.35 272.38 542.17 259.09
  C 541.96 227.81 498.02 222.14 490.91 252.95
  Z
  M 631.09 239.41
  L 628.77 248.94
  C 621.71 266.39 615.12 284.06 605.86 300.35
  A 0.32 0.31 4.2 0 0 606.25 300.80
  C 618.26 295.87 627.65 286.39 636.76 277.39
  A 0.28 0.28 0.0 0 1 637.19 277.73
  L 629.54 290.59
  A 0.34 0.33 10.9 0 0 629.88 291.09
  Q 645.83 288.71 659.09 297.70
  A 0.18 0.18 0.0 0 1 658.93 298.01
  C 651.29 295.10 638.05 293.52 632.70 301.45
  C 623.74 314.73 615.00 325.98 600.64 335.18
  Q 599.98 335.60 600.76 335.59
  C 616.83 335.34 629.73 335.11 644.22 343.42
  L 644.26 343.82
  A 0.91 0.91 0.0 0 0 644.61 344.45
  C 658.64 355.36 668.98 366.42 675.35 383.23
  Q 675.71 384.17 676.20 383.30
  Q 682.31 372.49 685.14 360.89
  C 689.57 342.75 686.55 323.33 696.33 306.24
  Q 702.88 299.55 710.78 293.88
  A 0.57 0.57 0.0 0 0 710.79 292.97
  Q 692.59 279.30 677.51 262.02
  Q 670.89 254.43 664.35 246.77
  Q 664.25 246.67 664.25 246.52
  Q 664.25 246.38 664.26 246.26
  Q 664.26 246.15 664.15 246.12
  L 632.97 237.85
  A 1.88 1.33 17.2 0 0 630.91 238.52
  Q 630.82 238.75 631.09 239.41
  Z
  M 320.58 287.73
  L 316.83 289.82
  A 0.71 0.71 0.0 0 0 316.71 290.99
  C 327.97 300.40 336.11 308.71 338.23 324.04
  Q 339.91 336.25 341.93 348.39
  C 342.67 352.84 344.11 356.25 345.95 360.31
  C 355.01 380.25 372.28 388.45 393.40 390.01
  Q 393.90 390.05 394.27 389.71
  C 408.09 377.49 428.31 371.53 446.42 371.13
  A 0.33 0.33 0.0 0 0 446.54 370.49
  L 437.82 366.79
  C 416.29 359.44 399.98 354.13 389.58 333.18
  C 386.12 326.20 382.07 317.37 374.27 310.98
  Q 368.58 306.32 363.09 302.90
  Q 361.29 301.77 363.34 302.30
  Q 377.35 305.91 390.76 311.99
  L 398.47 316.63
  A 0.18 0.18 0.0 0 0 398.72 316.39
  Q 390.03 300.31 386.47 282.44
  C 385.71 278.58 383.57 271.79 379.20 270.43
  Q 376.37 269.54 374.18 267.45
  A 0.75 0.74 -30.9 0 1 374.50 266.19
  C 376.98 265.50 379.11 264.90 381.79 264.79
  C 388.61 264.53 395.45 263.80 402.23 264.46
  A 0.80 0.80 0.0 0 0 403.07 263.40
  L 399.19 252.27
  L 396.81 240.58
  Q 396.70 240.04 396.25 240.36
  Q 396.06 240.49 395.99 240.79
  L 394.91 240.35
  A 1.06 1.02 46.2 0 0 394.21 240.32
  Q 380.67 244.42 366.53 245.17
  Q 366.01 245.19 365.67 245.59
  C 351.85 261.53 338.68 275.55 320.58 287.73
  Z
  M 606.75 250.38
  C 583.28 273.73 551.75 287.07 522.70 301.96
  C 506.83 310.10 491.12 320.15 482.20 336.04
  Q 464.70 362.42 476.26 391.65
  Q 476.65 392.64 476.88 391.60
  C 478.18 385.49 479.47 378.61 481.48 373.38
  C 490.96 348.73 510.50 335.00 534.00 323.49
  C 553.06 314.15 574.96 306.50 589.46 290.55
  C 600.39 278.54 607.91 260.41 612.43 244.79
  A 0.28 0.28 0.0 0 0 611.96 244.53
  L 606.75 250.38
  Z
  M 419.26 276.54
  L 420.74 277.39
  Q 431.53 281.95 440.02 290.14
  C 442.30 292.34 445.54 294.09 448.06 294.96
  C 459.70 299.00 471.99 301.46 482.54 307.94
  A 0.78 0.78 0.0 0 0 483.56 307.76
  C 486.87 303.58 491.26 301.37 495.45 298.22
  Q 495.88 297.90 495.65 297.42
  Q 495.05 296.20 493.94 295.39
  Q 462.49 282.62 439.82 275.15
  Q 425.92 270.57 409.35 268.30
  C 400.39 267.07 391.05 267.48 381.83 267.77
  C 380.20 267.82 378.40 266.98 376.50 267.31
  Q 375.82 267.42 376.33 267.89
  Q 377.31 268.79 378.44 268.83
  Q 399.75 269.53 419.26 276.54
  Z
  M 471.78 323.53
  Q 459.98 314.36 446.52 307.80
  A 0.35 0.35 0.0 0 0 446.01 308.11
  C 445.96 324.56 445.92 340.72 456.38 354.57
  A 0.64 0.64 0.0 0 0 457.52 354.26
  Q 459.61 337.24 471.88 325.49
  A 1.30 1.30 0.0 0 0 471.78 323.53
  Z
  M 577.89 320.27
  C 552.86 335.83 523.34 351.38 515.96 382.87
  Q 515.83 383.42 516.39 383.37
  C 537.08 381.21 555.40 367.74 568.14 351.76
  C 574.05 344.34 576.46 329.74 578.24 320.51
  A 0.23 0.23 0.0 0 0 577.89 320.27
  Z
  M 314.19 338.17
  Q 311.42 341.45 308.17 346.68
  Q 287.06 380.62 278.63 420.30
  Q 278.45 421.14 279.31 421.17
  Q 282.96 421.32 287.83 423.24
  L 292.32 426.47
  Q 292.80 426.81 292.91 426.24
  Q 300.17 390.24 319.07 358.77
  Q 321.68 354.43 324.17 349.92
  Q 324.42 349.46 324.32 348.94
  L 320.56 330.68
  Q 320.41 329.93 319.95 330.54
  L 314.19 338.17
  Z
  M 742.45 423.35
  Q 746.55 421.23 751.05 421.17
  Q 751.57 421.16 751.45 420.65
  C 744.18 388.82 731.76 358.87 710.93 333.24
  L 708.81 330.57
  Q 708.38 330.04 708.23 330.71
  L 704.31 347.38
  Q 704.20 347.87 704.48 348.28
  Q 728.82 383.73 737.81 425.88
  Q 737.96 426.56 738.52 426.16
  L 742.45 423.35
  Z
  M 539.98 423.11
  L 534.97 434.24
  A 0.38 0.38 0.0 0 0 535.39 434.77
  C 540.73 433.82 552.34 432.55 556.47 429.26
  Q 561.61 425.16 567.41 421.50
  C 598.26 408.34 629.46 398.92 663.07 408.66
  Q 663.81 408.87 663.54 408.15
  L 661.25 402.00
  C 655.73 385.49 645.63 369.67 630.57 360.77
  Q 626.61 357.80 621.29 356.68
  A 1.17 1.14 -55.6 0 0 620.38 356.86
  Q 599.87 370.59 579.39 384.36
  C 564.29 394.50 549.41 407.31 539.98 423.11
  Z
  M 445.30 386.69
  C 417.88 389.51 395.08 406.65 388.37 433.79
  Q 388.19 434.51 389.55 434.72
  C 404.65 439.34 414.76 457.24 417.03 471.84
  A 0.42 0.42 0.0 0 0 417.62 472.15
  C 431.77 465.42 443.90 462.28 461.09 458.94
  Q 475.79 456.08 490.25 452.14
  C 498.91 449.78 507.93 446.28 516.78 443.22
  Q 517.28 443.05 517.32 442.52
  Q 518.07 432.11 521.95 422.64
  C 526.78 410.82 537.92 399.86 547.60 391.38
  A 0.36 0.36 0.0 0 0 547.18 390.79
  C 546.36 391.27 545.68 391.86 544.79 392.20
  Q 531.46 397.31 518.74 401.82
  C 495.39 410.23 473.47 416.52 448.52 415.76
  C 444.03 415.62 439.81 426.97 439.05 430.36
  C 438.09 434.59 438.49 439.56 438.82 444.09
  A 0.15 0.15 0.0 0 1 438.53 444.15
  Q 433.66 428.96 437.23 413.56
  C 442.67 403.16 447.12 394.45 457.62 388.14
  Q 459.59 386.95 457.29 386.91
  L 445.30 386.69
  Z
  M 715.96 469.09
  L 750.44 503.76
  Q 750.85 504.17 751.30 503.80
  C 763.94 493.20 775.68 480.61 787.11 468.73
  A 0.56 0.56 0.0 0 0 787.11 467.95
  L 770.51 450.48
  L 751.30 431.00
  Q 750.91 430.61 750.52 431.00
  Q 732.86 449.20 715.62 467.37
  Q 715.17 467.83 715.23 468.24
  Q 715.30 468.78 715.96 469.09
  Z
  M 244.68 470.05
  Q 261.20 487.63 278.59 504.03
  A 0.78 0.78 0.0 0 0 279.68 504.02
  L 313.07 471.08
  L 315.84 468.45
  Q 316.32 468.00 315.86 467.53
  L 280.58 431.34
  A 1.56 1.56 0.0 0 0 278.35 431.34
  Q 261.04 448.92 243.77 466.53
  Q 242.71 467.61 243.00 468.33
  Q 243.32 469.14 244.68 470.05
  Z
  M 559.93 479.24
  L 559.50 479.92
  L 552.46 481.09
  A 0.71 0.71 0.0 0 0 551.87 481.71
  Q 550.96 490.50 548.51 499.00
  A 2.01 2.01 0.0 0 0 548.57 500.32
  L 553.37 512.32
  Q 553.57 512.83 553.90 512.40
  L 560.75 503.59
  Q 580.66 480.84 599.44 463.94
  Q 606.06 457.97 608.83 454.91
  L 617.14 448.63
  A 0.26 0.26 0.0 0 0 616.95 448.17
  Q 587.34 452.87 561.50 467.95
  A 1.96 1.94 -13.7 0 0 560.53 469.52
  L 559.93 479.24
  Z
  M 615.24 458.35
  Q 596.31 474.47 581.46 494.22
  Q 576.17 501.23 574.99 509.49
  L 573.73 523.20
  Q 573.68 523.76 574.24 523.73
  Q 588.20 523.10 601.71 519.63
  Q 602.15 519.52 602.35 519.11
  Q 603.47 516.72 604.14 514.17
  Q 611.14 487.73 617.84 461.21
  Q 618.49 458.66 619.26 456.07
  Q 619.50 455.23 618.80 455.75
  L 615.24 458.35
  Z
  M 491.08 465.26
  C 486.98 465.45 482.80 466.16 479.71 469.26
  Q 470.44 478.55 460.06 486.69
  A 0.14 0.14 0.0 0 0 460.17 486.94
  Q 479.84 483.50 494.34 469.49
  Q 497.71 467.31 499.77 463.75
  Q 500.12 463.15 499.44 463.31
  L 491.08 465.26
  Z
  M 517.22 537.27
  C 516.88 543.06 517.14 549.02 516.55 554.55
  Q 515.67 562.76 514.79 570.35
  C 508.59 602.83 501.05 634.81 493.89 667.20
  L 492.13 679.27
  L 491.33 693.23
  Q 491.30 693.79 491.67 693.37
  Q 505.08 678.38 508.40 673.62
  Q 509.47 672.09 509.69 667.43
  L 523.96 598.22
  L 527.53 576.51
  C 533.26 545.00 532.10 511.50 526.38 480.18
  Q 524.96 476.76 522.11 474.28
  Q 521.73 473.94 521.40 474.34
  L 514.38 482.72
  A 1.89 1.88 -28.4 0 0 513.95 484.14
  Q 517.02 510.63 517.22 537.27
  Z
  M 276.96 519.31
  C 279.34 531.21 283.20 549.39 288.79 562.34
  L 292.12 571.54
  Q 293.42 575.02 294.94 578.26
  Q 341.00 676.63 443.49 713.03
  Q 456.37 717.60 472.78 720.65
  Q 473.32 720.75 473.56 720.25
  L 475.97 715.23
  L 479.67 707.04
  Q 479.92 706.47 479.32 706.32
  Q 450.18 699.18 422.79 687.26
  C 351.80 654.45 301.75 588.27 290.85 510.60
  Q 290.74 509.85 290.10 510.25
  Q 283.90 514.15 276.57 514.34
  Q 276.01 514.36 276.12 514.91
  L 276.96 519.31
  Z
  M 674.58 656.07
  Q 675.17 658.82 676.16 659.75
  A 0.72 0.72 0.0 0 0 677.13 659.76
  C 720.19 621.57 745.47 571.10 753.98 514.46
  Q 754.06 513.89 753.49 513.86
  L 747.98 513.54
  Q 743.54 512.88 739.80 510.54
  Q 739.38 510.27 739.33 510.76
  C 733.59 560.26 707.40 612.34 670.00 645.46
  Q 669.60 645.81 669.83 646.28
  L 674.58 656.07
  Z
  M 356.24 532.30
  Q 370.40 538.41 384.25 544.37
  C 414.65 557.43 443.22 573.77 470.29 593.36
  L 480.48 601.54
  A 0.59 0.59 0.0 0 0 481.41 601.25
  L 487.61 581.30
  A 0.78 0.73 47.0 0 0 487.61 580.85
  L 480.22 557.34
  A 1.57 1.56 -3.4 0 0 479.00 556.26
  L 468.55 554.39
  Q 467.92 552.50 468.02 553.75
  L 466.34 539.81
  Q 466.28 539.31 465.79 539.13
  Q 444.82 531.52 423.78 524.15
  Q 421.45 523.33 418.96 523.55
  C 395.88 525.61 372.84 526.47 349.80 529.21
  A 0.42 0.42 0.0 0 0 349.71 530.03
  L 356.24 532.30
  Z
  M 448.42 603.54
  C 444.97 593.13 438.28 586.15 429.72 579.80
  C 407.89 563.58 383.31 549.49 356.84 542.40
  Q 352.71 540.41 347.75 539.85
  Q 347.02 539.77 347.43 540.37
  Q 354.01 550.04 361.19 559.26
  C 378.44 581.44 395.07 605.35 408.76 622.50
  C 414.14 629.24 420.70 627.90 430.32 627.07
  Q 442.85 625.98 455.13 623.45
  Q 456.12 623.24 455.75 622.30
  L 448.42 603.54
  Z
  M 563.40 585.01
  L 552.64 585.86
  Q 552.14 585.89 552.00 586.38
  Q 549.55 595.04 545.77 603.23
  C 544.82 605.31 545.35 606.60 545.99 608.56
  C 547.64 613.58 548.89 618.68 550.21 623.73
  Q 550.41 624.50 551.06 624.05
  L 560.83 617.33
  Q 603.75 590.74 652.81 575.38
  L 671.08 570.72
  A 0.27 0.27 0.0 0 0 671.05 570.20
  C 648.73 567.15 625.94 564.89 604.05 562.15
  Q 601.56 561.84 599.15 562.54
  Q 582.27 567.49 565.39 572.74
  Q 564.90 572.90 564.84 573.40
  L 563.40 585.01
  Z
  M 662.45 581.12
  Q 640.62 585.77 620.61 595.92
  C 605.86 603.39 587.76 612.83 578.81 628.27
  L 570.72 644.15
  A 0.59 0.59 0.0 0 0 571.03 644.98
  Q 584.51 650.17 598.73 652.71
  C 601.20 653.15 603.94 652.80 605.57 651.07
  C 627.75 627.36 650.63 603.96 672.05 579.58
  Q 672.63 578.93 671.76 579.00
  Q 666.99 579.34 662.45 581.12
  Z
  M 607.78 668.25
  C 612.19 676.90 618.05 684.89 622.75 692.95
  Q 628.40 702.63 635.16 711.66
  A 0.60 0.59 55.4 0 0 635.95 711.81
  C 648.75 703.72 660.90 692.90 672.96 683.62
  Q 673.47 683.23 673.30 682.62
  L 672.14 678.47
  Q 671.93 677.71 671.25 678.10
  C 659.07 685.12 648.89 695.06 637.57 703.29
  A 1.27 1.26 -34.8 0 1 635.77 702.97
  L 626.34 688.76
  L 614.34 669.25
  A 2.13 2.12 53.6 0 1 614.74 666.54
  L 640.84 643.62
  A 1.18 1.16 32.3 0 1 641.94 643.38
  L 654.85 647.14
  Q 655.50 647.33 655.45 646.65
  L 655.11 642.02
  Q 655.07 641.45 654.52 641.30
  L 640.32 637.37
  Q 639.83 637.23 639.56 637.67
  L 639.29 638.14
  Q 639.02 638.59 638.62 638.94
  Q 622.96 652.75 607.14 666.42
  Q 606.38 667.07 607.78 668.25
  Z
  M 624.13 667.77
  C 627.35 677.18 633.24 686.56 638.60 695.28
  Q 638.85 695.70 639.19 695.35
  C 646.84 687.54 655.58 681.47 663.90 674.51
  L 655.77 656.03
  Q 655.54 655.52 655.02 655.32
  L 643.08 650.93
  Q 642.71 650.79 642.43 651.05
  L 624.13 667.77
  Z
  M 537.37 670.35
  Q 528.79 673.95 521.00 680.76
  Q 498.94 700.04 485.04 725.73
  C 482.80 729.89 481.05 734.91 479.02 739.50
  L 476.81 745.45
  Q 473.15 760.82 480.97 774.09
  Q 481.32 774.68 481.33 773.99
  Q 481.44 765.10 483.07 757.43
  Q 486.74 745.73 494.49 733.73
  Q 513.61 704.10 540.69 685.12
  C 545.61 681.67 550.66 675.40 544.29 670.23
  Q 542.01 668.37 537.37 670.35
  Z
  M 541.17 704.87
  Q 531.01 708.77 529.43 722.02
  Q 529.38 722.50 529.85 722.47
  Q 565.03 720.22 599.30 708.05
  Q 605.42 705.88 609.67 703.62
  Q 610.17 703.35 609.99 702.81
  L 608.03 697.09
  L 603.76 688.18
  Q 603.52 687.68 603.01 687.90
  Q 573.66 700.77 541.17 704.87
  Z
  M 524.25 814.07
  C 526.70 810.66 528.70 807.21 527.41 802.98
  C 521.21 782.66 514.95 762.48 509.25 742.09
  L 507.86 736.77
  Q 507.70 736.18 507.35 736.68
  C 503.31 742.41 496.02 753.56 498.15 760.78
  Q 507.34 791.94 518.31 822.81
  A 0.31 0.31 0.0 0 0 518.87 822.87
  L 524.25 814.07
  Z
  M 546.89 779.77
  C 552.78 796.43 544.97 809.38 535.52 822.31
  Q 527.79 832.90 519.82 843.51
  C 510.30 858.29 503.49 871.20 502.89 887.91
  Q 502.80 890.54 504.13 888.27
  Q 515.75 868.52 531.66 850.17
  Q 535.59 845.63 542.91 835.71
  C 552.16 823.15 557.70 815.95 560.21 802.84
  C 562.67 790.01 555.36 769.68 539.77 769.19
  Q 539.31 769.17 539.62 769.51
  Q 544.27 774.59 546.89 779.77
  Z"
/>
<path fill="#fdf8c1" d="
  M 534.38 177.42
  Q 526.11 176.83 520.04 173.86
  Q 519.70 173.69 519.74 174.06
  L 520.45 180.28
  A 1.30 1.29 7.6 0 1 518.68 181.63
  C 506.39 176.73 494.78 172.46 482.97 166.64
  Q 482.52 166.41 482.18 166.79
  Q 480.25 168.94 478.53 170.29
  C 464.18 181.58 447.89 192.42 433.23 205.49
  C 431.17 207.32 429.06 209.95 426.80 212.06
  Q 426.01 212.79 426.38 211.79
  Q 429.10 204.37 434.05 198.27
  Q 434.32 197.93 433.89 197.91
  L 421.63 197.31
  Q 424.29 194.24 426.72 192.45
  C 445.80 178.39 464.20 164.43 481.38 147.60
  A 0.70 0.70 0.0 0 1 482.30 147.56
  Q 498.73 160.77 518.20 168.86
  C 524.36 171.42 529.35 173.95 534.88 176.72
  Q 535.35 176.96 535.02 177.37
  Q 534.84 177.60 534.38 177.42
  Z"
/>
<path fill="#cf1142" d="
  M 534.38 177.42
  Q 524.78 180.04 518.12 184.87
  Q 510.25 188.83 503.92 195.03
  A 1.93 1.93 0.0 0 1 503.00 195.53
  Q 500.46 196.09 500.21 198.74
  A 0.55 0.53 -19.3 0 1 500.04 199.08
  Q 499.67 199.42 499.22 199.18
  L 490.78 198.06
  C 470.66 197.16 450.85 205.04 439.75 221.91
  C 435.67 228.12 432.61 235.12 429.27 241.65
  A 2.12 2.12 0.0 0 1 426.01 242.30
  C 419.48 236.73 416.33 228.39 414.17 220.30
  Q 416.18 208.71 421.63 197.31
  L 433.89 197.91
  Q 434.32 197.93 434.05 198.27
  Q 429.10 204.37 426.38 211.79
  Q 426.01 212.79 426.80 212.06
  C 429.06 209.95 431.17 207.32 433.23 205.49
  C 447.89 192.42 464.18 181.58 478.53 170.29
  Q 480.25 168.94 482.18 166.79
  Q 482.52 166.41 482.97 166.64
  C 494.78 172.46 506.39 176.73 518.68 181.63
  A 1.30 1.29 7.6 0 0 520.45 180.28
  L 519.74 174.06
  Q 519.70 173.69 520.04 173.86
  Q 526.11 176.83 534.38 177.42
  Z"
/>
<path fill="#fdf8c1" d="
  M 609.57 215.17
  Q 609.28 215.27 609.05 215.26
  Q 608.83 215.24 608.62 214.99
  Q 597.61 202.00 592.90 185.65
  Q 592.77 185.20 592.30 185.28
  Q 581.31 187.32 570.20 187.83
  C 556.41 188.45 547.33 189.57 535.83 193.51
  A 0.30 0.30 0.0 0 1 535.54 192.99
  L 542.74 187.02
  Q 553.16 181.58 564.93 180.70
  C 575.39 179.93 584.55 179.89 594.56 174.95
  Q 595.05 174.71 595.10 175.24
  C 596.64 190.53 602.90 201.79 609.57 215.17
  Z"
/>
<path fill="#9b0225" d="
  M 518.12 184.87
  Q 509.17 192.06 500.83 199.21
  Q 500.45 199.54 500.07 199.56
  Q 499.44 199.58 499.22 199.18
  Q 499.67 199.42 500.04 199.08
  A 0.55 0.53 -19.3 0 0 500.21 198.74
  Q 500.46 196.09 503.00 195.53
  A 1.93 1.93 0.0 0 0 503.92 195.03
  Q 510.25 188.83 518.12 184.87
  Z"
/>
<path fill="#cf1142" d="
  M 609.57 215.17
  L 611.90 220.27
  L 597.44 225.43
  Q 596.91 225.62 596.75 225.08
  C 594.16 216.54 589.34 209.40 580.45 206.72
  C 562.39 195.69 540.61 202.20 521.28 203.61
  Q 518.66 203.80 520.14 201.63
  Q 527.94 190.18 542.74 187.02
  L 535.54 192.99
  A 0.30 0.30 0.0 0 0 535.83 193.51
  C 547.33 189.57 556.41 188.45 570.20 187.83
  Q 581.31 187.32 592.30 185.28
  Q 592.77 185.20 592.90 185.65
  Q 597.61 202.00 608.62 214.99
  Q 608.83 215.24 609.05 215.26
  Q 609.28 215.27 609.57 215.17
  Z"
/>
<path fill="#9b0225" d="
  M 490.78 198.06
  Q 486.00 198.84 481.26 199.65
  C 459.07 203.43 441.98 217.43 434.15 238.65
  C 432.10 244.20 432.14 255.14 434.96 259.72
  A 0.73 0.72 84.5 0 1 434.09 260.78
  C 417.67 254.52 412.33 236.55 414.17 220.30
  C 416.33 228.39 419.48 236.73 426.01 242.30
  A 2.12 2.12 0.0 0 0 429.27 241.65
  C 432.61 235.12 435.67 228.12 439.75 221.91
  C 450.85 205.04 470.66 197.16 490.78 198.06
  Z"
/>
<path fill="#9b0225" d="
  M 580.45 206.72
  C 589.34 209.40 594.16 216.54 596.75 225.08
  Q 596.91 225.62 597.44 225.43
  L 611.90 220.27
  Q 612.75 226.48 607.99 229.69
  Q 601.14 234.30 594.26 238.82
  Q 593.65 239.21 593.68 238.49
  Q 594.01 227.60 593.04 224.74
  Q 589.42 214.00 580.45 206.72
  Z"
/>
<path fill="#fdf8c1" d="
  M 504.72 218.33
  Q 495.53 220.10 492.75 221.00
  C 477.25 226.03 468.73 240.36 464.57 255.40
  Q 464.43 255.91 463.96 256.13
  Q 462.89 256.63 461.04 256.63
  C 458.21 239.68 464.64 224.18 479.93 216.20
  Q 494.00 208.86 507.75 216.73
  Q 508.30 217.05 507.82 217.46
  Q 506.76 218.38 504.72 218.33
  Z"
/>
<path fill="#9b0225" d="
  M 504.72 218.33
  L 505.09 218.45
  A 0.75 0.74 -45.9 0 1 505.11 219.86
  C 489.10 225.56 472.50 239.15 471.52 257.41
  C 471.27 262.28 472.28 267.73 473.52 272.63
  A 0.34 0.34 0.0 0 1 473.02 273.01
  Q 463.21 267.27 461.04 256.63
  Q 462.89 256.63 463.96 256.13
  Q 464.43 255.91 464.57 255.40
  C 468.73 240.36 477.25 226.03 492.75 221.00
  Q 495.53 220.10 504.72 218.33
  Z"
/>
<path fill="#fdf8c1" d="
  M 570.51 252.37
  C 564.26 237.34 554.93 224.09 539.05 221.62
  Q 536.30 221.19 534.93 223.89
  Q 533.69 223.82 533.44 223.57
  Q 532.55 222.68 533.51 222.30
  C 555.62 213.55 572.30 230.47 570.51 252.37
  Z"
/>
<path fill="#cf1142" d="
  M 570.51 252.37
  L 571.31 260.08
  A 1.07 1.05 66.5 0 1 570.96 260.99
  Q 564.57 266.67 557.49 271.46
  Q 556.61 272.05 556.98 271.05
  C 564.61 250.40 555.81 230.85 534.93 223.89
  Q 536.30 221.19 539.05 221.62
  C 554.93 224.09 564.26 237.34 570.51 252.37
  Z"
/>
<path fill="#cf1142" d="
  M 542.17 259.09
  Q 537.51 245.12 525.78 243.76
  C 511.84 242.14 501.89 250.51 494.43 261.31
  Q 492.75 263.75 492.26 260.83
  L 490.91 252.95
  C 498.02 222.14 541.96 227.81 542.17 259.09
  Z"
/>
<path fill="#cf1142" d="
  M 696.33 306.24
  Q 685.26 309.88 682.11 323.17
  C 679.84 332.77 679.03 342.58 676.94 352.23
  C 676.15 355.90 674.58 359.51 673.30 363.03
  Q 672.83 364.32 671.90 363.30
  Q 659.78 349.85 644.22 343.42
  C 629.73 335.11 616.83 335.34 600.76 335.59
  Q 599.98 335.60 600.64 335.18
  C 615.00 325.98 623.74 314.73 632.70 301.45
  C 638.05 293.52 651.29 295.10 658.93 298.01
  A 0.18 0.18 0.0 0 0 659.09 297.70
  Q 645.83 288.71 629.88 291.09
  A 0.34 0.33 10.9 0 1 629.54 290.59
  L 637.19 277.73
  A 0.28 0.28 0.0 0 0 636.76 277.39
  C 627.65 286.39 618.26 295.87 606.25 300.80
  A 0.32 0.31 4.2 0 1 605.86 300.35
  C 615.12 284.06 621.71 266.39 628.77 248.94
  Q 652.53 255.39 669.09 273.02
  A 0.24 0.23 12.2 0 0 669.48 272.77
  L 659.27 248.62
  A 2.20 2.19 -2.9 0 0 657.89 247.38
  L 631.09 239.41
  Q 630.82 238.75 630.91 238.52
  A 1.88 1.33 17.2 0 1 632.97 237.85
  L 664.15 246.12
  Q 664.26 246.15 664.26 246.26
  Q 664.25 246.38 664.25 246.52
  Q 664.25 246.67 664.35 246.77
  Q 670.89 254.43 677.51 262.02
  Q 692.59 279.30 710.79 292.97
  A 0.57 0.57 0.0 0 1 710.78 293.88
  Q 702.88 299.55 696.33 306.24
  Z"
/>
<path fill="#fdf8c1" d="
  M 631.09 239.41
  L 657.89 247.38
  A 2.20 2.19 -2.9 0 1 659.27 248.62
  L 669.48 272.77
  A 0.24 0.23 12.2 0 1 669.09 273.02
  Q 652.53 255.39 628.77 248.94
  L 631.09 239.41
  Z"
/>
<path fill="#cf1142" d="
  M 395.99 240.79
  C 395.62 242.83 393.60 242.40 392.32 242.73
  Q 380.81 245.78 369.05 247.52
  A 0.75 0.74 4.4 0 0 368.45 248.03
  Q 367.27 251.75 364.03 256.30
  C 354.69 269.42 344.66 279.68 330.98 287.12
  Q 330.51 287.38 331.05 287.37
  C 346.81 287.15 363.88 272.28 377.37 261.43
  C 383.30 256.66 392.00 254.43 399.19 252.27
  L 403.07 263.40
  A 0.80 0.80 0.0 0 1 402.23 264.46
  C 395.45 263.80 388.61 264.53 381.79 264.79
  C 379.11 264.90 376.98 265.50 374.50 266.19
  A 0.75 0.74 -30.9 0 0 374.18 267.45
  Q 376.37 269.54 379.20 270.43
  Q 381.68 280.90 383.97 291.26
  Q 385.14 296.58 390.76 311.99
  Q 377.35 305.91 363.34 302.30
  Q 361.29 301.77 363.09 302.90
  Q 368.58 306.32 374.27 310.98
  C 382.07 317.37 386.12 326.20 389.58 333.18
  C 399.98 354.13 416.29 359.44 437.82 366.79
  C 426.83 370.25 415.29 370.75 403.19 376.22
  C 394.89 379.96 391.06 381.02 382.75 378.99
  C 364.60 374.54 354.27 360.22 350.78 342.50
  C 349.60 336.52 348.97 327.71 347.32 321.59
  Q 344.39 310.76 337.90 301.83
  Q 331.67 293.27 320.58 287.73
  C 338.68 275.55 351.85 261.53 365.67 245.59
  Q 366.01 245.19 366.53 245.17
  Q 380.67 244.42 394.21 240.32
  A 1.06 1.02 46.2 0 1 394.91 240.35
  L 395.99 240.79
  Z"
/>
<path fill="#fdf8c1" d="
  M 399.19 252.27
  C 392.00 254.43 383.30 256.66 377.37 261.43
  C 363.88 272.28 346.81 287.15 331.05 287.37
  Q 330.51 287.38 330.98 287.12
  C 344.66 279.68 354.69 269.42 364.03 256.30
  Q 367.27 251.75 368.45 248.03
  A 0.75 0.74 4.4 0 1 369.05 247.52
  Q 380.81 245.78 392.32 242.73
  C 393.60 242.40 395.62 242.83 395.99 240.79
  Q 396.06 240.49 396.25 240.36
  Q 396.70 240.04 396.81 240.58
  L 399.19 252.27
  Z"
/>
<path fill="#9b0225" d="
  M 542.17 259.09
  Q 541.35 272.38 527.03 275.86
  A 0.81 0.80 -82.3 0 1 526.14 274.69
  C 528.08 271.12 530.64 267.06 531.13 263.17
  C 533.57 243.67 499.05 245.10 503.38 263.58
  C 505.50 272.62 513.42 280.87 519.25 288.25
  Q 519.65 288.76 519.00 288.71
  C 501.75 287.41 483.60 271.95 490.91 252.95
  L 492.26 260.83
  Q 492.75 263.75 494.43 261.31
  C 501.89 250.51 511.84 242.14 525.78 243.76
  Q 537.51 245.12 542.17 259.09
  Z"
/>
<path fill="#9b0225" d="
  M 482.20 336.04
  L 478.13 353.11
  A 0.31 0.31 0.0 0 0 478.71 353.33
  C 488.29 335.11 503.94 323.97 521.94 314.94
  C 553.92 298.91 588.26 286.49 604.97 253.15
  A 1.97 1.89 -5.2 0 1 605.61 252.41
  Q 607.54 251.11 606.75 250.38
  L 611.96 244.53
  A 0.28 0.28 0.0 0 1 612.43 244.79
  C 607.91 260.41 600.39 278.54 589.46 290.55
  C 574.96 306.50 553.06 314.15 534.00 323.49
  C 510.50 335.00 490.96 348.73 481.48 373.38
  C 479.47 378.61 478.18 385.49 476.88 391.60
  Q 476.65 392.64 476.26 391.65
  Q 464.70 362.42 482.20 336.04
  Z"
/>
<path fill="#fdf8c1" d="
  M 606.75 250.38
  Q 607.54 251.11 605.61 252.41
  A 1.97 1.89 -5.2 0 0 604.97 253.15
  C 588.26 286.49 553.92 298.91 521.94 314.94
  C 503.94 323.97 488.29 335.11 478.71 353.33
  A 0.31 0.31 0.0 0 1 478.13 353.11
  L 482.20 336.04
  C 491.12 320.15 506.83 310.10 522.70 301.96
  C 551.75 287.07 583.28 273.73 606.75 250.38
  Z"
/>
<path fill="#fdf8c1" d="
  M 493.94 295.39
  C 490.06 296.29 485.43 297.91 481.51 297.06
  C 461.34 292.72 444.13 285.75 421.79 276.87
  Q 420.91 276.06 419.26 276.54
  Q 399.75 269.53 378.44 268.83
  Q 377.31 268.79 376.33 267.89
  Q 375.82 267.42 376.50 267.31
  C 378.40 266.98 380.20 267.82 381.83 267.77
  C 391.05 267.48 400.39 267.07 409.35 268.30
  Q 425.92 270.57 439.82 275.15
  Q 462.49 282.62 493.94 295.39
  Z"
/>
<path fill="#9b0225" d="
  M 379.20 270.43
  C 383.57 271.79 385.71 278.58 386.47 282.44
  Q 390.03 300.31 398.72 316.39
  A 0.18 0.18 0.0 0 1 398.47 316.63
  L 390.76 311.99
  Q 385.14 296.58 383.97 291.26
  Q 381.68 280.90 379.20 270.43
  Z"
/>
<path fill="#e29d3c" d="
  M 421.79 276.87
  Q 421.45 277.24 420.74 277.39
  L 419.26 276.54
  Q 420.91 276.06 421.79 276.87
  Z"
/>
<path fill="#cf1142" d="
  M 421.79 276.87
  C 444.13 285.75 461.34 292.72 481.51 297.06
  C 485.43 297.91 490.06 296.29 493.94 295.39
  Q 495.05 296.20 495.65 297.42
  Q 495.88 297.90 495.45 298.22
  C 491.26 301.37 486.87 303.58 483.56 307.76
  A 0.78 0.78 0.0 0 1 482.54 307.94
  C 471.99 301.46 459.70 299.00 448.06 294.96
  C 445.54 294.09 442.30 292.34 440.02 290.14
  Q 431.53 281.95 420.74 277.39
  Q 421.45 277.24 421.79 276.87
  Z"
/>
<path fill="#9b0225" d="
  M 320.58 287.73
  Q 331.67 293.27 337.90 301.83
  Q 344.39 310.76 347.32 321.59
  C 348.97 327.71 349.60 336.52 350.78 342.50
  C 354.27 360.22 364.60 374.54 382.75 378.99
  C 391.06 381.02 394.89 379.96 403.19 376.22
  C 415.29 370.75 426.83 370.25 437.82 366.79
  L 446.54 370.49
  A 0.33 0.33 0.0 0 1 446.42 371.13
  C 428.31 371.53 408.09 377.49 394.27 389.71
  Q 393.90 390.05 393.40 390.01
  C 372.28 388.45 355.01 380.25 345.95 360.31
  C 344.11 356.25 342.67 352.84 341.93 348.39
  Q 339.91 336.25 338.23 324.04
  C 336.11 308.71 327.97 300.40 316.71 290.99
  A 0.71 0.71 0.0 0 1 316.83 289.82
  L 320.58 287.73
  Z"
/>
<path fill="#9b0225" d="
  M 696.33 306.24
  C 686.55 323.33 689.57 342.75 685.14 360.89
  Q 682.31 372.49 676.20 383.30
  Q 675.71 384.17 675.35 383.23
  C 668.98 366.42 658.64 355.36 644.61 344.45
  A 0.91 0.91 0.0 0 1 644.26 343.82
  L 644.22 343.42
  Q 659.78 349.85 671.90 363.30
  Q 672.83 364.32 673.30 363.03
  C 674.58 359.51 676.15 355.90 676.94 352.23
  C 679.03 342.58 679.84 332.77 682.11 323.17
  Q 685.26 309.88 696.33 306.24
  Z"
/>
<path fill="#9b0225" d="
  M 471.78 323.53
  A 1.30 1.30 0.0 0 1 471.88 325.49
  Q 459.61 337.24 457.52 354.26
  A 0.64 0.64 0.0 0 1 456.38 354.57
  C 445.92 340.72 445.96 324.56 446.01 308.11
  A 0.35 0.35 0.0 0 1 446.52 307.80
  Q 459.98 314.36 471.78 323.53
  Z"
/>
<path fill="#9b0225" d="
  M 515.96 382.87
  C 523.34 351.38 552.86 335.83 577.89 320.27
  A 0.23 0.23 0.0 0 1 578.24 320.51
  C 576.46 329.74 574.05 344.34 568.14 351.76
  C 555.40 367.74 537.08 381.21 516.39 383.37
  Q 515.83 383.42 515.96 382.87
  Z"
/>
<path fill="#e29d3c" d="
  M 287.83 423.24
  Q 289.69 417.09 291.23 410.93
  C 296.67 389.28 306.39 368.24 317.93 349.18
  A 3.08 3.07 47.8 0 0 318.07 346.26
  L 314.19 338.17
  L 319.95 330.54
  Q 320.41 329.93 320.56 330.68
  L 324.32 348.94
  Q 324.42 349.46 324.17 349.92
  Q 321.68 354.43 319.07 358.77
  Q 300.17 390.24 292.91 426.24
  Q 292.80 426.81 292.32 426.47
  L 287.83 423.24
  Z"
/>
<path fill="#b56e1b" d="
  M 710.93 333.24
  Q 711.23 339.06 709.90 343.81
  C 709.49 345.28 709.72 347.33 710.54 348.67
  Q 719.51 363.47 721.97 368.01
  C 731.15 384.93 737.20 404.08 742.45 423.35
  L 738.52 426.16
  Q 737.96 426.56 737.81 425.88
  Q 728.82 383.73 704.48 348.28
  Q 704.20 347.87 704.31 347.38
  L 708.23 330.71
  Q 708.38 330.04 708.81 330.57
  L 710.93 333.24
  Z"
/>
<path fill="#e29d3c" d="
  M 710.93 333.24
  C 731.76 358.87 744.18 388.82 751.45 420.65
  Q 751.57 421.16 751.05 421.17
  Q 746.55 421.23 742.45 423.35
  C 737.20 404.08 731.15 384.93 721.97 368.01
  Q 719.51 363.47 710.54 348.67
  C 709.72 347.33 709.49 345.28 709.90 343.81
  Q 711.23 339.06 710.93 333.24
  Z"
/>
<path fill="#fdf8c1" d="
  M 314.19 338.17
  L 318.07 346.26
  A 3.08 3.07 47.8 0 1 317.93 349.18
  C 306.39 368.24 296.67 389.28 291.23 410.93
  Q 289.69 417.09 287.83 423.24
  Q 282.96 421.32 279.31 421.17
  Q 278.45 421.14 278.63 420.30
  Q 287.06 380.62 308.17 346.68
  Q 311.42 341.45 314.19 338.17
  Z"
/>
<path fill="#cf1142" d="
  M 630.57 360.77
  C 636.81 366.15 645.20 374.06 647.96 381.75
  A 1.62 1.62 0.0 0 1 646.65 383.91
  Q 618.89 387.77 593.99 399.75
  Q 591.33 401.04 588.83 402.69
  A 0.15 0.15 0.0 0 0 588.86 402.96
  Q 589.07 403.04 589.24 402.97
  C 608.96 394.06 642.78 386.53 661.25 402.00
  L 663.54 408.15
  Q 663.81 408.87 663.07 408.66
  C 629.46 398.92 598.26 408.34 567.41 421.50
  L 539.98 423.11
  C 549.41 407.31 564.29 394.50 579.39 384.36
  Q 599.87 370.59 620.38 356.86
  A 1.17 1.14 -55.6 0 1 621.29 356.68
  Q 626.61 357.80 630.57 360.77
  Z"
/>
<path fill="#fdf8c1" d="
  M 630.57 360.77
  C 645.63 369.67 655.73 385.49 661.25 402.00
  C 642.78 386.53 608.96 394.06 589.24 402.97
  Q 589.07 403.04 588.86 402.96
  A 0.15 0.15 0.0 0 1 588.83 402.69
  Q 591.33 401.04 593.99 399.75
  Q 618.89 387.77 646.65 383.91
  A 1.62 1.62 0.0 0 0 647.96 381.75
  C 645.20 374.06 636.81 366.15 630.57 360.77
  Z"
/>
<path fill="#9b0225" d="
  M 437.23 413.56
  Q 438.11 399.12 445.30 386.69
  L 457.29 386.91
  Q 459.59 386.95 457.62 388.14
  C 447.12 394.45 442.67 403.16 437.23 413.56
  Z"
/>
<path fill="#cf1142" d="
  M 445.30 386.69
  Q 438.11 399.12 437.23 413.56
  Q 433.66 428.96 438.53 444.15
  A 0.15 0.15 0.0 0 0 438.82 444.09
  C 438.49 439.56 438.09 434.59 439.05 430.36
  C 439.81 426.97 444.03 415.62 448.52 415.76
  C 473.47 416.52 495.39 410.23 518.74 401.82
  C 516.74 414.64 508.24 426.15 498.83 434.54
  C 486.84 445.23 470.49 449.57 454.49 451.97
  C 442.82 453.73 434.61 454.09 426.26 459.07
  Q 425.75 459.37 425.60 458.80
  C 421.99 445.48 415.16 438.32 405.27 426.85
  Q 405.21 426.78 405.13 426.78
  Q 404.97 426.77 404.80 426.74
  Q 404.52 426.69 404.51 426.41
  L 404.49 425.72
  L 409.42 425.96
  A 0.92 0.92 0.0 0 0 410.32 425.38
  Q 416.04 410.74 426.73 399.20
  A 0.36 0.36 0.0 0 0 426.33 398.63
  C 413.29 404.20 406.32 413.11 398.59 425.88
  C 394.72 427.96 390.63 429.59 389.55 434.72
  Q 388.19 434.51 388.37 433.79
  C 395.08 406.65 417.88 389.51 445.30 386.69
  Z"
/>
<path fill="#9b0225" d="
  M 389.55 434.72
  C 390.63 429.59 394.72 427.96 398.59 425.88
  L 404.49 425.72
  L 404.51 426.41
  Q 404.52 426.69 404.80 426.74
  Q 404.97 426.77 405.13 426.78
  Q 405.21 426.78 405.27 426.85
  C 415.16 438.32 421.99 445.48 425.60 458.80
  Q 425.75 459.37 426.26 459.07
  C 434.61 454.09 442.82 453.73 454.49 451.97
  C 470.49 449.57 486.84 445.23 498.83 434.54
  C 508.24 426.15 516.74 414.64 518.74 401.82
  Q 531.46 397.31 544.79 392.20
  C 545.68 391.86 546.36 391.27 547.18 390.79
  A 0.36 0.36 0.0 0 1 547.60 391.38
  C 537.92 399.86 526.78 410.82 521.95 422.64
  Q 518.07 432.11 517.32 442.52
  Q 517.28 443.05 516.78 443.22
  C 507.93 446.28 498.91 449.78 490.25 452.14
  Q 475.79 456.08 461.09 458.94
  C 443.90 462.28 431.77 465.42 417.62 472.15
  A 0.42 0.42 0.0 0 1 417.03 471.84
  C 414.76 457.24 404.65 439.34 389.55 434.72
  Z"
/>
<path fill="#fdf8c1" d="
  M 404.49 425.72
  L 398.59 425.88
  C 406.32 413.11 413.29 404.20 426.33 398.63
  A 0.36 0.36 0.0 0 1 426.73 399.20
  Q 416.04 410.74 410.32 425.38
  A 0.92 0.92 0.0 0 1 409.42 425.96
  L 404.49 425.72
  Z"
/>
<path fill="#9b0225" d="
  M 567.41 421.50
  Q 561.61 425.16 556.47 429.26
  C 552.34 432.55 540.73 433.82 535.39 434.77
  A 0.38 0.38 0.0 0 1 534.97 434.24
  L 539.98 423.11
  L 567.41 421.50
  Z"
/>
<path fill="#fdf8c1" d="
  M 770.51 450.48
  Q 769.26 453.68 766.79 454.99
  L 750.74 438.54
  Q 750.37 438.17 750.02 438.55
  L 722.98 467.72
  Q 721.68 469.87 718.85 468.62
  Q 718.34 468.40 717.84 468.64
  Q 716.88 469.11 715.96 469.09
  Q 715.30 468.78 715.23 468.24
  Q 715.17 467.83 715.62 467.37
  Q 732.86 449.20 750.52 431.00
  Q 750.91 430.61 751.30 431.00
  L 770.51 450.48
  Z"
/>
<path fill="#fdf8c1" d="
  M 313.07 471.08
  C 310.82 470.30 310.71 466.85 307.51 468.18
  Q 299.61 459.14 286.64 445.61
  Q 282.12 440.89 278.82 438.13
  Q 278.43 437.80 278.11 438.20
  C 269.82 448.53 259.62 457.91 250.48 467.66
  Q 247.22 468.30 244.68 470.05
  Q 243.32 469.14 243.00 468.33
  Q 242.71 467.61 243.77 466.53
  Q 261.04 448.92 278.35 431.34
  A 1.56 1.56 0.0 0 1 280.58 431.34
  L 315.86 467.53
  Q 316.32 468.00 315.84 468.45
  L 313.07 471.08
  Z"
/>
<path fill="#070010" d="
  M 307.51 468.18
  L 279.50 496.56
  A 1.08 1.08 0.0 0 1 277.94 496.54
  L 250.48 467.66
  C 259.62 457.91 269.82 448.53 278.11 438.20
  Q 278.43 437.80 278.82 438.13
  Q 282.12 440.89 286.64 445.61
  Q 299.61 459.14 307.51 468.18
  Z
  M 261.74 467.00
  L 261.75 468.06
  Q 261.76 468.61 262.11 469.02
  L 278.89 488.46
  Q 279.32 488.95 279.73 488.44
  Q 288.11 478.13 298.01 469.31
  A 0.76 0.76 0.0 0 0 297.99 468.15
  L 295.19 465.88
  C 292.43 461.25 289.11 459.38 286.15 455.78
  Q 283.98 453.13 281.62 450.77
  L 279.07 447.93
  Q 278.66 447.47 278.25 447.93
  L 261.20 466.57
  Q 260.76 467.05 261.42 467.02
  L 261.74 467.00
  Z"
/>
<path fill="#070010" d="
  M 766.79 454.99
  L 778.61 468.34
  Q 778.93 468.70 778.59 469.06
  C 769.92 478.12 760.95 488.40 751.27 496.34
  A 1.00 1.00 0.0 0 1 749.90 496.25
  L 722.98 467.72
  L 750.02 438.55
  Q 750.37 438.17 750.74 438.54
  L 766.79 454.99
  Z
  M 734.34 467.20
  Q 734.10 467.89 734.31 468.20
  Q 741.71 479.00 750.83 488.00
  A 0.99 0.99 0.0 0 0 752.29 487.93
  Q 754.78 484.95 757.31 481.85
  C 760.77 477.62 765.19 473.76 768.92 469.38
  Q 769.70 468.48 768.68 467.85
  Q 767.13 466.91 766.52 465.66
  L 751.23 448.97
  A 1.12 1.11 -46.4 0 0 749.55 449.02
  Q 742.03 458.11 734.07 466.32
  Q 733.65 466.75 734.34 467.20
  Z"
/>
<path fill="#fdf8c1" d="
  M 281.62 450.77
  L 280.36 468.27
  L 279.98 469.07
  Q 279.79 469.47 279.38 469.29
  C 274.04 466.88 267.20 464.84 261.74 467.00
  L 261.42 467.02
  Q 260.76 467.05 261.20 466.57
  L 278.25 447.93
  Q 278.66 447.47 279.07 447.93
  L 281.62 450.77
  Z"
/>
<path fill="#fdf8c1" d="
  M 608.83 454.91
  C 592.46 461.78 574.92 468.83 560.68 479.42
  Q 560.21 479.77 559.93 479.24
  L 560.53 469.52
  A 1.96 1.94 -13.7 0 1 561.50 467.95
  Q 587.34 452.87 616.95 448.17
  A 0.26 0.26 0.0 0 1 617.14 448.63
  L 608.83 454.91
  Z"
/>
<path fill="#fdf8c1" d="
  M 766.52 465.66
  L 756.95 466.55
  Q 756.46 466.59 756.32 466.12
  L 752.07 451.36
  Q 752.01 451.17 751.83 451.07
  Q 751.58 450.93 751.43 450.85
  Q 751.32 450.79 751.35 450.91
  Q 753.32 459.26 753.90 467.82
  A 1.21 1.21 0.0 0 1 752.31 469.05
  C 746.48 467.10 740.37 464.42 734.34 467.20
  Q 733.65 466.75 734.07 466.32
  Q 742.03 458.11 749.55 449.02
  A 1.12 1.11 -46.4 0 1 751.23 448.97
  L 766.52 465.66
  Z"
/>
<path fill="#e29d3c" d="
  M 770.51 450.48
  L 787.11 467.95
  A 0.56 0.56 0.0 0 1 787.11 468.73
  C 775.68 480.61 763.94 493.20 751.30 503.80
  Q 750.85 504.17 750.44 503.76
  L 715.96 469.09
  Q 716.88 469.11 717.84 468.64
  Q 718.34 468.40 718.85 468.62
  Q 721.68 469.87 722.98 467.72
  L 749.90 496.25
  A 1.00 1.00 0.0 0 0 751.27 496.34
  C 760.95 488.40 769.92 478.12 778.59 469.06
  Q 778.93 468.70 778.61 468.34
  L 766.79 454.99
  Q 769.26 453.68 770.51 450.48
  Z"
/>
<path fill="#cf1142" d="
  M 281.62 450.77
  Q 283.98 453.13 286.15 455.78
  C 289.11 459.38 292.43 461.25 295.19 465.88
  Q 289.34 468.34 282.74 468.65
  Q 282.28 468.67 281.88 468.45
  Q 281.21 468.06 280.36 468.27
  L 281.62 450.77
  Z"
/>
<path fill="#9b0225" d="
  M 766.52 465.66
  Q 767.13 466.91 768.68 467.85
  Q 769.70 468.48 768.92 469.38
  C 765.19 473.76 760.77 477.62 757.31 481.85
  Q 754.78 484.95 752.29 487.93
  A 0.99 0.99 0.0 0 1 750.83 488.00
  Q 741.71 479.00 734.31 468.20
  Q 734.10 467.89 734.34 467.20
  C 740.37 464.42 746.48 467.10 752.31 469.05
  A 1.21 1.21 0.0 0 0 753.90 467.82
  Q 753.32 459.26 751.35 450.91
  Q 751.32 450.79 751.43 450.85
  Q 751.58 450.93 751.83 451.07
  Q 752.01 451.17 752.07 451.36
  L 756.32 466.12
  Q 756.46 466.59 756.95 466.55
  L 766.52 465.66
  Z"
/>
<path fill="#44ac77" d="
  M 608.83 454.91
  Q 606.06 457.97 599.44 463.94
  Q 580.66 480.84 560.75 503.59
  C 559.73 495.81 558.40 486.93 559.50 479.92
  L 559.93 479.24
  Q 560.21 479.77 560.68 479.42
  C 574.92 468.83 592.46 461.78 608.83 454.91
  Z"
/>
<path fill="#17624d" d="
  M 574.99 509.49
  Q 586.44 512.02 597.09 512.68
  Q 597.62 512.71 597.80 512.22
  Q 607.21 486.94 614.80 461.54
  Q 614.98 460.94 615.39 460.04
  Q 616.25 458.21 615.24 458.35
  L 618.80 455.75
  Q 619.50 455.23 619.26 456.07
  Q 618.49 458.66 617.84 461.21
  Q 611.14 487.73 604.14 514.17
  Q 603.47 516.72 602.35 519.11
  Q 602.15 519.52 601.71 519.63
  Q 588.20 523.10 574.24 523.73
  Q 573.68 523.76 573.73 523.20
  L 574.99 509.49
  Z"
/>
<path fill="#44ac77" d="
  M 615.24 458.35
  Q 616.25 458.21 615.39 460.04
  Q 614.98 460.94 614.80 461.54
  Q 607.21 486.94 597.80 512.22
  Q 597.62 512.71 597.09 512.68
  Q 586.44 512.02 574.99 509.49
  Q 576.17 501.23 581.46 494.22
  Q 596.31 474.47 615.24 458.35
  Z"
/>
<path fill="#17624d" d="
  M 494.34 469.49
  Q 493.88 468.67 492.90 468.06
  Q 492.41 467.76 492.60 467.22
  Q 493.11 465.82 491.08 465.26
  L 499.44 463.31
  Q 500.12 463.15 499.77 463.75
  Q 497.71 467.31 494.34 469.49
  Z"
/>
<path fill="#9b0225" d="
  M 295.19 465.88
  L 297.99 468.15
  A 0.76 0.76 0.0 0 1 298.01 469.31
  Q 288.11 478.13 279.73 488.44
  Q 279.32 488.95 278.89 488.46
  L 262.11 469.02
  Q 261.76 468.61 261.75 468.06
  L 261.74 467.00
  C 267.20 464.84 274.04 466.88 279.38 469.29
  Q 279.79 469.47 279.98 469.07
  L 280.36 468.27
  Q 281.21 468.06 281.88 468.45
  Q 282.28 468.67 282.74 468.65
  Q 289.34 468.34 295.19 465.88
  Z"
/>
<path fill="#44ac77" d="
  M 491.08 465.26
  Q 493.11 465.82 492.60 467.22
  Q 492.41 467.76 492.90 468.06
  Q 493.88 468.67 494.34 469.49
  Q 479.84 483.50 460.17 486.94
  A 0.14 0.14 0.0 0 1 460.06 486.69
  Q 470.44 478.55 479.71 469.26
  C 482.80 466.16 486.98 465.45 491.08 465.26
  Z"
/>
<path fill="#e29d3c" d="
  M 250.48 467.66
  L 277.94 496.54
  A 1.08 1.08 0.0 0 0 279.50 496.56
  L 307.51 468.18
  C 310.71 466.85 310.82 470.30 313.07 471.08
  L 279.68 504.02
  A 0.78 0.78 0.0 0 1 278.59 504.03
  Q 261.20 487.63 244.68 470.05
  Q 247.22 468.30 250.48 467.66
  Z"
/>
<path fill="#b56e1b" d="
  M 526.38 480.18
  Q 520.57 487.98 520.49 495.50
  Q 520.42 502.94 522.69 515.52
  L 522.96 520.50
  L 522.15 525.76
  A 0.24 0.24 0.0 0 1 522.00 525.95
  Q 519.01 527.15 518.68 528.48
  Q 517.60 532.77 517.22 537.27
  Q 517.02 510.63 513.95 484.14
  A 1.89 1.88 -28.4 0 1 514.38 482.72
  L 521.40 474.34
  Q 521.73 473.94 522.11 474.28
  Q 524.96 476.76 526.38 480.18
  Z"
/>
<path fill="#17624d" d="
  M 559.50 479.92
  C 558.40 486.93 559.73 495.81 560.75 503.59
  L 553.90 512.40
  Q 553.57 512.83 553.37 512.32
  L 548.57 500.32
  A 2.01 2.01 0.0 0 1 548.51 499.00
  Q 550.96 490.50 551.87 481.71
  A 0.71 0.71 0.0 0 1 552.46 481.09
  L 559.50 479.92
  Z"
/>
<path fill="#e29d3c" d="
  M 526.38 480.18
  C 532.10 511.50 533.26 545.00 527.53 576.51
  C 527.59 573.79 527.13 571.08 527.35 568.49
  C 528.66 552.96 529.32 537.65 528.39 522.08
  C 528.19 518.76 526.24 516.77 524.24 514.39
  A 0.84 0.84 0.0 0 0 522.76 514.85
  L 522.69 515.52
  Q 520.42 502.94 520.49 495.50
  Q 520.57 487.98 526.38 480.18
  Z"
/>
<path fill="#e29d3c" d="
  M 422.79 687.26
  C 420.73 688.59 416.08 686.43 414.02 685.58
  Q 402.95 681.03 392.04 675.97
  Q 391.59 675.76 391.10 675.86
  Q 388.88 676.28 386.92 675.22
  Q 386.47 674.97 386.08 675.29
  Q 385.64 675.64 385.79 676.16
  Q 375.60 670.35 367.51 663.73
  Q 327.36 630.89 303.06 584.50
  Q 298.91 576.58 294.56 567.83
  A 0.35 0.35 0.0 0 0 293.90 568.08
  L 294.40 569.94
  Q 294.52 570.39 294.28 570.78
  Q 293.55 572.03 292.12 571.54
  L 288.79 562.34
  Q 289.65 559.00 289.07 554.46
  Q 289.91 554.71 289.82 552.24
  Q 289.27 535.48 286.25 518.83
  Q 286.16 518.30 285.63 518.25
  Q 282.25 517.91 279.28 520.45
  Q 278.75 518.76 276.96 519.31
  L 276.12 514.91
  Q 276.01 514.36 276.57 514.34
  Q 283.90 514.15 290.10 510.25
  Q 290.74 509.85 290.85 510.60
  C 301.75 588.27 351.80 654.45 422.79 687.26
  Z"
/>
<path fill="#fdf8c1" d="
  M 747.98 513.54
  Q 749.10 514.06 748.67 515.17
  Q 748.58 515.40 748.08 515.96
  A 1.34 1.30 67.0 0 0 747.75 516.81
  C 747.74 520.41 747.97 523.81 747.19 527.33
  C 738.21 567.92 720.76 603.68 694.39 634.89
  Q 691.57 638.22 684.57 645.07
  Q 679.13 650.40 674.58 656.07
  L 669.83 646.28
  Q 669.60 645.81 670.00 645.46
  C 707.40 612.34 733.59 560.26 739.33 510.76
  Q 739.38 510.27 739.80 510.54
  Q 743.54 512.88 747.98 513.54
  Z"
/>
<path fill="#e29d3c" d="
  M 747.98 513.54
  L 753.49 513.86
  Q 754.06 513.89 753.98 514.46
  C 745.47 571.10 720.19 621.57 677.13 659.76
  A 0.72 0.72 0.0 0 1 676.16 659.75
  Q 675.17 658.82 674.58 656.07
  Q 679.13 650.40 684.57 645.07
  Q 691.57 638.22 694.39 634.89
  C 720.76 603.68 738.21 567.92 747.19 527.33
  C 747.97 523.81 747.74 520.41 747.75 516.81
  A 1.34 1.30 67.0 0 1 748.08 515.96
  Q 748.58 515.40 748.67 515.17
  Q 749.10 514.06 747.98 513.54
  Z"
/>
<path fill="#fdf8c1" d="
  M 527.53 576.51
  L 523.96 598.22
  Q 522.78 593.97 519.47 593.29
  Q 518.99 593.19 518.89 593.67
  Q 513.11 621.41 506.38 648.93
  C 505.16 653.93 504.80 656.43 501.70 659.46
  Q 498.00 663.09 493.89 667.20
  C 501.05 634.81 508.59 602.83 514.79 570.35
  L 519.34 579.80
  Q 519.63 580.41 519.76 579.74
  C 520.10 578.01 520.81 576.24 520.87 574.55
  Q 521.94 547.53 522.96 520.50
  L 522.69 515.52
  L 522.76 514.85
  A 0.84 0.84 0.0 0 1 524.24 514.39
  C 526.24 516.77 528.19 518.76 528.39 522.08
  C 529.32 537.65 528.66 552.96 527.35 568.49
  C 527.13 571.08 527.59 573.79 527.53 576.51
  Z"
/>
<path fill="#fdf8c1" d="
  M 289.07 554.46
  Q 282.37 537.76 279.28 520.45
  Q 282.25 517.91 285.63 518.25
  Q 286.16 518.30 286.25 518.83
  Q 289.27 535.48 289.82 552.24
  Q 289.91 554.71 289.07 554.46
  Z"
/>
<path fill="#b56e1b" d="
  M 276.96 519.31
  Q 278.75 518.76 279.28 520.45
  Q 282.37 537.76 289.07 554.46
  Q 289.65 559.00 288.79 562.34
  C 283.20 549.39 279.34 531.21 276.96 519.31
  Z"
/>
<path fill="#e29d3c" d="
  M 522.96 520.50
  Q 521.94 547.53 520.87 574.55
  C 520.81 576.24 520.10 578.01 519.76 579.74
  Q 519.63 580.41 519.34 579.80
  L 514.79 570.35
  Q 515.67 562.76 516.55 554.55
  C 517.14 549.02 516.88 543.06 517.22 537.27
  Q 517.60 532.77 518.68 528.48
  Q 519.01 527.15 522.00 525.95
  A 0.24 0.24 0.0 0 0 522.15 525.76
  L 522.96 520.50
  Z"
/>
<path fill="#fdf8c1" d="
  M 468.02 553.75
  Q 464.28 552.70 460.72 551.28
  C 430.43 539.18 397.00 538.00 365.10 533.24
  Q 360.80 532.59 356.24 532.30
  L 349.71 530.03
  A 0.42 0.42 0.0 0 1 349.80 529.21
  C 372.84 526.47 395.88 525.61 418.96 523.55
  Q 421.45 523.33 423.78 524.15
  Q 444.82 531.52 465.79 539.13
  Q 466.28 539.31 466.34 539.81
  L 468.02 553.75
  Z"
/>
<path fill="#44ac77" d="
  M 468.02 553.75
  Q 467.92 552.50 468.55 554.39
  C 471.08 566.51 470.79 580.74 470.29 593.36
  C 443.22 573.77 414.65 557.43 384.25 544.37
  Q 370.40 538.41 356.24 532.30
  Q 360.80 532.59 365.10 533.24
  C 397.00 538.00 430.43 539.18 460.72 551.28
  Q 464.28 552.70 468.02 553.75
  Z"
/>
<path fill="#17624d" d="
  M 356.84 542.40
  L 417.83 616.14
  Q 418.16 616.54 418.64 616.33
  L 448.42 603.54
  L 455.75 622.30
  Q 456.12 623.24 455.13 623.45
  Q 442.85 625.98 430.32 627.07
  C 420.70 627.90 414.14 629.24 408.76 622.50
  C 395.07 605.35 378.44 581.44 361.19 559.26
  Q 354.01 550.04 347.43 540.37
  Q 347.02 539.77 347.75 539.85
  Q 352.71 540.41 356.84 542.40
  Z"
/>
<path fill="#44ac77" d="
  M 356.84 542.40
  C 383.31 549.49 407.89 563.58 429.72 579.80
  C 438.28 586.15 444.97 593.13 448.42 603.54
  L 418.64 616.33
  Q 418.16 616.54 417.83 616.14
  L 356.84 542.40
  Z"
/>
<path fill="#17624d" d="
  M 468.55 554.39
  L 479.00 556.26
  A 1.57 1.56 -3.4 0 1 480.22 557.34
  L 487.61 580.85
  A 0.78 0.73 47.0 0 1 487.61 581.30
  L 481.41 601.25
  A 0.59 0.59 0.0 0 1 480.48 601.54
  L 470.29 593.36
  C 470.79 580.74 471.08 566.51 468.55 554.39
  Z"
/>
<path fill="#fdf8c1" d="
  M 652.81 575.38
  C 646.68 575.12 639.42 575.98 634.73 576.14
  C 609.87 577.00 586.18 579.20 563.24 585.68
  Q 563.17 584.67 563.40 585.01
  L 564.84 573.40
  Q 564.90 572.90 565.39 572.74
  Q 582.27 567.49 599.15 562.54
  Q 601.56 561.84 604.05 562.15
  C 625.94 564.89 648.73 567.15 671.05 570.20
  A 0.27 0.27 0.0 0 1 671.08 570.72
  L 652.81 575.38
  Z"
/>
<path fill="#b56e1b" d="
  M 385.79 676.16
  C 405.39 688.42 420.36 697.24 440.40 704.55
  C 450.89 708.39 464.12 711.68 475.97 715.23
  L 473.56 720.25
  Q 473.32 720.75 472.78 720.65
  Q 456.37 717.60 443.49 713.03
  Q 341.00 676.63 294.94 578.26
  Q 293.42 575.02 292.12 571.54
  Q 293.55 572.03 294.28 570.78
  Q 294.52 570.39 294.40 569.94
  L 293.90 568.08
  A 0.35 0.35 0.0 0 1 294.56 567.83
  Q 298.91 576.58 303.06 584.50
  Q 327.36 630.89 367.51 663.73
  Q 375.60 670.35 385.79 676.16
  Z"
/>
<path fill="#44ac77" d="
  M 652.81 575.38
  Q 603.75 590.74 560.83 617.33
  Q 560.18 602.72 562.25 589.00
  Q 562.50 587.37 563.24 585.68
  C 586.18 579.20 609.87 577.00 634.73 576.14
  C 639.42 575.98 646.68 575.12 652.81 575.38
  Z"
/>
<path fill="#17624d" d="
  M 578.81 628.27
  Q 587.98 634.28 596.82 639.79
  C 597.98 640.52 599.48 642.17 600.97 643.01
  Q 601.50 643.32 601.95 642.89
  Q 631.33 614.55 660.59 586.09
  Q 662.50 584.23 663.97 581.94
  Q 664.33 581.37 663.67 581.28
  L 662.45 581.12
  Q 666.99 579.34 671.76 579.00
  Q 672.63 578.93 672.05 579.58
  C 650.63 603.96 627.75 627.36 605.57 651.07
  C 603.94 652.80 601.20 653.15 598.73 652.71
  Q 584.51 650.17 571.03 644.98
  A 0.59 0.59 0.0 0 1 570.72 644.15
  L 578.81 628.27
  Z"
/>
<path fill="#44ac77" d="
  M 662.45 581.12
  L 663.67 581.28
  Q 664.33 581.37 663.97 581.94
  Q 662.50 584.23 660.59 586.09
  Q 631.33 614.55 601.95 642.89
  Q 601.50 643.32 600.97 643.01
  C 599.48 642.17 597.98 640.52 596.82 639.79
  Q 587.98 634.28 578.81 628.27
  C 587.76 612.83 605.86 603.39 620.61 595.92
  Q 640.62 585.77 662.45 581.12
  Z"
/>
<path fill="#17624d" d="
  M 563.40 585.01
  Q 563.17 584.67 563.24 585.68
  Q 562.50 587.37 562.25 589.00
  Q 560.18 602.72 560.83 617.33
  L 551.06 624.05
  Q 550.41 624.50 550.21 623.73
  C 548.89 618.68 547.64 613.58 545.99 608.56
  C 545.35 606.60 544.82 605.31 545.77 603.23
  Q 549.55 595.04 552.00 586.38
  Q 552.14 585.89 552.64 585.86
  L 563.40 585.01
  Z"
/>
<path fill="#e29d3c" d="
  M 523.96 598.22
  L 509.69 667.43
  L 503.74 662.09
  Q 503.23 661.63 502.93 662.25
  Q 498.79 671.08 492.13 679.27
  L 493.89 667.20
  Q 498.00 663.09 501.70 659.46
  C 504.80 656.43 505.16 653.93 506.38 648.93
  Q 513.11 621.41 518.89 593.67
  Q 518.99 593.19 519.47 593.29
  Q 522.78 593.97 523.96 598.22
  Z"
/>
<path fill="#fdf8c1" d="
  M 626.34 688.76
  Q 626.30 689.94 624.17 689.36
  A 1.14 1.13 -5.9 0 1 623.44 688.77
  Q 622.23 686.34 619.77 685.27
  A 1.48 1.48 0.0 0 1 619.08 684.64
  Q 616.36 679.94 610.88 669.91
  Q 609.56 667.51 607.78 668.25
  Q 606.38 667.07 607.14 666.42
  Q 622.96 652.75 638.62 638.94
  Q 639.02 638.59 639.29 638.14
  L 639.56 637.67
  Q 639.83 637.23 640.32 637.37
  L 654.52 641.30
  Q 655.07 641.45 655.11 642.02
  L 655.45 646.65
  Q 655.50 647.33 654.85 647.14
  L 641.94 643.38
  A 1.18 1.16 32.3 0 0 640.84 643.62
  L 614.74 666.54
  A 2.13 2.12 53.6 0 0 614.34 669.25
  L 626.34 688.76
  Z"
/>
<path fill="#fdf8c1" d="
  M 663.90 674.51
  Q 662.63 674.60 662.42 674.02
  Q 660.62 671.21 657.01 671.24
  Q 648.46 671.30 641.96 673.03
  C 641.41 676.66 641.02 678.72 639.18 681.94
  A 0.26 0.26 0.0 0 1 638.71 681.74
  L 641.17 673.86
  A 1.23 1.21 -65.8 0 0 640.65 672.47
  Q 632.89 667.57 624.13 667.77
  L 642.43 651.05
  Q 642.71 650.79 643.08 650.93
  L 655.02 655.32
  Q 655.54 655.52 655.77 656.03
  L 663.90 674.51
  Z"
/>
<path fill="#b56e1b" d="
  M 509.69 667.43
  Q 509.47 672.09 508.40 673.62
  Q 505.08 678.38 491.67 693.37
  Q 491.30 693.79 491.33 693.23
  L 492.13 679.27
  Q 498.79 671.08 502.93 662.25
  Q 503.23 661.63 503.74 662.09
  L 509.69 667.43
  Z"
/>
<path fill="#9b0225" d="
  M 641.96 673.03
  Q 652.51 675.05 662.42 674.02
  Q 662.63 674.60 663.90 674.51
  C 655.58 681.47 646.84 687.54 639.19 695.35
  Q 638.85 695.70 638.60 695.28
  C 633.24 686.56 627.35 677.18 624.13 667.77
  Q 632.89 667.57 640.65 672.47
  A 1.23 1.21 -65.8 0 1 641.17 673.86
  L 638.71 681.74
  A 0.26 0.26 0.0 0 0 639.18 681.94
  C 641.02 678.72 641.41 676.66 641.96 673.03
  Z"
/>
<path fill="#b56e1b" d="
  M 626.34 688.76
  L 635.77 702.97
  A 1.27 1.26 -34.8 0 0 637.57 703.29
  C 648.89 695.06 659.07 685.12 671.25 678.10
  Q 671.93 677.71 672.14 678.47
  L 673.30 682.62
  Q 673.47 683.23 672.96 683.62
  C 660.90 692.90 648.75 703.72 635.95 711.81
  A 0.60 0.59 55.4 0 1 635.16 711.66
  Q 628.40 702.63 622.75 692.95
  C 618.05 684.89 612.19 676.90 607.78 668.25
  Q 609.56 667.51 610.88 669.91
  Q 616.36 679.94 619.08 684.64
  A 1.48 1.48 0.0 0 0 619.77 685.27
  Q 622.23 686.34 623.44 688.77
  A 1.14 1.13 -5.9 0 0 624.17 689.36
  Q 626.30 689.94 626.34 688.76
  Z"
/>
<path fill="#e29d3c" d="
  M 483.07 757.43
  L 480.05 746.42
  Q 479.89 745.84 479.32 746.02
  Q 477.86 746.48 476.81 745.45
  L 479.02 739.50
  L 479.87 739.79
  Q 480.28 739.94 480.48 739.55
  C 480.94 738.62 481.38 737.47 482.03 736.67
  C 499.98 714.37 516.29 692.56 541.79 678.11
  Q 543.31 677.25 542.76 675.60
  Q 541.82 672.70 537.37 670.35
  Q 542.01 668.37 544.29 670.23
  C 550.66 675.40 545.61 681.67 540.69 685.12
  Q 513.61 704.10 494.49 733.73
  Q 486.74 745.73 483.07 757.43
  Z"
/>
<path fill="#fdf8c1" d="
  M 537.37 670.35
  Q 541.82 672.70 542.76 675.60
  Q 543.31 677.25 541.79 678.11
  C 516.29 692.56 499.98 714.37 482.03 736.67
  C 481.38 737.47 480.94 738.62 480.48 739.55
  Q 480.28 739.94 479.87 739.79
  L 479.02 739.50
  C 481.05 734.91 482.80 729.89 485.04 725.73
  Q 498.94 700.04 521.00 680.76
  Q 528.79 673.95 537.37 670.35
  Z"
/>
<path fill="#cf1142" d="
  M 662.42 674.02
  Q 652.51 675.05 641.96 673.03
  Q 648.46 671.30 657.01 671.24
  Q 660.62 671.21 662.42 674.02
  Z"
/>
<path fill="#fdf8c1" d="
  M 422.79 687.26
  Q 450.18 699.18 479.32 706.32
  Q 479.92 706.47 479.67 707.04
  L 475.97 715.23
  C 464.12 711.68 450.89 708.39 440.40 704.55
  C 420.36 697.24 405.39 688.42 385.79 676.16
  Q 385.64 675.64 386.08 675.29
  Q 386.47 674.97 386.92 675.22
  Q 388.88 676.28 391.10 675.86
  Q 391.59 675.76 392.04 675.97
  Q 402.95 681.03 414.02 685.58
  C 416.08 686.43 420.73 688.59 422.79 687.26
  Z"
/>
<path fill="#fdf8c1" d="
  M 608.03 697.09
  C 600.92 699.57 593.46 702.64 586.83 704.66
  Q 562.89 711.98 537.99 715.29
  Q 537.44 715.36 537.62 714.84
  L 541.17 704.87
  Q 573.66 700.77 603.01 687.90
  Q 603.52 687.68 603.76 688.18
  L 608.03 697.09
  Z"
/>
<path fill="#b56e1b" d="
  M 608.03 697.09
  L 609.99 702.81
  Q 610.17 703.35 609.67 703.62
  Q 605.42 705.88 599.30 708.05
  Q 565.03 720.22 529.85 722.47
  Q 529.38 722.50 529.43 722.02
  Q 531.01 708.77 541.17 704.87
  L 537.62 714.84
  Q 537.44 715.36 537.99 715.29
  Q 562.89 711.98 586.83 704.66
  C 593.46 702.64 600.92 699.57 608.03 697.09
  Z"
/>
<path fill="#b56e1b" d="
  M 509.25 742.09
  Q 508.25 743.54 509.12 745.67
  Q 509.30 746.13 509.13 746.59
  C 506.99 752.28 503.02 754.05 504.99 761.01
  Q 510.24 779.55 516.43 797.81
  Q 519.74 807.58 524.25 814.07
  L 518.87 822.87
  A 0.31 0.31 0.0 0 1 518.31 822.81
  Q 507.34 791.94 498.15 760.78
  C 496.02 753.56 503.31 742.41 507.35 736.68
  Q 507.70 736.18 507.86 736.77
  L 509.25 742.09
  Z"
/>
<path fill="#e29d3c" d="
  M 509.25 742.09
  C 514.95 762.48 521.21 782.66 527.41 802.98
  C 528.70 807.21 526.70 810.66 524.25 814.07
  Q 519.74 807.58 516.43 797.81
  Q 510.24 779.55 504.99 761.01
  C 503.02 754.05 506.99 752.28 509.13 746.59
  Q 509.30 746.13 509.12 745.67
  Q 508.25 743.54 509.25 742.09
  Z"
/>
<path fill="#b56e1b" d="
  M 476.81 745.45
  Q 477.86 746.48 479.32 746.02
  Q 479.89 745.84 480.05 746.42
  L 483.07 757.43
  Q 481.44 765.10 481.33 773.99
  Q 481.32 774.68 480.97 774.09
  Q 473.15 760.82 476.81 745.45
  Z"
/>
<path fill="#e29d3c" d="
  M 519.82 843.51
  Q 522.91 845.71 522.35 848.26
  A 0.30 0.29 71.7 0 0 522.86 848.52
  C 532.22 837.57 562.90 806.70 556.69 791.30
  Q 553.92 784.44 546.89 779.77
  Q 544.27 774.59 539.62 769.51
  Q 539.31 769.17 539.77 769.19
  C 555.36 769.68 562.67 790.01 560.21 802.84
  C 557.70 815.95 552.16 823.15 542.91 835.71
  Q 535.59 845.63 531.66 850.17
  Q 515.75 868.52 504.13 888.27
  Q 502.80 890.54 502.89 887.91
  C 503.49 871.20 510.30 858.29 519.82 843.51
  Z"
/>
<path fill="#fdf8c1" d="
  M 519.82 843.51
  Q 527.79 832.90 535.52 822.31
  C 544.97 809.38 552.78 796.43 546.89 779.77
  Q 553.92 784.44 556.69 791.30
  C 562.90 806.70 532.22 837.57 522.86 848.52
  A 0.30 0.29 71.7 0 1 522.35 848.26
  Q 522.91 845.71 519.82 843.51
  Z"
/>
</svg>
